SplineFontDB: 3.0
FontName: Caudex-Italic
FullName: Caudex Italic
FamilyName: Caudex
Weight: Book
Copyright: Copyright (c) The Caudex Contributors (https://github.com/nidud/caudex)
Version: 1.08
ItalicAngle: -13
UnderlinePosition: -100
UnderlineWidth: 30
Ascent: 1638
Descent: 410
LayerCount: 2
Layer: 0 1 "Back"  1
Layer: 1 1 "Fore"  0
XUID: [1021 997 1545580258 7013116]
FSType: 0
OS2Version: 0
OS2_WeightWidthSlopeOnly: 0
OS2_UseTypoMetrics: 1
CreationTime: 936868149
ModificationTime: 1465178512
PfmFamily: 17
TTFWeight: 400
TTFWidth: 5
LineGap: 0
VLineGap: 0
Panose: 2 4 5 2 5 5 5 10 3 4
OS2TypoAscent: 2034
OS2TypoAOffset: 0
OS2TypoDescent: -606
OS2TypoDOffset: 0
OS2TypoLinegap: 0
OS2WinAscent: 2034
OS2WinAOffset: 0
OS2WinDescent: 606
OS2WinDOffset: 0
HheadAscent: 2034
HheadAOffset: 0
HheadDescent: -606
HheadDOffset: 0
OS2SubXSize: 1285
OS2SubYSize: 1230
OS2SubXOff: 0
OS2SubYOff: 0
OS2SupXSize: 655
OS2SupYSize: 860
OS2SupXOff: 0
OS2SupYOff: 550
OS2StrikeYSize: 100
OS2StrikeYPos: 530
OS2FamilyClass: 260
OS2Vendor: 'PfEd'
MacStyle: 2
Lookup: 258 0 0 "'kern' Horizontal Kerning in Latin lookup 0"  {"'kern' Horizontal Kerning in Latin lookup 0 subtable" [307,0,0] } ['kern' ('latn' <'dflt' > ) ]
MarkAttachClasses: 1
DEI: 91125
KernClass2: 18 19 "'kern' Horizontal Kerning in Latin lookup 0 subtable"
 140 A Aacute Agrave Acircumflex Adieresis Atilde Abreve Aring Aringacute Amacron Aogonek uni1EA0 uni1EA2 uni1EA4 uni1EA6 uni1EA8 uni1EAA uni1EAC
 17 F uni03DC uni1E1E
 29 L Lacute Ldotbelow Lhighstrok
 37 P Rho uni1E54 uni1E56 uniA750 uniA752
 44 R Racute Rcommaaccent Rcaron uni1E58 uni1E5A
 37 T Tcommaaccent Tcaron uni1E6A uni1E6C
 71 V W Wcircumflex uni1E7E Wgrave Wacute Wdieresis uni1E86 uni1E88 uniA760
 70 Y Ycircumflex Ydieresis uni0232 Upsilondieresis Ygrave uni1EF4 uni1EF6
 22 r rcommaaccent uni1E5B
 87 v w wcircumflex uni1D20 uni1D21 uni1E7F wgrave wacute wdieresis uni1E87 uni1E89 uniA761
 60 y ycircumflex uni1E8F uni1E99 ygrave uni1EF5 uni1EF7 uni1EF9
 12 quotedblbase

StartChar: .notdef
Encoding: 65536 -1 0
Width: 772
Flags: W
LayerCount: 2
Fore
SplineSet
324 1404 m 1,0,-1
 1096 1404 l 1,1,-1
 772 0 l 1,2,-1
 0 0 l 1,3,-1
 324 1404 l 1,0,-1
328 244 m 2,5,-1
 312 175 l 2,6,7
 310 167 310 167 310 159 c 0,8,9
 310 156 310 156 310 154 c 0,10,11
 310 102 310 102 388 102 c 256,12,13
 480 102 480 102 496 175 c 2,14,-1
 512 244 l 2,15,16
 515 255 515 255 515 265 c 0,17,18
 515 317 515 317 437 317 c 256,19,4
 345 317 345 317 328 244 c 2,5,-1
515 504 m 2,20,-1
 553 653 l 2,21,22
 568 713 568 713 592 744 c 0,23,24
 615 773 615 773 673 805 c 0,25,26
 697 819 697 819 715 829 c 0,27,28
 879 917 879 917 912 1059 c 0,29,30
 920 1093 920 1093 920 1123 c 0,31,32
 920 1192 920 1192 879 1237 c 0,33,34
 818 1302 818 1302 684 1302 c 0,35,36
 554 1302 554 1302 464 1235 c 1,37,38
 374 1169 374 1169 347 1054 c 0,39,40
 345 1045 345 1045 345 1038 c 0,41,42
 345 1024 345 1024 353 1016 c 0,43,44
 364 1005 364 1005 394 1005 c 0,45,46
 420 1005 420 1005 441 1016 c 0,47,48
 458 1026 458 1026 464 1046 c 0,49,50
 500 1162 500 1162 542 1204 c 1,51,52
 583 1248 583 1248 651 1248 c 0,53,54
 728 1248 728 1248 757 1201 c 1,55,56
 772 1175 772 1175 772 1134 c 0,57,58
 772 1101 772 1101 762 1059 c 0,59,60
 742 971 742 971 688 908 c 1,61,62
 631 844 631 844 509 771 c 1,63,-1
 448 505 l 2,64,65
 441 475 441 475 441 452 c 0,66,67
 441 443 441 443 442 436 c 0,68,69
 444 411 444 411 459 411 c 0,70,71
 476 411 476 411 490 433 c 256,72,73
 504 455 504 455 515 504 c 2,20,-1
EndSplineSet
Validated: 1
EndChar

StartChar: exclam
Encoding: 33 33 4
Width: 550
Flags: W
LayerCount: 2
Fore
SplineSet
310 230 m 0,0,1
 403 230 403 230 403 168 c 0,2,3
 403 157 403 157 400 143 c 2,4,-1
 381 61 l 2,5,6
 361 -25 361 -25 251 -25 c 0,7,8
 158 -25 158 -25 158 37 c 0,9,10
 158 48 158 48 161 61 c 2,11,-1
 180 143 l 2,12,13
 200 230 200 230 310 230 c 0,0,1
381 375 m 1,14,15
 375 351 375 351 350 351 c 2,16,-1
 329 351 l 2,17,18
 310 351 310 351 310 367 c 0,19,20
 310 371 310 371 311 375 c 1,21,-1
 461 1330 l 1,22,-1
 463 1340 l 2,23,24
 478 1404 478 1404 551 1404 c 2,25,-1
 614 1404 l 2,26,27
 676 1404 676 1404 676 1359 c 0,28,29
 676 1350 676 1350 673 1339 c 2,30,-1
 671 1330 l 1,31,-1
 381 375 l 1,14,15
EndSplineSet
Validated: 1
EndChar

StartChar: numbersign
Encoding: 35 35 5
Width: 1100
Flags: W
LayerCount: 2
Fore
SplineSet
250 19 m 2,0,-1
 397 382 l 1,1,-1
 118 382 l 2,2,3
 107 382 107 382 107 389 c 0,4,5
 108 391 108 391 108 392 c 2,6,-1
 142 477 l 2,7,8
 146 487 146 487 160 487 c 2,9,-1
 439 487 l 1,10,-1
 551 762 l 1,11,-1
 272 762 l 2,12,13
 258 762 258 762 261 772 c 2,14,-1
 296 857 l 2,15,16
 300 867 300 867 314 867 c 2,17,-1
 593 867 l 1,18,-1
 740 1230 l 2,19,20
 747 1247 747 1247 757 1247 c 2,21,-1
 842 1247 l 2,22,23
 852 1247 852 1247 845 1230 c 2,24,-1
 698 867 l 1,25,-1
 885 867 l 1,26,-1
 1032 1230 l 2,27,28
 1039 1247 1039 1247 1050 1247 c 2,29,-1
 1134 1247 l 2,30,31
 1145 1247 1145 1247 1138 1230 c 2,32,-1
 991 867 l 1,33,-1
 1269 867 l 2,34,35
 1281 867 1281 867 1281 861 c 0,36,37
 1281 859 1281 859 1280 857 c 2,38,-1
 1245 772 l 2,39,40
 1242 762 1242 762 1227 762 c 2,41,-1
 949 762 l 1,42,-1
 837 487 l 1,43,-1
 1115 487 l 2,44,45
 1130 487 1130 487 1126 477 c 2,46,-1
 1092 392 l 2,47,48
 1089 382 1089 382 1073 382 c 2,49,-1
 795 382 l 1,50,-1
 648 19 l 2,51,52
 641 1 641 1 630 1 c 2,53,-1
 546 1 l 2,54,55
 535 1 535 1 542 19 c 2,56,-1
 689 382 l 1,57,-1
 502 382 l 1,58,-1
 355 19 l 2,59,60
 348 1 348 1 338 1 c 2,61,-1
 253 1 l 2,62,63
 243 1 243 1 250 19 c 2,0,-1
656 762 m 1,64,-1
 544 487 l 1,65,-1
 731 487 l 1,66,-1
 843 762 l 1,67,-1
 656 762 l 1,64,-1
EndSplineSet
Validated: 1
EndChar

StartChar: dollar
Encoding: 36 36 6
Width: 1100
Flags: W
LayerCount: 2
Fore
SplineSet
947 388 m 2,0,-1
 949 399 l 1,1,2
 955 427 955 427 955 452 c 0,3,4
 955 527 955 527 903 572 c 0,5,6
 871 600 871 600 797 622 c 0,7,8
 767 631 767 631 732 639 c 1,9,-1
 598 59 l 1,10,11
 646 68 646 68 713 98 c 0,12,13
 796 136 796 136 859 208 c 0,14,15
 923 282 923 282 947 388 c 2,0,-1
919 1449 m 1,16,17
 1133 1437 1133 1437 1263 1338 c 1,18,-1
 1190 1128 l 2,19,20
 1184 1110 1184 1110 1167 1110 c 2,21,-1
 1163 1110 l 1,22,23
 1150 1111 1150 1111 1145 1138 c 0,24,25
 1123 1228 1123 1228 1055 1292 c 0,26,27
 989 1354 989 1354 898 1359 c 1,28,-1
 773 820 l 1,29,30
 812 814 812 814 858 806 c 0,31,32
 920 796 920 796 994 772 c 0,33,34
 1068 747 1068 747 1100 700 c 0,35,36
 1131 654 1131 654 1144 596 c 0,37,38
 1149 573 1149 573 1148 548 c 0,39,40
 1148 508 1148 508 1137 459 c 0,41,42
 1088 245 1088 245 881 103 c 0,43,44
 773 30 773 30 668 -2 c 0,45,46
 619 -17 619 -17 578 -26 c 1,47,-1
 551 -143 l 2,48,49
 546 -166 546 -166 522 -166 c 2,50,-1
 476 -166 l 2,51,52
 454 -166 454 -166 459 -143 c 2,53,-1
 483 -37 l 1,54,55
 436 -39 436 -39 418 -39 c 0,56,57
 279 -39 279 -39 161 0 c 1,58,-1
 127 264 l 2,59,60
 126 268 126 268 128 276 c 128,-1,61
 130 284 130 284 140 296 c 0,62,63
 151 308 151 308 163 307 c 1,64,65
 174 304 174 304 181 278 c 0,66,67
 214 139 214 139 292 96 c 128,-1,68
 370 53 370 53 493 53 c 0,69,70
 498 53 498 53 504 53 c 1,71,-1
 643 654 l 1,72,73
 629 656 629 656 614 657 c 0,74,75
 507 669 507 669 423 714 c 0,76,77
 339 758 339 758 314 840 c 0,78,79
 301 884 301 884 301 931 c 0,80,81
 301 973 301 973 311 1018 c 0,82,83
 354 1206 354 1206 515 1328 c 0,84,85
 654 1433 654 1433 826 1447 c 1,86,-1
 850 1551 l 2,87,88
 855 1574 855 1574 877 1574 c 2,89,-1
 923 1574 l 2,90,91
 947 1574 947 1574 942 1551 c 2,92,-1
 919 1449 l 1,16,17
805 1354 m 1,93,94
 757 1346 757 1346 719 1330 c 0,95,96
 653 1302 653 1302 620 1274 c 128,-1,97
 587 1246 587 1246 560 1208 c 0,98,99
 533 1171 533 1171 517 1133 c 0,100,101
 500 1095 500 1095 492 1061 c 0,102,103
 487 1039 487 1039 487 1018 c 0,104,105
 487 1006 487 1006 488 994 c 1,106,107
 493 926 493 926 531 894 c 128,-1,108
 569 862 569 862 603 853 c 128,-1,109
 637 844 637 844 670 838 c 0,110,111
 677 837 677 837 685 835 c 1,112,-1
 805 1354 l 1,93,94
EndSplineSet
Validated: 1
EndChar

StartChar: percent
Encoding: 37 37 7
Width: 1300
Flags: W
LayerCount: 2
Fore
SplineSet
159 -32 m 1,0,-1
 1420 1420 l 1,1,-1
 1512 1420 l 1,2,-1
 251 -32 l 1,3,-1
 159 -32 l 1,0,-1
574 1392 m 1,4,5
 488 1391 488 1391 456.5 1321.5 c 128,-1,6
 425 1252 425 1252 414 1204 c 2,7,-1
 360 969 l 2,8,9
 349 922 349 922 349 855 c 0,10,11
 349 781 349 781 420 781 c 128,-1,12
 491 781 491 781 533.5 836.5 c 128,-1,13
 576 892 576 892 594 969 c 2,14,-1
 648 1204 l 2,15,16
 658 1247 658 1247 658 1283 c 0,17,18
 658 1312 658 1312 647.5 1352 c 128,-1,19
 637 1392 637 1392 575 1392 c 2,20,-1
 574 1392 l 1,4,5
583.5 1425 m 128,-1,22
 683 1425 683 1425 715 1373.5 c 128,-1,23
 747 1322 747 1322 747 1271 c 0,24,25
 747 1245 747 1245 741 1215 c 2,26,-1
 681 958 l 2,27,28
 661 871 661 871 586.5 809.5 c 128,-1,29
 512 748 512 748 415 748 c 128,-1,30
 318 748 318 748 289 799 c 128,-1,31
 260 850 260 850 260 899 c 0,32,33
 260 927 260 927 267 958 c 2,34,-1
 327 1215 l 2,35,36
 347 1301 347 1301 415.5 1363 c 128,-1,21
 484 1425 484 1425 583.5 1425 c 128,-1,22
1199 632 m 1,37,38
 1113 631 1113 631 1081.5 561.5 c 128,-1,39
 1050 492 1050 492 1039 444 c 2,40,-1
 984 209 l 2,41,42
 973 162 973 162 973 95 c 0,43,44
 973 21 973 21 1044.5 21 c 128,-1,45
 1116 21 1116 21 1158 76.5 c 128,-1,46
 1200 132 1200 132 1218 209 c 2,47,-1
 1273 444 l 2,48,49
 1282 483 1282 483 1282 516 c 0,50,51
 1282 519 1282 519 1282 523 c 0,52,53
 1282 552 1282 552 1272 592 c 128,-1,54
 1262 632 1262 632 1200 632 c 2,55,-1
 1199 632 l 1,37,38
1208.5 665 m 128,-1,57
 1308 665 1308 665 1340 613.5 c 128,-1,58
 1372 562 1372 562 1372 511 c 0,59,60
 1372 485 1372 485 1365 455 c 2,61,-1
 1306 198 l 2,62,63
 1286 111 1286 111 1211 49.5 c 128,-1,64
 1136 -12 1136 -12 1039 -12 c 128,-1,65
 942 -12 942 -12 913.5 39 c 128,-1,66
 885 90 885 90 885 139 c 0,67,68
 885 167 885 167 892 198 c 2,69,-1
 951 455 l 2,70,71
 971 541 971 541 1040 603 c 128,-1,56
 1109 665 1109 665 1208.5 665 c 128,-1,57
EndSplineSet
Validated: 1
EndChar

StartChar: ampersand
Encoding: 38 38 8
Width: 1292
Flags: W
LayerCount: 2
Fore
SplineSet
947 302 m 1,0,-1
 1032 155 l 1,1,2
 1066 91 1066 91 1161 41 c 0,3,4
 1185 29 1185 29 1190 17 c 1,5,6
 1191 11 1191 11 1190 8 c 1,7,8
 1187 4 1187 4 1187 3 c 0,9,10
 1181 -2 1181 -2 1172 -2 c 2,11,-1
 928 -2 l 2,12,13
 893 -2 893 -2 865 66 c 0,14,15
 844 117 844 117 818 158 c 1,16,17
 714 59 714 59 613 13 c 1,18,19
 511 -32 511 -32 396 -32 c 0,20,21
 260 -32 260 -32 197 49 c 1,22,23
 160 99 160 99 160 165 c 0,24,25
 160 201 160 201 168 240 c 0,26,27
 171 252 171 252 175 264 c 0,28,29
 209 384 209 384 297 478 c 1,30,31
 381 570 381 570 558 672 c 1,32,33
 516 754 516 754 501 835 c 0,34,35
 495 865 495 865 495 897 c 0,36,37
 495 938 495 938 505 982 c 0,38,39
 508 995 508 995 512 1009 c 0,40,41
 547 1141 547 1141 648 1223 c 0,42,43
 746 1302 746 1302 876 1302 c 0,44,45
 1003 1302 1003 1302 1055 1238 c 0,46,47
 1088 1198 1088 1198 1088 1141 c 0,48,49
 1088 1111 1088 1111 1081 1079 c 2,50,-1
 1077 1062 l 1,51,52
 1046 957 1046 957 966 875 c 0,53,54
 881 789 881 789 729 706 c 1,55,-1
 916 355 l 1,56,-1
 1076 564 l 2,57,58
 1088 580 1088 580 1094 597 c 0,59,60
 1096 603 1096 603 1097 608 c 0,61,62
 1099 618 1099 618 1099 627 c 0,63,64
 1098 639 1098 639 1093 647 c 128,-1,65
 1088 655 1088 655 1087 664 c 0,66,67
 1087 668 1087 668 1088 671 c 2,68,-1
 1089 674 l 2,69,70
 1089 675 1089 675 1092 681 c 0,71,72
 1103 700 1103 700 1118 700 c 2,73,-1
 1376 700 l 2,74,75
 1386 700 1386 700 1389 694 c 0,76,-1
 1390 692 l 0,77,78
 1390 691 1390 691 1389 690 c 2,79,-1
 1389 688 l 2,80,81
 1388 685 1388 685 1386 681 c 1,82,83
 1377 670 1377 670 1346 656 c 0,84,85
 1329 649 1329 649 1309.5 641 c 128,-1,86
 1290 633 1290 633 1271 622 c 0,87,88
 1186 574 1186 574 1116 496 c 128,-1,89
 1046 418 1046 418 947 302 c 1,0,-1
702 759 m 1,90,91
 805 813 805 813 863 881 c 0,92,93
 919 948 919 948 951 1051 c 1,94,-1
 954 1066 l 2,95,96
 962 1102 962 1102 962 1133 c 0,97,98
 962 1160 962 1160 956 1183 c 0,99,100
 940 1236 940 1236 853 1236 c 0,101,102
 785 1236 785 1236 736 1191 c 1,103,104
 685 1143 685 1143 662 1062 c 0,105,106
 658 1051 658 1051 656 1041 c 0,107,108
 647 1004 647 1004 647 966 c 0,109,110
 647 962 647 962 647 958 c 0,111,112
 647 859 647 859 702 759 c 1,90,91
790 214 m 1,113,-1
 580 615 l 1,114,115
 397 501 397 501 351 337 c 0,116,117
 348 327 348 327 345 316 c 0,118,119
 336 278 336 278 336 244 c 0,120,121
 336 187 336 187 361 142 c 0,122,123
 404 62 404 62 498 62 c 0,124,125
 579 62 579 62 652.5 106 c 128,-1,126
 726 150 726 150 790 214 c 1,113,-1
EndSplineSet
Validated: 1
EndChar

StartChar: quotesingle
Encoding: 39 39 9
Width: 426
Flags: W
LayerCount: 2
Fore
SplineSet
446 969 m 1,0,1
 443 957 443 957 424 957 c 2,2,-1
 409 957 l 2,3,4
 391 957 391 957 394 969 c 1,5,-1
 443 1409 l 1,6,-1
 444 1413 l 2,7,8
 451 1443 451 1443 505 1443 c 2,9,-1
 552 1443 l 2,10,11
 600 1443 600 1443 600 1420 c 0,12,13
 600 1417 600 1417 599 1414 c 2,14,-1
 598 1409 l 1,15,-1
 446 969 l 1,0,1
EndSplineSet
Validated: 1
EndChar

StartChar: parenleft
Encoding: 40 40 10
Width: 628
Flags: W
LayerCount: 2
Fore
SplineSet
210 568 m 0,0,1
 264 802 264 802 417 1049 c 128,-1,2
 570 1296 570 1296 919 1467 c 0,3,4
 927 1471 927 1471 932 1471 c 0,5,6
 934 1471 934 1471 935 1470 c 128,-1,7
 936 1469 936 1469 936 1466 c 0,8,9
 936 1459 936 1459 932 1442 c 2,10,-1
 925 1412 l 1,11,12
 647 1211 647 1211 539.5 1031.5 c 128,-1,13
 432 852 432 852 366 568 c 0,14,15
 318 361 318 361 318 210 c 0,16,17
 318 153 318 153 334 39 c 128,-1,18
 350 -75 350 -75 535 -276 c 1,19,-1
 528 -306 l 2,20,21
 522 -331 522 -331 519 -334 c 0,22,23
 517 -335 517 -335 515 -335 c 0,24,25
 510 -335 510 -335 504 -331 c 0,26,27
 234 -160 234 -160 206.5 15 c 128,-1,28
 179 190 179 190 179 291 c 0,29,30
 179 295 179 295 179 299 c 0,31,32
 179 435 179 435 210 568 c 0,0,1
EndSplineSet
Validated: 1
EndChar

StartChar: comma
Encoding: 44 44 11
Width: 480
Flags: W
LayerCount: 2
Fore
SplineSet
136 -226 m 1,0,1
 102 -249 102 -249 77 -249 c 0,2,3
 61 -249 61 -249 49 -240 c 1,4,5
 45 -235 45 -235 45 -229 c 0,6,7
 45 -218 45 -218 61.5 -203.5 c 128,-1,8
 78 -189 78 -189 106 -175 c 0,9,10
 212 -118 212 -118 251 -25 c 1,11,12
 158 -25 158 -25 158 37 c 0,13,14
 158 48 158 48 161 61 c 2,15,-1
 180 143 l 2,16,17
 200 230 200 230 310 230 c 256,18,19
 403 230 403 230 403 168 c 0,20,21
 403 157 403 157 400 143 c 2,22,-1
 381 61 l 1,23,24
 314 -126 314 -126 136 -226 c 1,0,1
EndSplineSet
Validated: 1
EndChar

StartChar: hyphen
Encoding: 45 45 12
Width: 1100
Flags: HW
LayerCount: 2
Fore
SplineSet
350 436 m 1,0,-1
 377 555 l 1,1,-1
 995 555 l 1,2,-1
 968 436 l 1,3,-1
 350 436 l 1,0,-1
EndSplineSet
EndChar

StartChar: period
Encoding: 46 46 13
Width: 480
Flags: W
LayerCount: 2
Fore
SplineSet
310 230 m 256,0,1
 403 230 403 230 403 168 c 0,2,3
 403 157 403 157 400 143 c 2,4,-1
 381 61 l 2,5,6
 361 -25 361 -25 251 -25 c 256,7,8
 158 -25 158 -25 158 37 c 0,9,10
 158 48 158 48 161 61 c 2,11,-1
 180 143 l 2,12,13
 200 230 200 230 310 230 c 256,0,1
EndSplineSet
Validated: 1
EndChar

StartChar: slash
Encoding: 47 47 14
Width: 1100
Flags: W
LayerCount: 2
Fore
SplineSet
42 -70 m 1,0,-1
 1242 1474 l 1,1,-1
 1382 1474 l 1,2,-1
 184 -70 l 1,3,-1
 42 -70 l 1,0,-1
EndSplineSet
Validated: 1
EndChar

StartChar: zero
Encoding: 48 48 15
Width: 1100
Flags: W
LayerCount: 2
Fore
SplineSet
867 1374 m 1,0,1
 678 1371 678 1371 610.5 1220 c 128,-1,2
 543 1069 543 1069 519 966 c 2,3,-1
 401 454 l 2,4,5
 377 352 377 352 377 203 c 0,6,7
 377 200 377 200 377.5 123 c 128,-1,8
 378 46 378 46 532.5 46 c 128,-1,9
 687 46 687 46 778.5 166 c 128,-1,10
 870 286 870 286 909 454 c 2,11,-1
 1027 966 l 2,12,13
 1049 1060 1049 1060 1049 1140 c 0,14,15
 1049 1202 1049 1202 1027 1288 c 128,-1,16
 1005 1374 1005 1374 869 1374 c 2,17,-1
 867 1374 l 1,0,1
886.5 1446 m 128,-1,19
 1103 1446 1103 1446 1173.5 1334 c 128,-1,20
 1244 1222 1244 1222 1244 1109 c 0,21,22
 1244 1052 1244 1052 1229 989 c 2,23,-1
 1101 431 l 2,24,25
 1057 242 1057 242 893.5 108.5 c 128,-1,26
 730 -25 730 -25 520 -25 c 128,-1,27
 310 -25 310 -25 246.5 85 c 128,-1,28
 183 195 183 195 183 303 c 0,29,30
 183 364 183 364 199 431 c 2,31,-1
 327 989 l 2,32,33
 370 1177 370 1177 520 1311.5 c 128,-1,18
 670 1446 670 1446 886.5 1446 c 128,-1,19
EndSplineSet
Validated: 1
EndChar

StartChar: one
Encoding: 49 49 16
Width: 1100
Flags: W
LayerCount: 2
Fore
SplineSet
417 21 m 2,0,-1
 417 23 l 1,1,2
 421 45 421 45 476 63 c 128,-1,3
 531 81 531 81 546 146 c 2,4,-1
 801 1252 l 1,5,-1
 597 1252 l 1,6,-1
 608 1299 l 1,7,-1
 1030 1463 l 1,8,-1
 726 146 l 2,9,10
 722 130 722 130 722 116 c 0,11,12
 722 76 722 76 762.5 61 c 128,-1,13
 803 46 803 46 797 22 c 2,14,-1
 797 21 l 2,15,16
 792 0 792 0 772 0 c 2,17,-1
 432 0 l 2,18,19
 416 0 416 0 416 14 c 0,20,21
 416 17 416 17 417 21 c 2,0,-1
EndSplineSet
Validated: 1
EndChar

StartChar: two
Encoding: 50 50 17
Width: 1100
Flags: W
LayerCount: 2
Fore
SplineSet
152 0 m 1,0,-1
 170 78 l 2,1,2
 190 165 190 165 256 230 c 256,3,4
 322 295 322 295 462 415 c 1,5,6
 543 478 543 478 624 550.5 c 128,-1,7
 705 623 705 623 798 709.5 c 128,-1,8
 891 796 891 796 945 883.5 c 128,-1,9
 999 971 999 971 1009.5 1017 c 128,-1,10
 1020 1063 1020 1063 1020 1090 c 128,-1,11
 1020 1117 1020 1117 1013 1141 c 0,12,13
 983 1240 983 1240 892 1279 c 0,14,15
 839 1301 839 1301 783.5 1301 c 128,-1,16
 728 1301 728 1301 675 1289 c 0,17,18
 549 1259 549 1259 447 1147 c 0,19,20
 415 1111 415 1111 396 1080 c 1,21,-1
 392 1080 l 1,22,-1
 422 1210 l 1,23,24
 438 1238 438 1238 453 1257 c 1,25,26
 511 1325 511 1325 596.5 1377.5 c 128,-1,27
 682 1430 682 1430 791 1446 c 0,28,29
 834 1452 834 1452 875 1452 c 0,30,31
 1008 1452 1008 1452 1113 1385 c 0,32,33
 1216 1318 1216 1318 1216 1184 c 0,34,35
 1216 1140 1216 1140 1205 1090 c 1,36,-1
 1204 1086 l 2,37,38
 1172 949 1172 949 1070.5 827 c 128,-1,39
 969 705 969 705 842 593 c 128,-1,40
 715 481 715 481 584 363.5 c 128,-1,41
 453 246 453 246 374 150 c 1,42,-1
 744 150 l 2,43,44
 873 150 873 150 999 192 c 1,45,-1
 967 42 l 1,46,47
 902 7 902 7 835 3.5 c 128,-1,48
 768 0 768 0 711 0 c 2,49,-1
 152 0 l 1,0,-1
EndSplineSet
Validated: 1
EndChar

StartChar: three
Encoding: 51 51 18
Width: 1100
Flags: W
LayerCount: 2
Fore
SplineSet
386 -31 m 0,0,1
 258 -31 258 -31 181 42 c 1,2,-1
 214 209 l 1,3,-1
 220 209 l 1,4,5
 258 105 258 105 392 73 c 0,6,7
 440 61 440 61 504 61 c 128,-1,8
 568 61 568 61 645 97 c 0,9,10
 760 151 760 151 821 253 c 0,11,12
 854 308 854 308 864.5 353.5 c 128,-1,13
 875 399 875 399 875 435 c 0,14,15
 875 446 875 446 874 456 c 0,16,17
 866 558 866 558 782.5 633.5 c 128,-1,18
 699 709 699 709 528 712 c 1,19,-1
 533 740 l 1,20,21
 607 762 607 762 705 801.5 c 128,-1,22
 803 841 803 841 863 914 c 128,-1,23
 923 987 923 987 938 1053 c 0,24,25
 942 1072 942 1072 944 1092 c 0,26,27
 944 1099 944 1099 944 1106 c 0,28,29
 944 1182 944 1182 897 1245.5 c 128,-1,30
 850 1309 850 1309 749 1309 c 0,31,32
 740 1309 740 1309 732 1308 c 0,33,34
 617 1301 617 1301 525 1214 c 0,35,36
 483 1174 483 1174 459 1128 c 1,37,-1
 455 1128 l 1,38,-1
 491 1283 l 1,39,40
 596 1375 596 1375 694.5 1410.5 c 128,-1,41
 793 1446 793 1446 876 1446 c 1,42,43
 1103 1443 1103 1443 1137 1262 c 1,44,45
 1141 1240 1141 1240 1141 1217 c 0,46,47
 1141 1187 1141 1187 1134 1157 c 0,48,49
 1104 1029 1104 1029 942 903 c 0,50,51
 908 876 908 876 864 848 c 1,52,53
 992 777 992 777 1021 692.5 c 128,-1,54
 1050 608 1050 608 1050 544 c 0,55,56
 1050 501 1050 501 1040 458 c 0,57,58
 1037 443 1037 443 1032 428 c 0,59,60
 964 212 964 212 725 65 c 0,61,62
 599 -12 599 -12 436 -28 c 0,63,64
 410 -31 410 -31 386 -31 c 0,0,1
EndSplineSet
Validated: 1
EndChar

StartChar: four
Encoding: 52 52 19
Width: 1100
Flags: W
LayerCount: 2
Fore
SplineSet
684 146 m 2,0,-1
 746 415 l 1,1,-1
 164 415 l 1,2,-1
 190 529 l 1,3,-1
 974 1404 l 1,4,-1
 1154 1404 l 1,5,-1
 958 556 l 1,6,-1
 1160 556 l 1,7,-1
 1128 415 l 1,8,-1
 926 415 l 1,9,-1
 864 146 l 2,10,11
 861 134 861 134 861 124 c 0,12,13
 861 79 861 79 919.5 63 c 128,-1,14
 978 47 978 47 978 26 c 0,15,16
 978 0 978 0 952 0 c 2,17,-1
 528 0 l 1,18,19
 505 1 505 1 512 23.5 c 128,-1,20
 519 46 519 46 594 63.5 c 128,-1,21
 669 81 669 81 684 146 c 2,0,-1
778 556 m 1,22,-1
 938 1246 l 1,23,-1
 324 556 l 1,24,-1
 778 556 l 1,22,-1
EndSplineSet
Validated: 1
EndChar

StartChar: five
Encoding: 53 53 20
Width: 1100
Flags: W
LayerCount: 2
Fore
SplineSet
904 450 m 1,0,-1
 910 477 l 1,1,2
 912 483 912 483 914 489 c 0,3,4
 918 504 918 504 917 523 c 0,5,6
 917 553 917 553 908 591 c 1,7,8
 891 687 891 687 803 741 c 1,9,10
 733 776 733 776 661 776 c 0,11,12
 547 776 547 776 429 688 c 1,13,14
 391 653 391 653 344 653 c 0,15,16
 334 653 334 653 323 655 c 1,17,18
 309 655 309 655 295.5 656 c 128,-1,19
 282 657 282 657 289 687 c 2,20,-1
 447 1371 l 2,21,22
 453 1397 453 1397 458.5 1400.5 c 128,-1,23
 464 1404 464 1404 500 1404 c 2,24,-1
 994 1404 l 2,25,26
 1029 1404 1029 1404 1103 1400.5 c 128,-1,27
 1177 1397 1177 1397 1223 1363 c 1,28,-1
 1183 1189 l 1,29,30
 1082 1230 1082 1230 954 1230 c 2,31,-1
 510 1230 l 1,32,-1
 402 762 l 1,33,34
 508 820 508 820 599 852 c 1,35,36
 690 886 690 886 770 886 c 0,37,38
 813 886 813 886 853 876 c 0,39,40
 970 848 970 848 1036 769 c 1,41,42
 1112 688 1112 688 1112 564 c 0,43,44
 1112 511 1112 511 1098 450 c 0,45,46
 1092 424 1092 424 1083 396 c 1,47,48
 1019 225 1019 225 874 112 c 0,49,50
 706 -20 706 -20 450 -24 c 1,51,52
 248 -24 248 -24 124 70 c 1,53,-1
 168 259 l 1,54,-1
 172 259 l 1,55,56
 201 170 201 170 293 125 c 1,57,58
 382 81 382 81 479 81 c 0,59,60
 499 80 499 80 517 82 c 0,61,62
 633 92 633 92 738 184 c 1,63,64
 863 286 863 286 904 450 c 1,0,-1
EndSplineSet
Validated: 1
EndChar

StartChar: six
Encoding: 54 54 21
Width: 1100
Flags: W
LayerCount: 2
Fore
SplineSet
501 768.5 m 128,-1,1
 383 637 383 637 354 511 c 128,-1,2
 325 385 325 385 325 322 c 0,3,4
 325 231 325 231 372 137 c 128,-1,5
 419 43 419 43 536 43 c 2,6,-1
 548 43 l 1,7,8
 673 49 673 49 791.5 180.5 c 128,-1,9
 910 312 910 312 951 491 c 256,10,11
 968 565 968 565 968 628 c 0,12,13
 968 719 968 719 921 813 c 128,-1,14
 874 907 874 907 757 907 c 2,15,-1
 745 907 l 1,16,0
 619 900 619 900 501 768.5 c 128,-1,1
750 971 m 0,17,18
 782 971 782 971 815 967 c 0,19,20
 976 949 976 949 1061 850 c 0,21,22
 1155 741 1155 741 1155 597 c 0,23,24
 1155 543 1155 543 1142 484 c 0,25,-1
 1141 481 l 0,26,27
 1092 268 1092 268 917 122 c 0,28,29
 741 -26 741 -26 548 -26 c 2,30,-1
 533 -26 l 1,31,32
 326 -20 326 -20 244 99 c 128,-1,33
 162 218 162 218 162 342 c 0,34,35
 162 401 162 401 177 466 c 2,36,-1
 179 475 l 1,37,38
 256 796 256 796 447 1023 c 128,-1,39
 638 1250 638 1250 925 1420 c 0,40,41
 956 1438 956 1438 970 1444.5 c 128,-1,42
 984 1451 984 1451 1016 1451 c 2,43,-1
 1085 1450 l 2,44,45
 1128 1450 1128 1450 1126.5 1443 c 128,-1,46
 1125 1436 1125 1436 1107 1428 c 1,47,48
 912 1311 912 1311 776.5 1197.5 c 128,-1,49
 641 1084 641 1084 512 914 c 1,50,51
 624 971 624 971 750 971 c 0,17,18
EndSplineSet
Validated: 1
EndChar

StartChar: seven
Encoding: 55 55 22
Width: 1100
Flags: W
LayerCount: 2
Fore
SplineSet
419 153 m 1,0,1
 364 79 364 79 328 0 c 1,2,-1
 158 1 l 1,3,4
 159 16 159 16 162 25 c 0,5,6
 177 78 177 78 206 123 c 0,7,8
 248 186 248 186 282 232 c 0,9,10
 389 376 389 376 699 756 c 0,11,12
 936 1047 936 1047 1086 1230 c 1,13,-1
 688 1230 l 2,14,15
 558 1230 558 1230 441 1189 c 1,16,-1
 481 1363 l 1,17,18
 541 1396 541 1396 607 1400 c 0,19,20
 672 1404 672 1404 728 1404 c 2,21,-1
 1222 1404 l 2,22,23
 1258 1404 1258 1404 1262 1400 c 0,24,25
 1264 1399 1264 1399 1264 1393 c 0,26,27
 1264 1383 1264 1383 1258 1358 c 0,28,29
 1241 1289 1241 1289 1198 1228 c 1,30,31
 1002 959 1002 959 807.5 690.5 c 128,-1,32
 613 422 613 422 419 153 c 1,0,1
EndSplineSet
Validated: 1
EndChar

StartChar: eight
Encoding: 56 56 23
Width: 1100
Flags: W
LayerCount: 2
Fore
SplineSet
915 693 m 128,-1,1
 859 756 859 756 734 756 c 0,2,3
 608 756 608 756 501 674 c 0,4,5
 393 591 393 591 350 406 c 0,6,7
 350 404 350 404 349 402 c 0,8,9
 332 324 332 324 332 265 c 0,10,11
 332 181 332 181 378 117.5 c 128,-1,12
 424 54 424 54 570.5 54 c 128,-1,13
 717 54 717 54 813 132.5 c 128,-1,14
 909 211 909 211 954 405 c 256,15,16
 971 481 971 481 971 539 c 0,17,0
 971 630 971 630 915 693 c 128,-1,1
382 1102 m 0,18,19
 424 1278 424 1278 568.5 1363 c 128,-1,20
 713 1448 713 1448 922 1448 c 128,-1,21
 1131 1448 1131 1448 1211 1349 c 0,22,23
 1263 1284 1263 1284 1263 1191 c 0,24,25
 1263 1148 1263 1148 1252 1100 c 0,26,27
 1251 1094 1251 1094 1249 1088 c 0,28,29
 1189 852 1189 852 914 796 c 1,30,31
 1045 761 1045 761 1109 664 c 0,32,33
 1153 602 1153 602 1153 506 c 0,34,35
 1153 447 1153 447 1136 374 c 0,36,-1
 1136 372 l 0,37,38
 1092 182 1092 182 929 83 c 0,39,40
 763 -20 763 -20 535 -20 c 0,41,42
 534 -20 534 -20 533 -20 c 0,43,44
 306 -20 306 -20 201 88 c 0,45,46
 128 163 128 163 128 284 c 0,47,48
 128 338 128 338 143 402 c 1,49,50
 181 563 181 563 295.5 662 c 128,-1,51
 410 761 410 761 566 797 c 1,52,53
 372 846 372 846 372 1015 c 0,54,55
 372 1018 372 1018 372 1022 c 0,56,57
 372 1059 372 1059 382 1102 c 0,18,19
674 1301 m 128,-1,59
 597 1219 597 1219 570 1104 c 0,60,61
 569 1100 569 1100 568 1095 c 0,62,63
 557 1047 557 1047 557 1004 c 0,64,65
 557 951 557 951 574 908 c 0,66,67
 605 826 605 826 755 826 c 0,68,-1
 756 825 l 0,69,70
 905 825 905 825 973.5 907 c 128,-1,71
 1042 989 1042 989 1061 1069.5 c 128,-1,72
 1080 1150 1080 1150 1080 1191 c 0,73,74
 1080 1253 1080 1253 1047 1318 c 128,-1,75
 1014 1383 1014 1383 882.5 1383 c 128,-1,58
 751 1383 751 1383 674 1301 c 128,-1,59
EndSplineSet
Validated: 1
EndChar

StartChar: less
Encoding: 60 60 24
Width: 1100
Flags: W
LayerCount: 2
Fore
SplineSet
324 607 m 2,0,1
 319 614 319 614 319 623 c 0,2,3
 319 626 319 626 319 629 c 0,4,5
 321 644 321 644 348 665 c 2,6,-1
 1105 1268 l 2,7,8
 1129 1287 1129 1287 1145 1287 c 0,9,10
 1157 1287 1157 1287 1165 1277 c 2,11,-1
 1202 1228 l 2,12,13
 1205 1222 1205 1222 1205 1213 c 0,14,15
 1205 1210 1205 1210 1204 1206 c 0,16,17
 1201 1190 1201 1190 1178 1170 c 2,18,-1
 502 631 l 1,19,-1
 929 93 l 1,20,21
 941 75 941 75 939 56 c 0,22,23
 937 45 937 45 926 35 c 2,24,-1
 867 -13 l 2,25,26
 855 -23 855 -23 843 -23 c 0,27,28
 827 -23 827 -23 811 -4 c 2,29,-1
 324 607 l 2,0,1
EndSplineSet
Validated: 1
EndChar

StartChar: at
Encoding: 64 64 25
Width: 2119
Flags: W
LayerCount: 2
Fore
SplineSet
1880 178 m 0,0,1
 1814 112 1814 112 1734.5 56 c 128,-1,2
 1655 0 1655 0 1571 -31 c 1,3,4
 1473 -69 1473 -69 1387 -69 c 0,5,6
 1323 -69 1323 -69 1266 -48 c 0,7,8
 1197 -22 1197 -22 1197 47 c 0,9,10
 1197 66 1197 66 1202 87 c 2,11,-1
 1203 91 l 1,12,-1
 871 -14 l 2,13,14
 835 -25 835 -25 813 -25 c 2,15,-1
 772 -25 l 1,16,17
 632 -18 632 -18 581 91 c 1,18,19
 557 141 557 141 557 205 c 0,20,21
 557 249 557 249 568 300 c 0,22,23
 594 411 594 411 665 523 c 128,-1,24
 736 635 736 635 818 711 c 0,25,26
 865 755 865 755 950 803 c 0,27,28
 977 818 977 818 1012 830 c 1,29,30
 1106 860 1106 860 1200 890 c 128,-1,31
 1294 920 1294 920 1389 950 c 0,32,33
 1408 956 1408 956 1425 956 c 2,34,-1
 1430 956 l 1,35,36
 1492 953 1492 953 1569 924 c 0,37,38
 1575 922 1575 922 1577 920 c 0,39,40
 1595 911 1595 911 1623 900 c 0,41,42
 1634 896 1634 896 1644 896 c 0,43,44
 1660 896 1660 896 1676 905 c 0,45,46
 1706 923 1706 923 1720 935 c 0,47,48
 1728 942 1728 942 1736 942 c 0,49,50
 1740 942 1740 942 1745 940 c 0,51,52
 1761 932 1761 932 1759 922 c 2,53,-1
 1758 920 l 1,54,-1
 1425 199 l 2,55,56
 1407 159 1407 159 1400 128 c 0,57,58
 1395 108 1395 108 1395 91 c 0,59,60
 1395 36 1395 36 1447 22 c 0,61,62
 1464 17 1464 17 1483 17 c 0,63,64
 1521 17 1521 17 1569 35 c 1,65,66
 1643 61 1643 61 1710 112 c 0,67,68
 1819 194 1819 194 1915 350 c 0,69,70
 2011 508 2011 508 2055 699 c 0,71,72
 2080 806 2080 806 2080 896 c 0,73,74
 2080 1093 2080 1093 1960 1206 c 256,75,76
 1786 1370 1786 1370 1482 1370 c 0,77,78
 1255 1370 1255 1370 1009 1257 c 1,79,80
 762 1145 762 1145 571 912 c 1,81,82
 380 681 380 681 311 387 c 0,83,84
 284 268 284 268 284 160 c 0,85,86
 284 61 284 61 307 -29 c 0,87,88
 355 -215 355 -215 509 -320 c 0,89,90
 660 -424 660 -424 907 -424 c 0,91,92
 1115 -424 1115 -424 1317 -351 c 0,93,94
 1500 -284 1500 -284 1655 -176 c 0,95,96
 1660 -172 1660 -172 1665 -172 c 0,97,98
 1671 -172 1671 -172 1677 -179 c 256,99,100
 1682 -186 1682 -186 1680 -196 c 0,101,102
 1678 -205 1678 -205 1670 -215 c 0,103,104
 1653 -239 1653 -239 1637 -252 c 0,105,106
 1459 -388 1459 -388 1257.5 -447.5 c 128,-1,107
 1056 -507 1056 -507 843 -507 c 0,108,109
 443 -507 443 -507 245 -255 c 0,110,111
 109 -81 109 -81 109 157 c 0,112,113
 109 266 109 266 138 388 c 0,114,115
 241 832 241 832 632 1138 c 1,116,117
 1023 1442 1023 1442 1490 1442 c 0,118,119
 1864 1442 1864 1442 2061 1240 c 1,120,121
 2202 1093 2202 1093 2203 880 c 0,122,123
 2203 796 2203 796 2181 702 c 0,124,125
 2114 413 2114 413 1880 178 c 0,0,1
1220 145 m 1,126,-1
 1508 769 l 1,127,128
 1485 807 1485 807 1432.5 839.5 c 128,-1,129
 1380 872 1380 872 1329 874 c 1,130,-1
 1325 874 l 2,131,132
 1305 874 1305 874 1282 866 c 0,133,134
 1240 853 1240 853 1198 839.5 c 128,-1,135
 1156 826 1156 826 1114 813 c 0,136,137
 1086 804 1086 804 1062 787 c 0,138,139
 970 721 970 721 904.5 627 c 128,-1,140
 839 533 839 533 804 441 c 0,141,142
 785 394 785 394 775 352 c 0,143,144
 765 308 765 308 765 270 c 0,145,146
 765 235 765 235 774 207 c 1,147,148
 800 114 800 114 886 86 c 0,149,150
 920 75 920 75 958 75 c 0,151,152
 970 75 970 75 984 76 c 0,153,154
 1007 78 1007 78 1043 89 c 0,155,156
 1067 96 1067 96 1123.5 114.5 c 128,-1,157
 1180 133 1180 133 1220 145 c 1,126,-1
EndSplineSet
Validated: 1
EndChar

StartChar: A
Encoding: 65 65 26
Width: 1593
Flags: W
LayerCount: 2
Fore
SplineSet
1545 6 m 128,-1,1
 1541 0 1541 0 1532 0 c 2,2,-1
 1194 0 l 2,3,4
 1185 0 1185 0 1177 6.5 c 128,-1,5
 1169 13 1169 13 1168.5 18.5 c 128,-1,6
 1168 24 1168 24 1169 30 c 128,-1,7
 1170 36 1170 36 1183 45.5 c 128,-1,8
 1196 55 1196 55 1211 65 c 128,-1,9
 1226 75 1226 75 1233.5 87.5 c 128,-1,10
 1241 100 1241 100 1244 114 c 0,11,12
 1247 129 1247 129 1244 147 c 2,13,-1
 1175 489 l 1,14,-1
 592 489 l 1,15,16
 536 403 536 403 481 317.5 c 128,-1,17
 426 232 426 232 391 179.5 c 128,-1,18
 356 127 356 127 352.5 115.5 c 128,-1,19
 349 104 349 104 347 95.5 c 128,-1,20
 345 87 345 87 345.5 76 c 128,-1,21
 346 65 346 65 351 56.5 c 128,-1,22
 356 48 356 48 356 39.5 c 128,-1,23
 356 31 356 31 355 28 c 256,24,25
 354 25 354 25 352 21 c 0,26,27
 340 0 340 0 325 0 c 2,28,-1
 67 0 l 2,29,30
 54 0 54 0 54 9 c 0,31,32
 54 14 54 14 57 21 c 0,33,34
 65 39 65 39 98 52 c 128,-1,35
 131 65 131 65 174 83 c 1,36,37
 218 110 218 110 243 146 c 2,38,-1
 1105 1427 l 1,39,-1
 1167 1427 l 1,40,41
 1190 1309 1190 1309 1224 1138 c 128,-1,42
 1258 967 1258 967 1295 786 c 128,-1,43
 1332 605 1332 605 1366 434 c 128,-1,44
 1400 263 1400 263 1424 146 c 1,45,46
 1430 109 1430 109 1458.5 86.5 c 128,-1,47
 1487 64 1487 64 1507 54 c 128,-1,48
 1527 44 1527 44 1537 36 c 128,-1,49
 1547 28 1547 28 1548 23.5 c 128,-1,50
 1549 19 1549 19 1549 17 c 0,51,0
 1549 12 1549 12 1545 6 c 128,-1,1
1159 570 m 1,52,-1
 1038 1179 l 1,53,54
 939 1026 939 1026 840.5 874 c 128,-1,55
 742 722 742 722 644 570 c 1,56,-1
 1159 570 l 1,52,-1
EndSplineSet
Validated: 1
EndChar

StartChar: B
Encoding: 66 66 27
Width: 1240
Flags: W
LayerCount: 2
Fore
SplineSet
1028 1404 m 2,0,1
 1126 1404 1126 1404 1224.5 1369.5 c 128,-1,2
 1323 1335 1323 1335 1357 1235 c 0,3,4
 1371 1194 1371 1194 1371 1144 c 0,5,6
 1371 1096 1371 1096 1358 1041 c 1,7,8
 1331 933 1331 933 1252 849 c 1,9,10
 1194 786 1194 786 1095 745 c 1,11,12
 1226 699 1226 699 1266 586 c 1,13,14
 1281 541 1281 541 1281 487 c 0,15,16
 1281 434 1281 434 1267 372 c 1,17,18
 1238 253 1238 253 1150 160 c 0,19,20
 1074 79 1074 79 961 39.5 c 128,-1,21
 848 0 848 0 761 0 c 2,22,-1
 134 0 l 2,23,24
 117 0 117 0 117 14 c 0,25,26
 117 17 117 17 118 21 c 0,27,28
 124 46 124 46 178 64 c 128,-1,29
 232 82 232 82 247 146 c 2,30,-1
 503 1258 l 2,31,32
 507 1273 507 1273 507 1286 c 0,33,34
 507 1326 507 1326 469.5 1340.5 c 128,-1,35
 432 1355 432 1355 432 1377 c 0,36,37
 432 1380 432 1380 432 1383 c 0,38,39
 437 1404 437 1404 458 1404 c 2,40,-1
 1028 1404 l 2,0,1
552 687 m 1,41,-1
 410 73 l 1,42,-1
 636 73 l 2,43,44
 709 73 709 73 788.5 94.5 c 128,-1,45
 868 116 868 116 934 169 c 0,46,47
 1036 250 1036 250 1066 383 c 0,48,49
 1075 422 1075 422 1075 457 c 0,50,51
 1075 537 1075 537 1029 597 c 1,52,53
 956 687 956 687 799 687 c 2,54,-1
 552 687 l 1,41,-1
572 774 m 1,55,-1
 848 774 l 1,56,57
 969 787 969 787 1057 856 c 0,58,59
 1149 929 1149 929 1176 1050 c 0,60,61
 1184 1086 1184 1086 1185 1119 c 0,62,63
 1185 1192 1185 1192 1142 1244 c 0,64,65
 1076 1325 1076 1325 935 1325 c 2,66,-1
 699 1325 l 1,67,-1
 572 774 l 1,55,-1
EndSplineSet
Validated: 1
EndChar

StartChar: C
Encoding: 67 67 28
Width: 1405
Flags: W
LayerCount: 2
Fore
SplineSet
839 -37 m 0,0,1
 532 -37 532 -37 368.5 130 c 128,-1,2
 205 297 205 297 205 510 c 0,3,4
 205 599 205 599 229 701 c 0,5,6
 307 1038 307 1038 584.5 1241.5 c 128,-1,7
 862 1445 862 1445 1182 1445 c 0,8,9
 1297 1445 1297 1445 1420.5 1419.5 c 128,-1,10
 1544 1394 1544 1394 1644 1319 c 1,11,-1
 1571 1109 l 1,12,13
 1563 1091 1563 1091 1547 1091 c 2,14,-1
 1544 1091 l 1,15,16
 1532 1092 1532 1092 1524 1119 c 1,17,18
 1495 1244 1495 1244 1393 1303 c 1,19,20
 1297 1356 1297 1356 1175 1356 c 2,21,-1
 1154 1356 l 1,22,23
 881 1344 881 1344 682 1140 c 0,24,25
 503 957 503 957 452 735 c 0,26,27
 446 710 446 710 442 685 c 0,28,29
 431 622 431 622 431 563 c 0,30,31
 431 404 431 404 521.5 240.5 c 128,-1,32
 612 77 612 77 863 65 c 0,33,34
 887 64 887 64 909 64 c 0,35,36
 1037 64 1037 64 1129 103 c 0,37,38
 1236 149 1236 149 1332 288 c 0,39,40
 1351 316 1351 316 1371 316 c 0,41,42
 1375 316 1375 316 1379 315 c 0,43,44
 1394 309 1394 309 1389 292 c 0,45,46
 1387 284 1387 284 1381 274 c 2,47,-1
 1238 31 l 1,48,49
 1133 -9 1133 -9 1030.5 -23 c 128,-1,50
 928 -37 928 -37 839 -37 c 0,0,1
EndSplineSet
Validated: 1
EndChar

StartChar: D
Encoding: 68 68 29
Width: 1585
Flags: W
LayerCount: 2
Fore
SplineSet
422 100 m 1,0,1
 542 76 542 76 657 76 c 0,2,3
 700 76 700 76 742 79 c 0,4,5
 1099 109 1099 109 1304 380 c 0,6,7
 1410 520 1410 520 1460 736 c 2,8,-1
 1468 769 l 1,9,10
 1484 856 1484 856 1484 928 c 0,11,12
 1484 1119 1484 1119 1372 1216 c 1,13,14
 1242 1334 1242 1334 985 1334 c 0,15,16
 972 1334 972 1334 959 1334 c 1,17,18
 836 1334 836 1334 702 1313 c 1,19,-1
 422 100 l 1,0,1
539 1407 m 2,20,-1
 853 1413 l 1,21,22
 1006 1413 1006 1413 1173 1403.5 c 128,-1,23
 1340 1394 1340 1394 1468 1332 c 128,-1,24
 1596 1270 1596 1270 1658 1144 c 0,25,26
 1697 1064 1697 1064 1697 947 c 0,27,28
 1697 850 1697 850 1670 727 c 1,29,30
 1632 561 1632 561 1531 416 c 128,-1,31
 1430 271 1430 271 1274 169 c 0,32,33
 1010 -3 1010 -3 687 -7 c 1,34,-1
 607 -7 l 2,35,36
 549 -7 549 -7 499 -6 c 1,37,-1
 382 -6 l 2,38,39
 299 -6 299 -6 256 -3 c 1,40,-1
 232 -3 l 2,41,42
 192 -3 192 -3 127 -9 c 1,43,44
 110 -9 110 -9 110 6 c 0,45,46
 110 10 110 10 113.5 24 c 128,-1,47
 117 38 117 38 171 56 c 128,-1,48
 225 74 225 74 240 139 c 2,49,-1
 499 1262 l 2,50,51
 503 1278 503 1278 503 1290 c 0,52,53
 503 1330 503 1330 465.5 1344.5 c 128,-1,54
 428 1359 428 1359 428 1381 c 0,55,56
 428 1384 428 1384 428 1387 c 0,57,58
 433 1408 433 1408 454 1408 c 0,59,60
 496 1407 496 1407 539 1407 c 2,20,-1
EndSplineSet
Validated: 1
EndChar

StartChar: E
Encoding: 69 69 30
Width: 1251
Flags: W
LayerCount: 2
Fore
SplineSet
458 94 m 1,0,-1
 885 94 l 2,1,2
 978 94 978 94 1059 165.5 c 128,-1,3
 1140 237 1140 237 1182 277 c 0,4,5
 1205 299 1205 299 1215 299 c 0,6,7
 1236 299 1236 299 1231 278 c 0,8,9
 1228 265 1228 265 1224 257 c 2,10,-1
 1092 0 l 1,11,-1
 173 0 l 2,12,13
 159 0 159 0 159 13 c 0,14,15
 159 17 159 17 160 21 c 0,16,17
 166 46 166 46 220 63.5 c 128,-1,18
 274 81 274 81 289 146 c 2,19,-1
 545 1257 l 2,20,21
 549 1273 549 1273 549 1286 c 0,22,23
 549 1326 549 1326 511.5 1340.5 c 128,-1,24
 474 1355 474 1355 474 1377 c 0,25,26
 474 1380 474 1380 474 1383 c 0,27,28
 479 1404 479 1404 500 1404 c 2,29,-1
 1428 1404 l 1,30,-1
 1369 1147 l 2,31,32
 1364 1126 1364 1126 1343 1126 c 0,33,34
 1333 1126 1333 1126 1315 1166 c 1,35,36
 1281 1235 1281 1235 1253.5 1273 c 128,-1,37
 1226 1311 1226 1311 1166 1311 c 2,38,-1
 739 1311 l 1,39,-1
 613 768 l 1,40,-1
 842 768 l 2,41,42
 906 768 906 768 938 819.5 c 128,-1,43
 970 871 970 871 996 871 c 0,44,45
 1016 871 1016 871 1011 850 c 2,46,-1
 953 596 l 2,47,48
 948 575 948 575 928 575 c 0,49,50
 902 575 902 575 890.5 626 c 128,-1,51
 879 677 879 677 815 677 c 2,52,-1
 592 677 l 1,53,-1
 458 94 l 1,0,-1
EndSplineSet
Validated: 1
EndChar

StartChar: F
Encoding: 70 70 31
Width: 1139
Flags: W
LayerCount: 2
Fore
SplineSet
174 0 m 2,0,1
 159 0 159 0 159 13 c 0,2,3
 159 16 159 16 160 21 c 0,4,5
 163 33 163 33 187 46 c 0,6,7
 204 56 204 56 227.5 69 c 128,-1,8
 251 82 251 82 269 104 c 1,9,10
 284 124 284 124 289 146 c 2,11,-1
 545 1257 l 2,12,13
 549 1273 549 1273 549 1286 c 0,14,15
 549 1326 549 1326 511.5 1340.5 c 128,-1,16
 474 1355 474 1355 474 1377 c 0,17,18
 474 1380 474 1380 474 1383 c 0,19,20
 479 1404 479 1404 500 1404 c 2,21,-1
 1428 1404 l 1,22,-1
 1369 1147 l 2,23,24
 1364 1126 1364 1126 1343 1126 c 0,25,26
 1333 1126 1333 1126 1315 1166 c 1,27,28
 1281 1235 1281 1235 1253.5 1273 c 128,-1,29
 1226 1311 1226 1311 1166 1311 c 2,30,-1
 739 1311 l 1,31,-1
 613 768 l 1,32,-1
 842 768 l 2,33,34
 884 768 884 768 925 805 c 0,35,36
 948 827 948 827 964 849 c 128,-1,37
 980 871 980 871 996 871 c 0,38,39
 1016 871 1016 871 1011 850 c 2,40,-1
 953 596 l 2,41,42
 948 575 948 575 928 575 c 0,43,44
 910 575 910 575 903.5 600.5 c 128,-1,45
 897 626 897 626 881 650 c 1,46,47
 859 678 859 678 822 678 c 2,48,-1
 593 678 l 1,49,-1
 470 146 l 2,50,51
 464 118 464 118 471 97 c 0,52,53
 479 79 479 79 494.5 67.5 c 128,-1,54
 510 56 510 56 523 47 c 0,55,56
 543 33 543 33 540 21 c 0,57,58
 539 15 539 15 537 12 c 0,59,60
 527 0 527 0 515 0 c 2,61,-1
 174 0 l 2,0,1
EndSplineSet
Validated: 1
EndChar

StartChar: G
Encoding: 71 71 32
Width: 1563
Flags: W
LayerCount: 2
Fore
SplineSet
839 -37 m 0,0,1
 532 -37 532 -37 368.5 130 c 128,-1,2
 205 297 205 297 205 510 c 0,3,4
 205 599 205 599 229 701 c 0,5,6
 307 1038 307 1038 584.5 1241.5 c 128,-1,7
 862 1445 862 1445 1182 1445 c 0,8,9
 1297 1445 1297 1445 1420.5 1419.5 c 128,-1,10
 1544 1394 1544 1394 1644 1319 c 1,11,-1
 1571 1109 l 1,12,13
 1563 1091 1563 1091 1547 1091 c 2,14,-1
 1544 1091 l 1,15,16
 1532 1092 1532 1092 1524 1119 c 1,17,18
 1491 1258 1491 1258 1405.5 1304 c 128,-1,19
 1320 1350 1320 1350 1160 1350 c 0,20,21
 937 1350 937 1350 727 1195 c 128,-1,22
 517 1040 517 1040 439 701 c 0,23,24
 424 635 424 635 424 570 c 0,25,26
 424 421 424 421 522 249 c 128,-1,27
 620 77 620 77 863 65 c 0,28,29
 887 64 887 64 909 64 c 0,30,31
 1023 64 1023 64 1108 94 c 0,32,33
 1209 130 1209 130 1297 240 c 1,34,-1
 1341 428 l 1,35,36
 1346 459 1346 459 1320 476 c 1,37,38
 1296 490 1296 490 1251 510.5 c 128,-1,39
 1206 531 1206 531 1206 550 c 0,40,41
 1206 575 1206 575 1233 575 c 2,42,-1
 1634 575 l 2,43,44
 1651 575 1651 575 1651 561 c 0,45,46
 1651 558 1651 558 1650 554 c 0,47,48
 1644 528 1644 528 1590 510 c 128,-1,49
 1536 492 1536 492 1521 428 c 2,50,-1
 1431 39 l 1,51,52
 1275 32 1275 32 1124 -4 c 0,53,54
 1048 -23 1048 -23 976 -30 c 128,-1,55
 904 -37 904 -37 839 -37 c 0,0,1
EndSplineSet
Validated: 1
EndChar

StartChar: H
Encoding: 72 72 33
Width: 1638
Flags: W
LayerCount: 2
Fore
SplineSet
725 1257 m 2,0,-1
 617 789 l 1,1,-1
 1462 789 l 1,2,-1
 1570 1257 l 2,3,4
 1574 1273 1574 1273 1574 1285 c 0,5,6
 1574 1325 1574 1325 1536.5 1340 c 128,-1,7
 1499 1355 1499 1355 1499 1377 c 0,8,9
 1499 1380 1499 1380 1499 1383 c 0,10,11
 1504 1404 1504 1404 1525 1404 c 2,12,-1
 1864 1404 l 2,13,14
 1881 1404 1881 1404 1881 1390 c 0,15,16
 1881 1387 1881 1387 1880 1383 c 0,17,18
 1874 1357 1874 1357 1819.5 1339 c 128,-1,19
 1765 1321 1765 1321 1750 1257 c 2,20,-1
 1494 146 l 2,21,22
 1490 130 1490 130 1490 117 c 0,23,24
 1490 77 1490 77 1528 62.5 c 128,-1,25
 1566 48 1566 48 1566 26 c 0,26,27
 1566 23 1566 23 1566 21 c 0,28,29
 1561 0 1561 0 1540 0 c 2,30,-1
 1201 0 l 2,31,32
 1180 0 1180 0 1185 21 c 0,33,34
 1191 46 1191 46 1245 63.5 c 128,-1,35
 1299 81 1299 81 1314 146 c 2,36,-1
 1441 697 l 1,37,-1
 596 697 l 1,38,-1
 469 146 l 2,39,40
 465 130 465 130 465 117 c 0,41,42
 465 77 465 77 505.5 61.5 c 128,-1,43
 546 46 546 46 540 21 c 0,44,45
 535 0 535 0 515 0 c 2,46,-1
 176 0 l 2,47,48
 159 0 159 0 159 14 c 0,49,50
 159 17 159 17 160 21 c 0,51,52
 166 46 166 46 220 63.5 c 128,-1,53
 274 81 274 81 289 146 c 2,54,-1
 545 1257 l 2,55,56
 549 1273 549 1273 549 1285 c 0,57,58
 549 1325 549 1325 511.5 1340 c 128,-1,59
 474 1355 474 1355 474 1377 c 0,60,61
 474 1380 474 1380 474 1383 c 0,62,63
 479 1404 479 1404 500 1404 c 2,64,-1
 839 1404 l 2,65,66
 859 1404 859 1404 854 1383 c 0,67,68
 848 1357 848 1357 794 1339 c 128,-1,69
 740 1321 740 1321 725 1257 c 2,0,-1
EndSplineSet
Validated: 1
EndChar

StartChar: I
Encoding: 73 73 34
Width: 690
Flags: W
LayerCount: 2
Fore
SplineSet
725 1257 m 2,0,-1
 469 147 l 2,1,2
 465 131 465 131 465 117 c 0,3,4
 465 77 465 77 505.5 61.5 c 128,-1,5
 546 46 546 46 540 21 c 0,6,7
 535 0 535 0 514 0 c 2,8,-1
 175 0 l 2,9,10
 159 0 159 0 159 14 c 0,11,12
 159 17 159 17 160 21 c 0,13,14
 166 46 166 46 220 63.5 c 128,-1,15
 274 81 274 81 289 146 c 2,16,-1
 545 1257 l 2,17,18
 549 1273 549 1273 549 1286 c 0,19,20
 549 1326 549 1326 511.5 1340.5 c 128,-1,21
 474 1355 474 1355 474 1377 c 0,22,23
 474 1380 474 1380 474 1383 c 0,24,25
 479 1404 479 1404 500 1404 c 2,26,-1
 838 1404 l 2,27,28
 855 1404 855 1404 855 1390 c 0,29,30
 855 1387 855 1387 854 1383 c 0,31,32
 848 1357 848 1357 794 1339.5 c 128,-1,33
 740 1322 740 1322 725 1257 c 2,0,-1
EndSplineSet
Validated: 1
EndChar

StartChar: J
Encoding: 74 74 35
Width: 682
Flags: W
LayerCount: 2
Fore
SplineSet
472 180 m 2,0,1
 427 -17 427 -17 378 -113 c 128,-1,2
 329 -209 329 -209 248 -277 c 1,3,4
 137 -369 137 -369 18 -399 c 1,5,-1
 29 -349 l 1,6,7
 74 -325 74 -325 116.5 -287.5 c 128,-1,8
 159 -250 159 -250 192 -189 c 0,9,10
 213 -148 213 -148 231 -74 c 128,-1,11
 249 0 249 0 289 174 c 2,12,-1
 539 1258 l 2,13,14
 543 1274 543 1274 543 1286 c 0,15,16
 543 1326 543 1326 505.5 1341 c 128,-1,17
 468 1356 468 1356 468 1378 c 0,18,19
 468 1381 468 1381 469 1384 c 0,20,21
 474 1404 474 1404 494 1404 c 2,22,-1
 833 1404 l 2,23,24
 850 1404 850 1404 850 1391 c 0,25,26
 850 1388 850 1388 850 1384 c 0,27,28
 844 1358 844 1358 789.5 1340 c 128,-1,29
 735 1322 735 1322 720 1258 c 2,30,-1
 472 180 l 2,0,1
EndSplineSet
Validated: 1
EndChar

StartChar: K
Encoding: 75 75 36
Width: 1487
Flags: W
LayerCount: 2
Fore
SplineSet
1245 1241 m 2,0,1
 1340 1314 1340 1314 1395 1358.5 c 128,-1,2
 1450 1403 1450 1403 1477 1403 c 128,-1,3
 1504 1403 1504 1403 1520 1394 c 2,4,-1
 1614 1342 l 1,5,6
 1627 1333 1627 1333 1627 1325 c 0,7,8
 1627 1316 1627 1316 1619 1305 c 2,9,-1
 1534 1159 l 1,10,-1
 1471 1188 l 2,11,12
 1436 1204 1436 1204 1393.5 1204 c 128,-1,13
 1351 1204 1351 1204 1303 1165 c 2,14,-1
 809 772 l 1,15,-1
 1401 78 l 1,16,17
 1417 57 1417 57 1438 46.5 c 128,-1,18
 1459 36 1459 36 1456 21 c 0,19,20
 1451 0 1451 0 1431 0 c 2,21,-1
 1092 0 l 2,22,23
 1071 0 1071 0 1076 21 c 0,24,25
 1078 28 1078 28 1096 42 c 0,26,27
 1109 52 1109 52 1112 64 c 0,28,29
 1118 84 1118 84 1092 111 c 1,30,-1
 595 693 l 1,31,-1
 469 146 l 2,32,33
 465 130 465 130 465 117 c 0,34,35
 465 77 465 77 505.5 61.5 c 128,-1,36
 546 46 546 46 540.5 23 c 128,-1,37
 535 0 535 0 515 0 c 2,38,-1
 176 0 l 2,39,40
 159 0 159 0 159 15 c 0,41,42
 159 19 159 19 162.5 32.5 c 128,-1,43
 166 46 166 46 220 63.5 c 128,-1,44
 274 81 274 81 289 146 c 2,45,-1
 545 1257 l 2,46,47
 549 1273 549 1273 549 1285 c 0,48,49
 549 1325 549 1325 511.5 1340 c 128,-1,50
 474 1355 474 1355 474 1377 c 0,51,52
 474 1380 474 1380 474 1383 c 0,53,54
 479 1404 479 1404 500 1404 c 2,55,-1
 839 1404 l 2,56,57
 859 1404 859 1404 854 1383 c 0,58,59
 848 1357 848 1357 794 1339 c 128,-1,60
 740 1321 740 1321 725 1257 c 2,61,-1
 607 746 l 1,62,-1
 1245 1241 l 2,0,1
EndSplineSet
Validated: 1
EndChar

StartChar: L
Encoding: 76 76 37
Width: 1251
Flags: W
LayerCount: 2
Fore
SplineSet
458 94 m 1,0,-1
 885 94 l 2,1,2
 978 94 978 94 1059 165.5 c 128,-1,3
 1140 237 1140 237 1182 277 c 0,4,5
 1205 299 1205 299 1215 299 c 0,6,7
 1232 299 1232 299 1232 285 c 0,8,9
 1232 282 1232 282 1231 278 c 0,10,11
 1228 265 1228 265 1224 257 c 2,12,-1
 1092 0 l 1,13,-1
 176 0 l 2,14,15
 159 0 159 0 159 14 c 0,16,17
 159 17 159 17 160 21 c 0,18,19
 166 46 166 46 220 63.5 c 128,-1,20
 274 81 274 81 289 146 c 2,21,-1
 545 1257 l 2,22,23
 549 1273 549 1273 549 1285 c 0,24,25
 549 1325 549 1325 511.5 1340 c 128,-1,26
 474 1355 474 1355 474 1377 c 0,27,28
 474 1380 474 1380 474 1383 c 0,29,30
 479 1404 479 1404 500 1404 c 2,31,-1
 839 1404 l 2,32,33
 859 1404 859 1404 854 1383 c 0,34,35
 848 1357 848 1357 794 1339 c 128,-1,36
 740 1321 740 1321 725 1257 c 2,37,-1
 458 94 l 1,0,-1
EndSplineSet
Validated: 1
EndChar

StartChar: M
Encoding: 77 77 38
Width: 1908
Flags: W
LayerCount: 2
Fore
SplineSet
1987 1257 m 2,0,-1
 1731 146 l 2,1,2
 1727 130 1727 130 1727 117 c 0,3,4
 1727 77 1727 77 1765 62.5 c 128,-1,5
 1803 48 1803 48 1803 26 c 0,6,7
 1803 23 1803 23 1803 21 c 0,8,9
 1798 0 1798 0 1777 0 c 2,10,-1
 1438 0 l 2,11,12
 1417 0 1417 0 1422 21 c 0,13,14
 1428 46 1428 46 1482 63.5 c 128,-1,15
 1536 81 1536 81 1551 146 c 2,16,-1
 1798 1217 l 1,17,-1
 933 -30 l 1,18,-1
 894 -30 l 1,19,-1
 600 1170 l 1,20,-1
 364 146 l 2,21,22
 360 130 360 130 360 117 c 0,23,24
 360 77 360 77 400.5 61.5 c 128,-1,25
 441 46 441 46 435 21 c 0,26,27
 430 0 430 0 409 0 c 2,28,-1
 155 0 l 2,29,30
 138 0 138 0 138 14 c 0,31,32
 138 17 138 17 139 21 c 0,33,34
 145 46 145 46 199 63.5 c 128,-1,35
 253 81 253 81 268 146 c 2,36,-1
 524 1257 l 2,37,38
 528 1273 528 1273 528 1285 c 0,39,40
 528 1325 528 1325 490.5 1340 c 128,-1,41
 453 1355 453 1355 453 1377 c 0,42,43
 453 1380 453 1380 453 1383 c 0,44,45
 458 1404 458 1404 479 1404 c 2,46,-1
 745 1404 l 1,47,-1
 1033 282 l 1,48,-1
 1822 1404 l 1,49,-1
 2101 1404 l 2,50,51
 2118 1404 2118 1404 2118 1390 c 0,52,53
 2118 1387 2118 1387 2117 1383 c 0,54,55
 2111 1357 2111 1357 2056.5 1339 c 128,-1,56
 2002 1321 2002 1321 1987 1257 c 2,0,-1
EndSplineSet
Validated: 1
EndChar

StartChar: N
Encoding: 78 78 39
Width: 1644
Flags: W
LayerCount: 2
Fore
SplineSet
1416 203 m 1,0,-1
 1659 1257 l 2,1,2
 1663 1273 1663 1273 1663 1286 c 0,3,4
 1663 1326 1663 1326 1626 1340.5 c 128,-1,5
 1589 1355 1589 1355 1589 1377 c 0,6,7
 1589 1380 1589 1380 1589 1383 c 0,8,9
 1594 1404 1594 1404 1614 1404 c 2,10,-1
 1869 1404 l 2,11,12
 1886 1404 1886 1404 1886 1390 c 0,13,14
 1886 1387 1886 1387 1885 1383 c 0,15,16
 1879 1357 1879 1357 1825 1339 c 128,-1,17
 1771 1321 1771 1321 1756 1257 c 2,18,-1
 1455 -43 l 1,19,-1
 1288 0 l 1,20,-1
 605 1189 l 1,21,-1
 364 146 l 2,22,23
 360 130 360 130 360 117 c 0,24,25
 360 77 360 77 400.5 61.5 c 128,-1,26
 441 46 441 46 435 21 c 0,27,28
 430 0 430 0 409 0 c 2,29,-1
 155 0 l 2,30,31
 138 0 138 0 138 14 c 0,32,33
 138 17 138 17 139 21 c 0,34,35
 145 46 145 46 199 63.5 c 128,-1,36
 253 81 253 81 268 146 c 2,37,-1
 524 1257 l 2,38,39
 528 1273 528 1273 528 1285 c 0,40,41
 528 1325 528 1325 490.5 1340 c 128,-1,42
 453 1355 453 1355 453 1377 c 0,43,44
 453 1380 453 1380 453 1383 c 0,45,46
 458 1404 458 1404 479 1404 c 2,47,-1
 736 1404 l 1,48,-1
 1416 203 l 1,0,-1
EndSplineSet
Validated: 1
EndChar

StartChar: O
Encoding: 79 79 40
Width: 1610
Flags: W
LayerCount: 2
Fore
SplineSet
1122 1358 m 0,0,1
 815 1357 815 1357 648 1164.5 c 128,-1,2
 481 972 481 972 419 702 c 0,3,4
 396 603 396 603 396 515 c 0,5,6
 396 361 396 361 485 204.5 c 128,-1,7
 574 48 574 48 819 46 c 1,8,-1
 824 46 l 2,9,10
 1063 46 1063 46 1264 250 c 0,11,12
 1463 452 1463 452 1519 696 c 2,13,-1
 1520 702 l 1,14,15
 1543 803 1543 803 1543 897 c 0,16,17
 1543 1034 1543 1034 1478.5 1196 c 128,-1,18
 1414 1358 1414 1358 1122 1358 c 0,0,1
1142 1446 m 1,19,-1
 1152 1446 l 2,20,21
 1475 1446 1475 1446 1651 1248 c 0,22,23
 1766 1118 1766 1118 1766 930 c 0,24,25
 1766 850 1766 850 1745 760 c 0,26,27
 1739 733 1739 733 1731 705 c 0,28,29
 1631 361 1631 361 1369.5 171.5 c 128,-1,30
 1108 -18 1108 -18 798 -35 c 0,31,32
 775 -36 775 -36 752 -36 c 0,33,34
 474 -36 474 -36 304 156 c 1,35,36
 181 294 181 294 181 492 c 0,37,38
 181 575 181 575 202 669 c 0,39,40
 206 687 206 687 212 705 c 0,41,42
 303 1046 303 1046 557 1244 c 128,-1,43
 811 1442 811 1442 1142 1446 c 1,19,-1
EndSplineSet
Validated: 1
EndChar

StartChar: P
Encoding: 80 80 41
Width: 1237
Flags: W
LayerCount: 2
Fore
SplineSet
448 146 m 2,0,1
 444 130 444 130 444 117 c 0,2,3
 444 77 444 77 484.5 61.5 c 128,-1,4
 525 46 525 46 519 21 c 0,5,6
 514 0 514 0 494 0 c 2,7,-1
 155 0 l 2,8,9
 138 0 138 0 138 14 c 0,10,11
 138 17 138 17 139 21 c 0,12,13
 145 46 145 46 198 63.5 c 128,-1,14
 251 81 251 81 266 146 c 2,15,-1
 524 1257 l 2,16,17
 528 1273 528 1273 528 1285 c 0,18,19
 528 1325 528 1325 490.5 1340 c 128,-1,20
 453 1355 453 1355 453 1377 c 0,21,22
 453 1380 453 1380 453 1383 c 0,23,24
 458 1404 458 1404 479 1404 c 2,25,-1
 1069 1404 l 2,26,27
 1172 1404 1172 1404 1275.5 1367.5 c 128,-1,28
 1379 1331 1379 1331 1416 1226 c 1,29,30
 1430 1183 1430 1183 1430 1131 c 0,31,32
 1430 1081 1430 1081 1417 1022 c 1,33,34
 1389 909 1389 909 1305 819 c 0,35,36
 1233 742 1233 742 1125 704.5 c 128,-1,37
 1017 667 1017 667 935 667 c 2,38,-1
 568 667 l 1,39,-1
 448 146 l 2,0,1
719 1321 m 1,40,-1
 584 737 l 1,41,-1
 816 737 l 2,42,43
 885 737 885 737 960.5 757 c 128,-1,44
 1036 777 1036 777 1099 828 c 1,45,46
 1197 905 1197 905 1226 1032 c 0,47,48
 1235 1069 1235 1069 1235 1103 c 0,49,50
 1235 1179 1235 1179 1190 1236 c 1,51,52
 1121 1321 1121 1321 971 1321 c 2,53,-1
 719 1321 l 1,40,-1
EndSplineSet
Validated: 1
EndChar

StartChar: Q
Encoding: 81 81 42
Width: 1610
Flags: W
LayerCount: 2
Fore
SplineSet
1142 1446 m 1,0,-1
 1152 1446 l 2,1,2
 1475 1446 1475 1446 1651 1248 c 0,3,4
 1766 1118 1766 1118 1766 930 c 0,5,6
 1766 850 1766 850 1745 760 c 0,7,8
 1739 733 1739 733 1731 705 c 0,9,10
 1632 362 1632 362 1370 172 c 0,11,12
 1120 -10 1120 -10 823 -33 c 1,13,14
 900 -51 900 -51 1007 -104 c 0,15,16
 1168 -184 1168 -184 1262 -184 c 0,17,18
 1296 -184 1296 -184 1366 -165 c 1,19,-1
 1354 -215 l 1,20,21
 1244 -271 1244 -271 1188 -320 c 1,22,23
 1068 -304 1068 -304 889 -222 c 0,24,25
 712 -141 712 -141 644 -141 c 0,26,27
 643 -141 643 -141 642 -141 c 0,28,29
 604 -141 604 -141 475 -215 c 1,30,-1
 490 -152 l 1,31,32
 615 -70 615 -70 659 -47 c 0,33,34
 675 -39 675 -39 691 -34 c 1,35,36
 454 -15 454 -15 304 156 c 0,37,38
 181 294 181 294 181 492 c 0,39,40
 181 575 181 575 202 669 c 0,41,42
 206 687 206 687 212 705 c 0,43,44
 304 1046 304 1046 557 1244 c 0,45,46
 811 1442 811 1442 1142 1446 c 1,0,-1
1122 1358 m 0,47,48
 815 1356 815 1356 648 1164 c 0,49,50
 482 972 482 972 419 702 c 0,51,52
 396 604 396 604 396 516 c 0,53,54
 396 362 396 362 465 240 c 0,55,56
 574 48 574 48 819 46 c 1,57,-1
 824 46 l 2,58,59
 1063 46 1063 46 1264 250 c 0,60,61
 1463 452 1463 452 1519 696 c 2,62,-1
 1520 702 l 1,63,64
 1542 803 1542 803 1542 896 c 0,65,66
 1542 1033 1542 1033 1494 1154 c 0,67,68
 1414 1358 1414 1358 1122 1358 c 0,47,48
EndSplineSet
Validated: 1
EndChar

StartChar: R
Encoding: 82 82 43
Width: 1368
Flags: W
LayerCount: 2
Fore
SplineSet
1280 72 m 1,0,1
 1303 49 1303 49 1346 45 c 0,2,3
 1373 42 1373 42 1370 24 c 2,4,-1
 1369 21 l 1,5,6
 1361 0 1361 0 1343 0 c 2,7,-1
 1076 0 l 2,8,9
 1067 0 1067 0 1026 78 c 128,-1,10
 985 156 985 156 932 264 c 128,-1,11
 879 372 879 372 823 485 c 128,-1,12
 767 598 767 598 728 667 c 1,13,-1
 568 667 l 1,14,-1
 448 146 l 2,15,16
 444 130 444 130 444 117 c 0,17,18
 444 77 444 77 484.5 61.5 c 128,-1,19
 525 46 525 46 519 21 c 0,20,21
 514 0 514 0 494 0 c 2,22,-1
 155 0 l 2,23,24
 138 0 138 0 138 14 c 0,25,26
 138 17 138 17 139 21 c 0,27,28
 145 46 145 46 199 63.5 c 128,-1,29
 253 81 253 81 268 146 c 2,30,-1
 524 1257 l 2,31,32
 528 1273 528 1273 528 1285 c 0,33,34
 528 1325 528 1325 490.5 1340 c 128,-1,35
 453 1355 453 1355 453 1377 c 0,36,37
 453 1380 453 1380 453 1383 c 0,38,39
 458 1404 458 1404 479 1404 c 2,40,-1
 1069 1404 l 2,41,42
 1172 1404 1172 1404 1275.5 1367.5 c 128,-1,43
 1379 1331 1379 1331 1416 1226 c 1,44,45
 1430 1183 1430 1183 1430 1131 c 0,46,47
 1430 1081 1430 1081 1417 1022 c 1,48,49
 1389 909 1389 909 1305 819 c 0,50,51
 1239 748 1239 748 1141 710.5 c 128,-1,52
 1043 673 1043 673 962 668 c 1,53,-1
 1280 72 l 1,0,1
719 1321 m 1,54,-1
 584 737 l 1,55,-1
 816 737 l 2,56,57
 885 737 885 737 960.5 757 c 128,-1,58
 1036 777 1036 777 1099 828 c 1,59,60
 1197 905 1197 905 1226 1032 c 0,61,62
 1235 1069 1235 1069 1235 1103 c 0,63,64
 1235 1179 1235 1179 1190 1236 c 1,65,66
 1121 1321 1121 1321 971 1321 c 2,67,-1
 719 1321 l 1,54,-1
EndSplineSet
Validated: 1
EndChar

StartChar: S
Encoding: 83 83 44
Width: 1075
Flags: W
LayerCount: 2
Fore
SplineSet
947 388 m 2,0,-1
 949 399 l 1,1,2
 955 427 955 427 955 452 c 0,3,4
 955 527 955 527 903 572 c 0,5,6
 871 600 871 600 796.5 622.5 c 128,-1,7
 722 645 722 645 614 657 c 128,-1,8
 506 669 506 669 422.5 714 c 128,-1,9
 339 759 339 759 320 821.5 c 128,-1,10
 301 884 301 884 301 931 c 0,11,12
 301 973 301 973 311 1018 c 0,13,14
 354 1206 354 1206 515 1327.5 c 128,-1,15
 676 1449 676 1449 880 1449 c 2,16,-1
 910 1449 l 1,17,18
 1131 1439 1131 1439 1263 1338 c 1,19,-1
 1190 1128 l 2,20,21
 1184 1110 1184 1110 1167 1110 c 2,22,-1
 1163 1110 l 1,23,24
 1150 1111 1150 1111 1145 1138 c 0,25,26
 1123 1228 1123 1228 1055.5 1291.5 c 128,-1,27
 988 1355 988 1355 894 1359 c 1,28,-1
 878 1359 l 2,29,30
 786 1359 786 1359 720 1330.5 c 128,-1,31
 654 1302 654 1302 620 1273.5 c 128,-1,32
 586 1245 586 1245 559.5 1208 c 128,-1,33
 533 1171 533 1171 516.5 1133 c 128,-1,34
 500 1095 500 1095 493.5 1067 c 128,-1,35
 487 1039 487 1039 487 1018 c 0,36,37
 487 1006 487 1006 488 994 c 1,38,39
 494 927 494 927 531.5 894.5 c 128,-1,40
 569 862 569 862 602.5 853 c 128,-1,41
 636 844 636 844 670.5 837.5 c 128,-1,42
 705 831 705 831 751 823.5 c 128,-1,43
 797 816 797 816 858.5 806.5 c 128,-1,44
 920 797 920 797 994 772 c 128,-1,45
 1068 747 1068 747 1100 700 c 128,-1,46
 1132 653 1132 653 1140 613 c 128,-1,47
 1148 573 1148 573 1148 547 c 0,48,49
 1148 507 1148 507 1137 459 c 0,50,51
 1088 245 1088 245 881 103 c 0,52,53
 774 29 774 29 668 -2.5 c 128,-1,54
 562 -34 562 -34 500.5 -36.5 c 128,-1,55
 439 -39 439 -39 418 -39 c 0,56,57
 279 -39 279 -39 161 0 c 1,58,-1
 127 264 l 2,59,60
 126 269 126 269 128 276.5 c 128,-1,61
 130 284 130 284 140 295.5 c 128,-1,62
 150 307 150 307 163 307 c 1,63,64
 174 304 174 304 181 278 c 0,65,66
 213 139 213 139 291.5 96 c 128,-1,67
 370 53 370 53 493 53 c 0,68,69
 519 53 519 53 574.5 56.5 c 128,-1,70
 630 60 630 60 713 97.5 c 128,-1,71
 796 135 796 135 859.5 208.5 c 128,-1,72
 923 282 923 282 947 388 c 2,0,-1
EndSplineSet
Validated: 1
EndChar

StartChar: T
Encoding: 84 84 45
Width: 1255
Flags: W
LayerCount: 2
Fore
SplineSet
1480 1147 m 2,0,1
 1475 1126 1475 1126 1454 1126 c 0,2,3
 1445 1126 1445 1126 1425 1166 c 0,4,5
 1390 1235 1390 1235 1362.5 1273 c 128,-1,6
 1335 1311 1335 1311 1275 1311 c 2,7,-1
 1024 1311 l 1,8,-1
 755 146 l 2,9,10
 751 130 751 130 751 117 c 0,11,12
 751 77 751 77 788.5 62 c 128,-1,13
 826 47 826 47 826 26 c 0,14,15
 826 23 826 23 826 20 c 0,16,17
 821 0 821 0 801 0 c 2,18,-1
 462 0 l 2,19,20
 441 0 441 0 446 20 c 0,21,22
 452 45 452 45 506 63 c 128,-1,23
 560 81 560 81 575 146 c 2,24,-1
 844 1311 l 1,25,-1
 589 1311 l 2,26,27
 529 1311 529 1311 482.5 1273 c 128,-1,28
 436 1235 436 1235 370 1166 c 0,29,30
 333 1126 333 1126 324 1126 c 0,31,32
 307 1126 307 1126 307 1140 c 0,33,34
 307 1143 307 1143 308 1147 c 2,35,-1
 351 1332 l 2,36,37
 363 1386 363 1386 384 1397.5 c 128,-1,38
 405 1409 405 1409 482 1409 c 2,39,-1
 1426 1409 l 2,40,41
 1509 1409 1509 1409 1519 1401.5 c 128,-1,42
 1529 1394 1529 1394 1529 1377 c 128,-1,43
 1529 1360 1529 1360 1523 1332 c 2,44,-1
 1480 1147 l 2,0,1
EndSplineSet
Validated: 1
EndChar

StartChar: U
Encoding: 85 85 46
Width: 1554
Flags: W
LayerCount: 2
Fore
SplineSet
370 588 m 2,0,-1
 524 1258 l 2,1,2
 528 1274 528 1274 528 1286 c 0,3,4
 528 1326 528 1326 490.5 1340.5 c 128,-1,5
 453 1355 453 1355 453 1377 c 0,6,7
 453 1380 453 1380 453 1383 c 0,8,9
 458 1404 458 1404 479 1404 c 2,10,-1
 818 1404 l 2,11,12
 838 1404 838 1404 833 1383 c 0,13,14
 827 1357 827 1357 774.5 1340.5 c 128,-1,15
 722 1324 722 1324 707 1260 c 2,16,-1
 582 721 l 2,17,18
 547 568 547 568 535 484 c 128,-1,19
 523 400 523 400 523 356 c 0,20,21
 523 297 523 297 536 251 c 0,22,23
 558 170 558 170 633.5 128 c 128,-1,24
 709 86 709 86 859 86 c 0,25,26
 1123 86 1123 86 1265 294 c 0,27,28
 1366 440 1366 440 1430 721 c 2,29,-1
 1554 1257 l 2,30,31
 1558 1273 1558 1273 1558 1285 c 0,32,33
 1558 1325 1558 1325 1520.5 1340 c 128,-1,34
 1483 1355 1483 1355 1483 1377 c 0,35,36
 1483 1380 1483 1380 1483 1383 c 0,37,38
 1488 1404 1488 1404 1509 1404 c 2,39,-1
 1764 1404 l 2,40,41
 1780 1404 1780 1404 1780 1390 c 0,42,43
 1780 1387 1780 1387 1779 1383 c 0,44,45
 1773 1357 1773 1357 1719.5 1339 c 128,-1,46
 1666 1321 1666 1321 1651 1257 c 2,47,-1
 1497 588 l 1,48,49
 1462 439 1462 439 1406.5 315.5 c 128,-1,50
 1351 192 1351 192 1261 108 c 1,51,52
 1100 -39 1100 -39 830 -39 c 0,53,54
 659 -39 659 -39 546.5 -7 c 128,-1,55
 434 25 434 25 381 109 c 0,56,57
 333 184 333 184 333 316 c 0,58,59
 334 431 334 431 370 588 c 2,0,-1
EndSplineSet
Validated: 1
EndChar

StartChar: V
Encoding: 86 86 47
Width: 1479
Flags: W
LayerCount: 2
Fore
SplineSet
684 1263 m 1,0,-1
 857 177 l 1,1,-1
 1526 1107 l 2,2,3
 1545 1133 1545 1133 1549 1154 c 0,4,5
 1553 1172 1553 1172 1548 1186 c 0,6,7
 1536 1216 1536 1216 1507 1264 c 2,8,-1
 1471 1321 l 1,9,-1
 1617 1415 l 2,10,11
 1627 1422 1627 1422 1635 1422 c 0,12,13
 1645 1422 1645 1422 1655 1412 c 1,14,-1
 1718 1328 l 2,15,16
 1731 1310 1731 1310 1731 1288 c 0,17,18
 1731 1274 1731 1274 1728 1262 c 0,19,20
 1723 1240 1723 1240 1710 1215 c 0,21,22
 1670 1144 1670 1144 1600 1048 c 2,23,-1
 875 32 l 1,24,25
 864 15 864 15 855 6 c 1,26,27
 846 0 846 0 838 0 c 2,28,-1
 687 0 l 2,29,30
 677 0 677 0 673 8 c 0,31,32
 671 11 671 11 668 31 c 128,-1,33
 665 51 665 51 664 60 c 2,34,-1
 528 1110 l 1,35,36
 512 1216 512 1216 504 1258 c 1,37,38
 495 1295 495 1295 461 1325 c 1,39,40
 440 1340 440 1340 420 1349.5 c 128,-1,41
 400 1359 400 1359 388 1369 c 1,42,43
 380 1374 380 1374 379 1383 c 1,44,45
 378 1386 378 1386 378 1389 c 0,46,47
 378 1394 378 1394 382 1398 c 0,48,49
 387 1404 387 1404 395 1404 c 2,50,-1
 734 1404 l 2,51,52
 743 1404 743 1404 751 1398 c 1,53,54
 758 1390 758 1390 759 1383 c 0,55,56
 759 1380 759 1380 759 1378 c 0,57,58
 757 1368 757 1368 744 1358 c 0,59,60
 732 1349 732 1349 717 1338.5 c 128,-1,61
 702 1328 702 1328 692 1313 c 0,62,63
 686 1303 686 1303 683 1292 c 0,64,65
 680 1278 680 1278 684 1263 c 1,0,-1
EndSplineSet
Validated: 1
EndChar

StartChar: X
Encoding: 88 88 48
Width: 1366
Flags: W
LayerCount: 2
Fore
SplineSet
350 78 m 1,0,-1
 350 39 l 1,1,2
 347 27 347 27 334 13.5 c 128,-1,3
 321 0 321 0 307 0 c 2,4,-1
 49 0 l 2,5,6
 37 0 37 0 37 6 c 1,7,-1
 39 11 l 2,8,9
 43 27 43 27 77 41 c 2,10,-1
 134 62 l 1,11,12
 216 94 216 94 267 146 c 2,13,-1
 788 698 l 1,14,-1
 554 1258 l 1,15,16
 528 1316 528 1316 446 1350 c 1,17,18
 423 1358 423 1358 410 1366 c 0,19,20
 389 1380 389 1380 393 1394 c 2,21,-1
 394 1398 l 1,22,23
 396 1404 396 1404 405 1404 c 2,24,-1
 744 1404 l 2,25,26
 761 1404 761 1404 769 1391 c 128,-1,27
 777 1378 777 1378 776 1372 c 256,28,29
 775 1366 775 1366 765.5 1357.5 c 128,-1,30
 756 1349 756 1349 744 1338.5 c 128,-1,31
 732 1328 732 1328 727 1313 c 1,32,-1
 726 1308 l 2,33,34
 721 1285 721 1285 732 1263 c 1,35,-1
 913 831 l 1,36,-1
 1266 1204 l 2,37,38
 1357 1300 1357 1300 1418 1355 c 128,-1,39
 1479 1410 1479 1410 1521 1410 c 0,40,41
 1531 1410 1531 1410 1540 1407 c 2,42,-1
 1632 1376 l 1,43,44
 1645 1370 1645 1370 1645 1362 c 128,-1,45
 1645 1354 1645 1354 1639 1341 c 2,46,-1
 1557 1171 l 1,47,-1
 1496 1186 l 2,48,49
 1445 1198 1445 1198 1412 1200 c 1,50,-1
 1409 1200 l 2,51,52
 1377 1200 1377 1200 1334 1153 c 2,53,-1
 950 742 l 1,54,-1
 1200 146 l 2,55,56
 1220 95 1220 95 1308 54 c 0,57,58
 1330 44 1330 44 1342 36 c 0,59,60
 1365 21 1365 21 1363 11 c 0,61,62
 1360 0 1360 0 1349 0 c 2,63,-1
 1010 0 l 2,64,65
 1001 0 1001 0 991 6 c 0,66,67
 974 16 974 16 977 27 c 256,68,69
 980 38 980 38 1001 58 c 128,-1,70
 1022 78 1022 78 1027 91 c 1,71,-1
 1029 98 l 2,72,73
 1034 118 1034 118 1026 141 c 1,74,-1
 826 609 l 1,75,-1
 395 147 l 2,76,77
 356 106 356 106 350 78 c 1,0,-1
EndSplineSet
Validated: 1
EndChar

StartChar: Y
Encoding: 89 89 49
Width: 1366
Flags: W
LayerCount: 2
Fore
SplineSet
745 677 m 2,0,-1
 530 1258 l 1,1,2
 515 1292 515 1292 469 1325 c 1,3,4
 444 1340 444 1340 421 1349.5 c 128,-1,5
 398 1359 398 1359 384 1369 c 0,6,7
 374 1375 374 1375 370 1383 c 0,8,9
 368 1387 368 1387 368 1390 c 0,10,11
 368 1392 368 1392 369 1394 c 2,12,-1
 370 1398 l 1,13,14
 372 1404 372 1404 381 1404 c 2,15,-1
 720 1404 l 2,16,17
 730 1404 730 1404 738 1398 c 0,18,19
 747 1391 747 1391 751 1383 c 0,20,21
 753 1378 753 1378 752 1373 c 0,22,23
 750 1366 750 1366 742 1358 c 0,24,25
 733 1349 733 1349 720.5 1338.5 c 128,-1,26
 708 1328 708 1328 703 1313 c 1,27,-1
 702 1308 l 2,28,29
 697 1286 697 1286 708 1263 c 1,30,-1
 921 729 l 1,31,-1
 1271 1124 l 2,32,33
 1310 1168 1310 1168 1323 1200 c 0,34,35
 1325 1205 1325 1205 1326 1210 c 0,36,37
 1328 1220 1328 1220 1329 1233 c 0,38,39
 1329 1257 1329 1257 1320 1288 c 2,40,-1
 1302 1356 l 1,41,-1
 1459 1418 l 2,42,43
 1467 1421 1467 1421 1473 1421 c 0,44,45
 1486 1421 1486 1421 1493 1405 c 1,46,-1
 1530 1304 l 2,47,48
 1534 1293 1534 1293 1534 1281 c 0,49,50
 1534 1273 1534 1273 1532 1266 c 0,51,52
 1524 1232 1524 1232 1482 1197 c 0,53,54
 1416 1141 1416 1141 1336 1054 c 2,55,-1
 981 666 l 2,56,57
 957 639 957 639 940 590 c 128,-1,58
 923 541 923 541 913 497 c 2,59,-1
 832 146 l 2,60,61
 828 130 828 130 828 117 c 0,62,63
 828 77 828 77 868.5 61.5 c 128,-1,64
 909 46 909 46 903 21 c 0,65,66
 898 0 898 0 877 0 c 2,67,-1
 538 0 l 2,68,69
 517 0 517 0 522 21 c 0,70,71
 528 46 528 46 582 63.5 c 128,-1,72
 636 81 636 81 651 146 c 2,73,-1
 749 573 l 2,74,75
 755 598 755 598 755 621 c 0,76,77
 755 651 755 651 745 677 c 2,0,-1
EndSplineSet
Validated: 1
EndChar

StartChar: Z
Encoding: 90 90 50
Width: 1366
Flags: W
LayerCount: 2
Fore
SplineSet
450 1126 m 0,0,1
 429 1126 429 1126 434 1147 c 2,2,-1
 477 1332 l 2,3,4
 489 1386 489 1386 510.5 1397.5 c 128,-1,5
 532 1409 532 1409 608 1409 c 2,6,-1
 1532 1409 l 2,7,8
 1616 1409 1616 1409 1625 1397 c 0,9,10
 1631 1388 1631 1388 1631 1377 c 0,11,12
 1631 1373 1631 1373 1630 1369 c 0,13,14
 1627 1352 1627 1352 1607 1332 c 1,15,-1
 340 98 l 1,16,-1
 1121 99 l 2,17,18
 1181 99 1181 99 1226.5 136.5 c 128,-1,19
 1272 174 1272 174 1324 228.5 c 128,-1,20
 1376 283 1376 283 1385 283 c 0,21,22
 1406 283 1406 283 1401 262 c 2,23,-1
 1359 77 l 2,24,25
 1346 19 1346 19 1328 9.5 c 128,-1,26
 1310 0 1310 0 1228 0 c 2,27,-1
 157 0 l 2,28,29
 74 0 74 0 53 6 c 1,30,31
 36 13 36 13 36 25 c 0,32,33
 36 40 36 40 62 61 c 1,34,-1
 1323 1312 l 1,35,-1
 715 1311 l 2,36,37
 655 1311 655 1311 609 1273 c 128,-1,38
 563 1235 563 1235 511.5 1180.5 c 128,-1,39
 460 1126 460 1126 450 1126 c 0,0,1
EndSplineSet
Validated: 1
EndChar

StartChar: bracketleft
Encoding: 91 91 51
Width: 682
Flags: W
LayerCount: 2
Fore
SplineSet
398 -367 m 2,0,1
 415 -367 415 -367 409 -394 c 0,2,3
 403 -420 403 -420 391 -420 c 2,4,-1
 144 -420 l 2,5,6
 127 -420 127 -420 127 -407 c 0,7,8
 127 -404 127 -404 128 -400 c 2,9,-1
 552 1436 l 2,10,11
 559 1466 559 1466 579 1466 c 2,12,-1
 826 1466 l 2,13,14
 834 1466 834 1466 834 1454 c 0,15,16
 834 1448 834 1448 832 1438 c 0,17,18
 825 1409 825 1409 808 1409 c 2,19,-1
 663 1409 l 1,20,-1
 253 -367 l 1,21,-1
 398 -367 l 2,0,1
EndSplineSet
Validated: 1
EndChar

StartChar: asciicircum
Encoding: 94 94 52
Width: 1100
Flags: W
LayerCount: 2
Fore
SplineSet
826 1430 m 1,0,-1
 934 1430 l 1,1,-1
 1127 912 l 1,2,-1
 1071 912 l 1,3,-1
 853 1312 l 1,4,-1
 449 912 l 1,5,-1
 395 912 l 1,6,-1
 826 1430 l 1,0,-1
EndSplineSet
Validated: 1
EndChar

StartChar: underscore
Encoding: 95 95 53
Width: 1100
Flags: W
LayerCount: 2
Fore
SplineSet
-50 -218 m 1,0,-1
 1050 -218 l 1,1,-1
 1022 -336 l 1,2,-1
 -78 -336 l 1,3,-1
 -50 -218 l 1,0,-1
EndSplineSet
Validated: 1
EndChar

StartChar: a
Encoding: 97 97 54
Width: 1155
Flags: W
LayerCount: 2
Fore
SplineSet
463 -25 m 2,0,-1
 422 -25 l 1,1,2
 282 -18 282 -18 204 91 c 256,3,4
 145 173 145 173 145 294 c 0,5,6
 145 361 145 361 164 440 c 0,7,8
 176 492 176 492 201 559 c 128,-1,9
 226 626 226 626 280.5 690.5 c 128,-1,10
 335 755 335 755 385 786.5 c 128,-1,11
 435 818 435 818 465 830 c 1,12,13
 830 956 830 956 848 956 c 2,14,-1
 853 956 l 1,15,16
 916 953 916 953 962 937 c 128,-1,17
 1008 921 1008 921 1035 908.5 c 128,-1,18
 1062 896 1062 896 1086.5 896 c 128,-1,19
 1111 896 1111 896 1149 935 c 0,20,21
 1156 942 1156 942 1162 942 c 128,-1,22
 1168 942 1168 942 1179.5 937.5 c 128,-1,23
 1191 933 1191 933 1191 924 c 0,24,25
 1191 922 1191 922 1190 920 c 2,26,-1
 1012 146 l 2,27,28
 1008 130 1008 130 1008 117 c 0,29,30
 1008 77 1008 77 1048.5 61.5 c 128,-1,31
 1089 46 1089 46 1083.5 23 c 128,-1,32
 1078 0 1078 0 1057 0 c 2,33,-1
 814 0 l 2,34,35
 797 0 797 0 800 13 c 2,36,-1
 817 87 l 1,37,-1
 519 -14 l 2,38,39
 484 -25 484 -25 463 -25 c 2,0,-1
768 874 m 2,40,41
 747 874 747 874 678.5 850 c 128,-1,42
 610 826 610 826 576.5 814.5 c 128,-1,43
 543 803 543 803 525 787 c 0,44,45
 448 721 448 721 409.5 638.5 c 128,-1,46
 371 556 371 556 366 532 c 2,47,-1
 360 505 l 2,48,49
 359 502 359 502 358 500 c 0,50,51
 338 413 338 413 338 346 c 0,52,53
 338 267 338 267 365 214 c 0,54,55
 436 75 436 75 585 75 c 0,56,57
 624 75 624 75 675.5 92 c 128,-1,58
 727 109 727 109 831 146 c 1,59,-1
 975 769 l 1,60,61
 943 807 943 807 883 839.5 c 128,-1,62
 823 872 823 872 772 874 c 1,63,-1
 768 874 l 2,40,41
EndSplineSet
Validated: 1
EndChar

StartChar: b
Encoding: 98 98 55
Width: 1139
Flags: W
LayerCount: 2
Fore
SplineSet
380 161 m 1,0,1
 411 122 411 122 470 89.5 c 128,-1,2
 529 57 529 57 583 56 c 1,3,-1
 589 56 l 2,4,5
 605 56 605 56 628 64 c 0,6,7
 667 77 667 77 706 90 c 128,-1,8
 745 103 745 103 784 117 c 0,9,10
 808 125 808 125 830 143 c 0,11,12
 906 208 906 208 950 302 c 1,13,14
 983 375 983 375 999 448 c 0,15,16
 1004 469 1004 469 1008 489 c 0,17,18
 1015 535 1015 535 1015 576 c 0,19,20
 1015 661 1015 661 984 723 c 256,21,22
 938 814 938 814 844 844 c 1,23,24
 806 855 806 855 765 855 c 0,25,26
 754 855 754 855 743 854 c 0,27,28
 719 851 719 851 688 841 c 1,29,30
 663 832 663 832 610 814 c 128,-1,31
 557 796 557 796 524 785 c 1,32,-1
 380 161 l 1,0,1
345 10 m 0,33,34
 324 19 324 19 295 30 c 0,35,36
 282 34 282 34 271 34 c 0,37,38
 256 34 256 34 243 25 c 0,39,40
 217 6 217 6 206 -4 c 0,41,42
 199 -11 199 -11 191 -11 c 0,43,44
 186 -11 186 -11 182 -9 c 0,45,46
 162 -1 162 -1 165 11 c 2,47,-1
 452 1257 l 2,48,49
 456 1273 456 1273 456 1285 c 0,50,51
 456 1325 456 1325 418.5 1340 c 128,-1,52
 381 1355 381 1355 381 1377 c 0,53,54
 381 1380 381 1380 381 1383 c 0,55,56
 386 1404 386 1404 407 1404 c 0,57,58
 474 1407 474 1407 542.5 1424 c 128,-1,59
 611 1441 611 1441 681 1463 c 1,60,-1
 538 843 l 1,61,-1
 836 945 l 2,62,63
 867 955 867 955 891 957 c 0,64,65
 900 957 900 957 910.5 956.5 c 128,-1,66
 921 956 921 956 933 956 c 0,67,68
 1073 949 1073 949 1150 840 c 1,69,70
 1210 753 1210 753 1210 638 c 0,71,72
 1210 606 1210 606 1205 571 c 0,73,74
 1199 529 1199 529 1190 489 c 0,75,76
 1178 437 1178 437 1160 388 c 0,77,78
 1128 303 1128 303 1056 219 c 0,79,80
 1016 172 1016 172 945 127 c 0,81,82
 918 110 918 110 889 100 c 0,83,84
 801 70 801 70 714 40 c 128,-1,85
 627 10 627 10 541 -19 c 0,86,87
 521 -25 521 -25 505 -25 c 2,88,-1
 501 -25 l 1,89,90
 439 -22 439 -22 353 6 c 0,91,92
 348 8 348 8 345 10 c 0,33,34
EndSplineSet
Validated: 1
EndChar

StartChar: c
Encoding: 99 99 56
Width: 925
Flags: W
LayerCount: 2
Fore
SplineSet
797 956 m 2,0,1
 960 956 960 956 1076 868 c 1,2,-1
 1020 699 l 2,3,4
 1015 686 1015 686 1005 686 c 0,5,6
 1004 686 1004 686 1003 686 c 0,7,8
 991 687 991 687 988 706 c 0,9,10
 968 793 968 793 912.5 831.5 c 128,-1,11
 857 870 857 870 765 870 c 2,12,-1
 741 870 l 1,13,14
 630 864 630 864 561 810 c 0,15,16
 431 709 431 709 387 519 c 0,17,18
 380 490 380 490 376 458 c 0,19,20
 368 409 368 409 368 365 c 0,21,22
 368 277 368 277 400 214 c 0,23,24
 464 90 464 90 576 72 c 1,25,26
 596 70 596 70 614 70 c 0,27,28
 713 70 713 70 797 114.5 c 128,-1,29
 881 159 881 159 897.5 159 c 128,-1,30
 914 159 914 159 918 158 c 1,31,32
 919 153 919 153 916.5 142 c 128,-1,33
 914 131 914 131 895 106.5 c 128,-1,34
 876 82 876 82 853 65 c 1,35,36
 721 -25 721 -25 535 -25 c 128,-1,37
 349 -25 349 -25 246 78 c 1,38,39
 164 164 164 164 164 304 c 0,40,41
 164 369 164 369 182 446 c 0,42,43
 195 501 195 501 217 563 c 1,44,45
 311 784 311 784 522 891 c 0,46,47
 640 950 640 950 776 956 c 1,48,-1
 797 956 l 2,0,1
EndSplineSet
Validated: 1
EndChar

StartChar: d
Encoding: 100 100 57
Width: 1231
Flags: W
LayerCount: 2
Fore
SplineSet
837 87 m 1,0,-1
 539 -14 l 2,1,2
 504 -25 504 -25 483 -25 c 2,3,-1
 442 -25 l 1,4,5
 302 -18 302 -18 224 91 c 256,6,7
 164 175 164 175 164 290 c 0,8,9
 164 323 164 323 169 359 c 0,10,11
 175 401 175 401 184 440 c 0,12,13
 196 492 196 492 214 541 c 0,14,15
 246 626 246 626 319 711 c 1,16,17
 355 755 355 755 429 803 c 1,18,19
 454 818 454 818 485 830 c 1,20,21
 572 860 572 860 659 890 c 128,-1,22
 746 920 746 920 834 950 c 0,23,24
 852 956 852 956 868 956 c 2,25,-1
 873 956 l 1,26,27
 936 953 936 953 1020 924 c 0,28,29
 1027 921 1027 921 1029 920 c 1,30,-1
 1107 1257 l 2,31,32
 1111 1273 1111 1273 1111 1285 c 0,33,34
 1111 1325 1111 1325 1073.5 1340 c 128,-1,35
 1036 1355 1036 1355 1036 1377 c 0,36,37
 1036 1380 1036 1380 1036 1383 c 0,38,39
 1041 1404 1041 1404 1062 1404 c 0,40,41
 1129 1407 1129 1407 1197.5 1424 c 128,-1,42
 1266 1441 1266 1441 1336 1463 c 1,43,-1
 1032 146 l 2,44,45
 1028 130 1028 130 1028 117 c 0,46,47
 1028 77 1028 77 1068.5 61.5 c 128,-1,48
 1109 46 1109 46 1103 21 c 0,49,50
 1098 0 1098 0 1077 0 c 2,51,-1
 834 0 l 2,52,53
 817 0 817 0 820 13 c 2,54,-1
 837 87 l 1,0,-1
995 770 m 1,55,56
 959 811 959 811 900.5 841.5 c 128,-1,57
 842 872 842 872 792 874 c 1,58,-1
 788 874 l 2,59,60
 768 874 768 874 746 866 c 0,61,62
 707 853 707 853 668.5 839.5 c 128,-1,63
 630 826 630 826 591 813 c 0,64,65
 564 803 564 803 545 787 c 0,66,67
 468 721 468 721 425 627 c 1,68,69
 392 556 392 556 375 486 c 0,70,71
 370 464 370 464 367 441 c 0,72,73
 360 394 360 394 360 353 c 0,74,75
 360 268 360 268 391 207 c 1,76,77
 437 114 437 114 531 86 c 0,78,79
 566 75 566 75 605 75 c 0,80,81
 617 75 617 75 631 76 c 0,82,83
 653 78 653 78 686 89 c 0,84,85
 711 97 711 97 764 115.5 c 128,-1,86
 817 134 817 134 851 146 c 1,87,-1
 995 770 l 1,55,56
EndSplineSet
Validated: 1
EndChar

StartChar: e
Encoding: 101 101 58
Width: 1004
Flags: W
LayerCount: 2
Fore
SplineSet
759 960 m 2,0,1
 956 960 956 960 1020 867 c 128,-1,2
 1084 774 1084 774 1084 671 c 0,3,4
 1084 615 1084 615 1069 551 c 1,5,6
 1059 511 1059 511 1053 494.5 c 128,-1,7
 1047 478 1047 478 1008 478 c 2,8,-1
 371 478 l 1,9,10
 358 415 358 415 358 361 c 0,11,12
 358 275 358 275 402 189 c 128,-1,13
 446 103 446 103 560 79 c 0,14,15
 593 71 593 71 629 71 c 0,16,17
 724 71 724 71 813.5 114 c 128,-1,18
 903 157 903 157 915.5 157 c 128,-1,19
 928 157 928 157 930.5 154.5 c 128,-1,20
 933 152 933 152 931 142.5 c 128,-1,21
 929 133 929 133 911 109 c 128,-1,22
 893 85 893 85 883.5 77 c 128,-1,23
 874 69 874 69 867 63 c 0,24,25
 736 -31 736 -31 549 -31 c 1,26,27
 287 -29 287 -29 195 137 c 0,28,29
 149 219 149 219 149 320 c 0,30,31
 149 377 149 377 164 441 c 0,32,33
 176 494 176 494 198 551 c 0,34,35
 269 736 269 736 414 847 c 128,-1,36
 559 958 559 958 755 960 c 1,37,-1
 759 960 l 2,0,1
915 551 m 1,38,39
 928 609 928 609 929 662 c 0,40,41
 929 720 929 720 905 796 c 128,-1,42
 881 872 881 872 740 872 c 2,43,-1
 729 872 l 1,44,45
 587 868 587 868 503.5 770 c 128,-1,46
 420 672 420 672 388 551 c 1,47,-1
 915 551 l 1,38,39
EndSplineSet
Validated: 1
EndChar

StartChar: f
Encoding: 102 102 59
Width: 683
Flags: W
LayerCount: 2
Fore
SplineSet
625 1027 m 2,0,-1
 607 948 l 1,1,-1
 847 953 l 2,2,3
 862 953 862 953 857.5 933 c 128,-1,4
 853 913 853 913 844 893 c 0,5,6
 823 846 823 846 788 846 c 2,7,-1
 584 847 l 1,8,-1
 422 146 l 2,9,10
 418 130 418 130 418 117 c 0,11,12
 418 77 418 77 458.5 61.5 c 128,-1,13
 499 46 499 46 493.5 23 c 128,-1,14
 488 0 488 0 467 0 c 2,15,-1
 128 0 l 2,16,17
 111 0 111 0 111 15 c 0,18,19
 111 19 111 19 114.5 32.5 c 128,-1,20
 118 46 118 46 172 63.5 c 128,-1,21
 226 81 226 81 241 146 c 2,22,-1
 402 845 l 1,23,-1
 282 840 l 2,24,25
 263 840 263 840 267 860 c 1,26,-1
 267 862 l 2,27,28
 271 878 271 878 292 887 c 0,29,30
 314 896 314 896 358 917 c 128,-1,31
 402 938 402 938 411 941.5 c 128,-1,32
 420 945 420 945 425 945 c 1,33,-1
 444 1027 l 2,34,35
 473 1154 473 1154 507.5 1219.5 c 128,-1,36
 542 1285 542 1285 568 1310.5 c 128,-1,37
 594 1336 594 1336 622 1345 c 2,38,-1
 898 1440 l 1,39,-1
 938 1445 l 1,40,41
 960 1445 960 1445 979 1429.5 c 128,-1,42
 998 1414 998 1414 1001.5 1404 c 128,-1,43
 1005 1394 1005 1394 1005 1386 c 0,44,45
 1005 1380 1005 1380 1002.5 1370 c 128,-1,46
 1000 1360 1000 1360 992 1332 c 128,-1,47
 984 1304 984 1304 972 1301 c 1,48,-1
 969 1301 l 2,49,50
 958 1301 958 1301 929 1324 c 128,-1,51
 900 1347 900 1347 862.5 1347 c 128,-1,52
 825 1347 825 1347 795 1336 c 0,53,54
 703 1300 703 1300 670 1199 c 0,55,56
 657 1161 657 1161 646.5 1117 c 128,-1,57
 636 1073 636 1073 625 1027 c 2,0,-1
EndSplineSet
Validated: 1
EndChar

StartChar: g
Encoding: 103 103 60
Width: 1103
Flags: W
LayerCount: 2
Fore
SplineSet
843 199 m 1,0,-1
 975 769 l 1,1,2
 943 807 943 807 883 839.5 c 128,-1,3
 823 872 823 872 772 874 c 1,4,-1
 768 874 l 2,5,6
 748 874 748 874 726 866 c 0,7,8
 687 853 687 853 648.5 839.5 c 128,-1,9
 610 826 610 826 571 813 c 0,10,11
 544 803 544 803 525 787 c 0,12,13
 448 721 448 721 405 627 c 1,14,15
 372 556 372 556 355 486 c 0,16,17
 350 464 350 464 347 441 c 0,18,19
 340 394 340 394 340 353 c 0,20,21
 340 268 340 268 371 207 c 1,22,23
 417 114 417 114 511 86 c 0,24,25
 546 75 546 75 585 75 c 0,26,27
 597 75 597 75 611 76 c 0,28,29
 633 78 633 78 666 89 c 0,30,31
 691 97 691 97 743.5 115 c 128,-1,32
 796 133 796 133 829 145 c 1,33,-1
 842 199 l 1,34,-1
 843 199 l 1,0,-1
816 87 m 1,35,-1
 519 -14 l 2,36,37
 484 -25 484 -25 463 -25 c 2,38,-1
 422 -25 l 1,39,40
 282 -18 282 -18 204 91 c 256,41,42
 144 175 144 175 144 290 c 0,43,44
 144 323 144 323 149 359 c 0,45,46
 155 401 155 401 164 440 c 0,47,48
 176 492 176 492 194 541 c 0,49,50
 226 626 226 626 299 711 c 1,51,52
 335 755 335 755 409 803 c 1,53,54
 434 818 434 818 465 830 c 1,55,56
 552 860 552 860 639 890 c 128,-1,57
 726 920 726 920 814 950 c 0,58,59
 832 956 832 956 848 956 c 2,60,-1
 853 956 l 1,61,62
 916 953 916 953 1000 924 c 0,63,64
 1007 921 1007 921 1009 920 c 0,65,66
 1029 911 1029 911 1059 900 c 0,67,68
 1071 896 1071 896 1082 896 c 0,69,70
 1098 896 1098 896 1112 905 c 0,71,72
 1137 923 1137 923 1149 935 c 0,73,74
 1156 942 1156 942 1163 942 c 0,75,76
 1168 942 1168 942 1173 940 c 0,77,78
 1193 932 1193 932 1190 920 c 2,79,-1
 936 -180 l 2,80,81
 898 -345 898 -345 841.5 -386 c 128,-1,82
 785 -427 785 -427 691 -459 c 2,83,-1
 392 -562 l 2,84,85
 357 -573 357 -573 337 -573 c 0,86,87
 311 -573 311 -573 296 -572 c 0,88,89
 156 -567 156 -567 78 -456 c 0,90,91
 38 -397 38 -397 24 -315 c 1,92,93
 119 -281 119 -281 218 -248 c 1,94,95
 224 -299 224 -299 245 -340 c 0,96,97
 292 -432 292 -432 385 -461 c 0,98,99
 421 -471 421 -471 457 -471 c 0,100,101
 471 -471 471 -471 484 -470 c 0,102,103
 506 -468 506 -468 539 -458 c 0,104,105
 552 -453 552 -453 573 -446 c 128,-1,106
 594 -439 594 -439 617 -431 c 1,107,108
 671 -407 671 -407 704 -334 c 128,-1,109
 737 -261 737 -261 742 -237 c 2,110,-1
 816 87 l 1,35,-1
EndSplineSet
Validated: 1
EndChar

StartChar: h
Encoding: 104 104 61
Width: 1207
Flags: W
LayerCount: 2
Fore
SplineSet
396 146 m 2,0,1
 392 130 392 130 392 117 c 0,2,3
 392 77 392 77 432.5 61.5 c 128,-1,4
 473 46 473 46 467.5 23 c 128,-1,5
 462 0 462 0 442 0 c 2,6,-1
 103 0 l 2,7,8
 86 0 86 0 86 15 c 0,9,10
 86 19 86 19 89.5 32.5 c 128,-1,11
 93 46 93 46 147 63.5 c 128,-1,12
 201 81 201 81 216 146 c 2,13,-1
 472 1257 l 2,14,15
 476 1273 476 1273 476 1285 c 0,16,17
 476 1325 476 1325 438.5 1340 c 128,-1,18
 401 1355 401 1355 401 1377 c 0,19,20
 401 1380 401 1380 401 1383 c 0,21,22
 406 1404 406 1404 427 1404 c 0,23,24
 494 1407 494 1407 562.5 1424 c 128,-1,25
 631 1441 631 1441 700 1463 c 1,26,-1
 559 853 l 1,27,28
 619 874 619 874 664.5 890 c 128,-1,29
 710 906 710 906 780.5 928.5 c 128,-1,30
 851 951 851 951 907.5 956.5 c 128,-1,31
 964 962 964 962 977 962 c 0,32,33
 1061 962 1061 962 1124 905 c 1,34,35
 1182 851 1182 851 1182 723 c 0,36,37
 1182 633 1182 633 1153 506 c 2,38,-1
 1070 146 l 2,39,40
 1066 130 1066 130 1066 117 c 0,41,42
 1066 77 1066 77 1106.5 61.5 c 128,-1,43
 1147 46 1147 46 1141.5 23 c 128,-1,44
 1136 0 1136 0 1116 0 c 2,45,-1
 873 0 l 2,46,47
 856 0 856 0 859 13 c 2,48,-1
 973 506 l 2,49,50
 994 598 994 598 994 666 c 0,51,52
 994 762 994 762 953 814 c 0,53,54
 908 871 908 871 824 871 c 0,55,56
 776 871 776 871 733.5 857.5 c 128,-1,57
 691 844 691 844 654.5 831.5 c 128,-1,58
 618 819 618 819 592 810 c 256,59,60
 566 801 566 801 545 794 c 1,61,-1
 396 146 l 2,0,1
EndSplineSet
Validated: 1
EndChar

StartChar: k
Encoding: 107 107 62
Width: 1163
Flags: W
LayerCount: 2
Fore
SplineSet
484 443 m 1,0,-1
 416 146 l 2,1,2
 412 130 412 130 412 117 c 0,3,4
 412 77 412 77 452.5 61.5 c 128,-1,5
 493 46 493 46 487 21 c 0,6,7
 482 0 482 0 462 0 c 2,8,-1
 123 0 l 2,9,10
 106 0 106 0 106 14 c 0,11,12
 106 17 106 17 107 21 c 0,13,14
 113 46 113 46 167 63.5 c 128,-1,15
 221 81 221 81 236 146 c 2,16,-1
 492 1257 l 2,17,18
 496 1273 496 1273 496 1285 c 0,19,20
 496 1325 496 1325 458.5 1340 c 128,-1,21
 421 1355 421 1355 421 1377 c 0,22,23
 421 1380 421 1380 421 1383 c 0,24,25
 426 1404 426 1404 447 1404 c 0,26,27
 514 1407 514 1407 582.5 1424 c 128,-1,28
 651 1441 651 1441 720 1463 c 1,29,-1
 509 551 l 1,30,-1
 929 834 l 2,31,32
 1002 884 1002 884 1055 913 c 0,33,34
 1086 929 1086 929 1109 929 c 0,35,36
 1127 929 1127 929 1142 920 c 1,37,-1
 1206 874 l 2,38,39
 1214 867 1214 867 1214 860 c 128,-1,40
 1214 853 1214 853 1208 846 c 2,41,-1
 1137 741 l 1,42,-1
 1093 767 l 2,43,44
 1066 782 1066 782 1039 782 c 0,45,46
 1005 782 1005 782 969 760 c 0,47,48
 799 651 799 651 668 565 c 1,49,-1
 938 225 l 2,50,51
 1022 120 1022 120 1050 106 c 0,52,53
 1070 95 1070 95 1095 95 c 0,54,55
 1105 95 1105 95 1116 97 c 0,56,57
 1124 99 1124 99 1132 99 c 0,58,59
 1152 99 1152 99 1155 84 c 0,60,61
 1156 78 1156 78 1155 74 c 0,62,63
 1153 64 1153 64 1142 60 c 2,64,-1
 1071 29 l 1,65,66
 1014 6 1014 6 968 6 c 0,67,68
 939 6 939 6 916 17 c 0,69,70
 857 43 857 43 815 96 c 2,71,-1
 520 467 l 1,72,73
 510 459 510 459 484 443 c 1,0,-1
EndSplineSet
Validated: 1
EndChar

StartChar: l
Encoding: 108 108 63
Width: 597
Flags: W
LayerCount: 2
Fore
SplineSet
416 146 m 2,0,1
 412 130 412 130 412 117 c 0,2,3
 412 77 412 77 452.5 61.5 c 128,-1,4
 493 46 493 46 487 21 c 0,5,6
 482 0 482 0 462 0 c 2,7,-1
 123 0 l 2,8,9
 106 0 106 0 106 14 c 0,10,11
 106 17 106 17 107 21 c 0,12,13
 113 46 113 46 167 63.5 c 128,-1,14
 221 81 221 81 236 146 c 2,15,-1
 492 1257 l 2,16,17
 496 1273 496 1273 496 1285 c 0,18,19
 496 1325 496 1325 458.5 1340 c 128,-1,20
 421 1355 421 1355 421 1377 c 0,21,22
 421 1380 421 1380 421 1383 c 0,23,24
 426 1404 426 1404 447 1404 c 0,25,26
 514 1407 514 1407 582.5 1424 c 128,-1,27
 651 1441 651 1441 720 1463 c 1,28,-1
 416 146 l 2,0,1
EndSplineSet
Validated: 1
EndChar

StartChar: m
Encoding: 109 109 64
Width: 1797
Flags: W
LayerCount: 2
Fore
SplineSet
973 962 m 0,0,1
 1057 962 1057 962 1120 905 c 1,2,3
 1141 884 1141 884 1152 863 c 1,4,5
 1201 880 1201 880 1240.5 893.5 c 128,-1,6
 1280 907 1280 907 1348 929 c 128,-1,7
 1416 951 1416 951 1472.5 956.5 c 128,-1,8
 1529 962 1529 962 1542 962 c 0,9,10
 1625 962 1625 962 1688 905 c 0,11,12
 1747 850 1747 850 1747 722 c 0,13,14
 1747 632 1747 632 1718 506 c 2,15,-1
 1635 146 l 2,16,17
 1631 130 1631 130 1631 117 c 0,18,19
 1631 77 1631 77 1671.5 61.5 c 128,-1,20
 1712 46 1712 46 1706.5 23 c 128,-1,21
 1701 0 1701 0 1680 0 c 2,22,-1
 1437 0 l 2,23,24
 1421 0 1421 0 1424 13 c 2,25,-1
 1538 506 l 2,26,27
 1559 598 1559 598 1559 666 c 0,28,29
 1559 762 1559 762 1518 814 c 0,30,31
 1473 871 1473 871 1389 871 c 0,32,33
 1341 871 1341 871 1299.5 858 c 128,-1,34
 1258 845 1258 845 1227 834.5 c 128,-1,35
 1196 824 1196 824 1170 815 c 1,36,37
 1179 778 1179 778 1179 729 c 0,38,39
 1179 639 1179 639 1149 506 c 2,40,-1
 1066 146 l 2,41,42
 1062 130 1062 130 1062 117 c 0,43,44
 1062 77 1062 77 1102.5 61.5 c 128,-1,45
 1143 46 1143 46 1137.5 23 c 128,-1,46
 1132 0 1132 0 1112 0 c 2,47,-1
 773 0 l 2,48,49
 752 0 752 0 757.5 23 c 128,-1,50
 763 46 763 46 817 63.5 c 128,-1,51
 871 81 871 81 886 146 c 2,52,-1
 969 506 l 2,53,54
 990 598 990 598 990 666 c 0,55,56
 990 762 990 762 949 814 c 0,57,58
 904 871 904 871 820 871 c 0,59,60
 772 871 772 871 722.5 855.5 c 128,-1,61
 673 840 673 840 636.5 827 c 128,-1,62
 600 814 600 814 564 802 c 1,63,-1
 413 146 l 2,64,65
 409 130 409 130 409 117 c 0,66,67
 409 77 409 77 449.5 61.5 c 128,-1,68
 490 46 490 46 484.5 23 c 128,-1,69
 479 0 479 0 459 0 c 2,70,-1
 120 0 l 2,71,72
 103 0 103 0 103 15 c 0,73,74
 103 19 103 19 106.5 32.5 c 128,-1,75
 110 46 110 46 164 63.5 c 128,-1,76
 218 81 218 81 233 146 c 2,77,-1
 380 786 l 2,78,79
 384 801 384 801 384 814 c 0,80,81
 384 854 384 854 346.5 868.5 c 128,-1,82
 309 883 309 883 309 905 c 0,83,84
 309 908 309 908 309 911 c 0,85,86
 314 932 314 932 335 932 c 0,87,88
 402 935 402 935 470.5 952.5 c 128,-1,89
 539 970 539 970 608 992 c 1,90,-1
 578 861 l 1,91,92
 629 879 629 879 669.5 893 c 128,-1,93
 710 907 710 907 778.5 929 c 128,-1,94
 847 951 847 951 903.5 956.5 c 128,-1,95
 960 962 960 962 973 962 c 0,0,1
EndSplineSet
Validated: 1
EndChar

StartChar: n
Encoding: 110 110 65
Width: 1191
Flags: W
LayerCount: 2
Fore
SplineSet
977 962 m 0,0,1
 1061 962 1061 962 1124 905 c 1,2,3
 1182 851 1182 851 1182 723 c 0,4,5
 1182 633 1182 633 1153 506 c 2,6,-1
 1070 146 l 2,7,8
 1066 130 1066 130 1066 117 c 0,9,10
 1066 77 1066 77 1106.5 61.5 c 128,-1,11
 1147 46 1147 46 1141.5 23 c 128,-1,12
 1136 0 1136 0 1116 0 c 2,13,-1
 873 0 l 2,14,15
 856 0 856 0 859 13 c 2,16,-1
 973 506 l 2,17,18
 994 598 994 598 994 666 c 0,19,20
 994 762 994 762 953 814 c 0,21,22
 908 871 908 871 824 871 c 0,23,24
 776 871 776 871 733.5 857.5 c 128,-1,25
 691 844 691 844 654.5 831.5 c 128,-1,26
 618 819 618 819 592 810 c 256,27,28
 566 801 566 801 545 794 c 1,29,-1
 396 146 l 2,30,31
 392 130 392 130 392 117 c 0,32,33
 392 77 392 77 432.5 61.5 c 128,-1,34
 473 46 473 46 467.5 23 c 128,-1,35
 462 0 462 0 442 0 c 2,36,-1
 103 0 l 2,37,38
 86 0 86 0 86 15 c 0,39,40
 86 19 86 19 89.5 32.5 c 128,-1,41
 93 46 93 46 147 63.5 c 128,-1,42
 201 81 201 81 216 146 c 2,43,-1
 363 786 l 2,44,45
 367 801 367 801 367 814 c 0,46,47
 367 854 367 854 329.5 868.5 c 128,-1,48
 292 883 292 883 292 905 c 0,49,50
 292 908 292 908 292 911 c 0,51,52
 297 932 297 932 318 932 c 0,53,54
 385 935 385 935 453.5 952.5 c 128,-1,55
 522 970 522 970 591 992 c 1,56,-1
 559 853 l 1,57,58
 619 874 619 874 664.5 890 c 128,-1,59
 710 906 710 906 780.5 928.5 c 128,-1,60
 851 951 851 951 907.5 956.5 c 128,-1,61
 964 962 964 962 977 962 c 0,0,1
EndSplineSet
Validated: 1
EndChar

StartChar: o
Encoding: 111 111 66
Width: 1107
Flags: W
LayerCount: 2
Fore
SplineSet
1151 459 m 2,0,1
 1105 259 1105 259 930.5 120 c 128,-1,2
 756 -19 756 -19 547 -25 c 1,3,-1
 531 -25 l 2,4,5
 339 -25 339 -25 247 97.5 c 128,-1,6
 155 220 155 220 155 348 c 0,7,8
 155 402 155 402 169 462 c 2,9,-1
 169 465 l 1,10,11
 221 684 221 684 419 833 c 0,12,13
 442 851 442 851 482.5 864 c 128,-1,14
 523 877 523 877 587 898.5 c 128,-1,15
 651 920 651 920 707 938 c 128,-1,16
 763 956 763 956 795 956 c 2,17,-1
 798 956 l 1,18,19
 991 948 991 948 1078 826.5 c 128,-1,20
 1165 705 1165 705 1165 577 c 0,21,22
 1165 523 1165 523 1152 465 c 1,23,-1
 1151 459 l 2,0,1
749 889 m 2,24,25
 632 889 632 889 518.5 772.5 c 128,-1,26
 405 656 405 656 365 481 c 256,27,28
 348 409 348 409 348 345 c 0,29,30
 348 253 348 253 394 151 c 128,-1,31
 440 49 440 49 564 43 c 1,32,-1
 578 43 l 2,33,34
 694 43 694 43 806.5 159 c 128,-1,35
 919 275 919 275 960 450 c 256,36,37
 976 518 976 518 976 578 c 0,38,39
 976 582 976 582 976 585 c 0,40,41
 976 677 976 677 930 779.5 c 128,-1,42
 884 882 884 882 761 889 c 1,43,-1
 749 889 l 2,24,25
EndSplineSet
Validated: 1
EndChar

StartChar: p
Encoding: 112 112 67
Width: 1197
Flags: W
LayerCount: 2
Fore
SplineSet
1242 571 m 0,0,1
 1237 530 1237 530 1226 483.5 c 128,-1,2
 1215 437 1215 437 1189.5 370 c 128,-1,3
 1164 303 1164 303 1109 238.5 c 128,-1,4
 1054 174 1054 174 1005 142.5 c 128,-1,5
 956 111 956 111 926 100 c 0,6,7
 736 34 736 34 647 4.5 c 128,-1,8
 558 -25 558 -25 542 -25 c 2,9,-1
 538 -25 l 1,10,11
 480 -22 480 -22 393 5 c 1,12,-1
 290 -441 l 2,13,14
 286 -457 286 -457 287 -469 c 0,15,16
 287 -509 287 -509 324.5 -524 c 128,-1,17
 362 -539 362 -539 362 -561 c 0,18,19
 362 -564 362 -564 361 -567 c 0,20,21
 356 -587 356 -587 336 -587 c 2,22,-1
 -3 -587 l 2,23,24
 -20 -587 -20 -587 -20 -574 c 0,25,26
 -20 -571 -20 -571 -19 -567 c 0,27,28
 -13 -541 -13 -541 41 -523 c 128,-1,29
 95 -505 95 -505 110 -441 c 2,30,-1
 393 786 l 2,31,32
 397 801 397 801 397 814 c 0,33,34
 397 854 397 854 359.5 868.5 c 128,-1,35
 322 883 322 883 322 905 c 0,36,37
 322 908 322 908 322 911 c 0,38,39
 327 932 327 932 348 932 c 0,40,41
 415 935 415 935 483.5 952.5 c 128,-1,42
 552 970 552 970 621 992 c 1,43,-1
 588 848 l 1,44,-1
 873 945 l 2,45,46
 904 955 904 955 920.5 956 c 128,-1,47
 937 957 937 957 947 956.5 c 128,-1,48
 957 956 957 956 969 956 c 0,49,50
 1109 950 1109 950 1187 840 c 1,51,52
 1247 753 1247 753 1247 638 c 0,53,54
 1247 606 1247 606 1242 571 c 0,0,1
626 56 m 2,55,56
 642 56 642 56 673 66.5 c 128,-1,57
 704 77 704 77 742.5 90 c 128,-1,58
 781 103 781 103 813 114 c 128,-1,59
 845 125 845 125 867 143 c 1,60,61
 942 208 942 208 980.5 290.5 c 128,-1,62
 1019 373 1019 373 1030 420 c 128,-1,63
 1041 467 1041 467 1044 489 c 0,64,65
 1051 535 1051 535 1051 576 c 0,66,67
 1051 662 1051 662 1012 738.5 c 128,-1,68
 973 815 973 815 880 844 c 0,69,70
 843 855 843 855 817 855 c 128,-1,71
 791 855 791 855 773.5 853 c 128,-1,72
 756 851 756 851 729 842 c 128,-1,73
 702 833 702 833 656 817.5 c 128,-1,74
 610 802 610 802 574 790 c 1,75,-1
 427 150 l 1,76,77
 461 114 461 114 515.5 85.5 c 128,-1,78
 570 57 570 57 620 56 c 1,79,-1
 626 56 l 2,55,56
EndSplineSet
Validated: 1
EndChar

StartChar: q
Encoding: 113 113 68
Width: 1173
Flags: W
LayerCount: 2
Fore
SplineSet
483 -25 m 2,0,-1
 441 -25 l 1,1,2
 300 -18 300 -18 232 78.5 c 128,-1,3
 164 175 164 175 164 289 c 0,4,5
 164 323 164 323 169 359 c 0,6,7
 175 402 175 402 185.5 447.5 c 128,-1,8
 196 493 196 493 220.5 559.5 c 128,-1,9
 245 626 245 626 301 691.5 c 128,-1,10
 357 757 357 757 405.5 788 c 128,-1,11
 454 819 454 819 513 839.5 c 128,-1,12
 572 860 572 860 658.5 890 c 128,-1,13
 745 920 745 920 799 938 c 128,-1,14
 853 956 853 956 869 956 c 2,15,-1
 873 956 l 1,16,17
 937 953 937 953 979.5 938 c 128,-1,18
 1022 923 1022 923 1024.5 921.5 c 128,-1,19
 1027 920 1027 920 1030 920 c 1,20,-1
 1030 918 l 1,21,22
 1051 909 1051 909 1070.5 902.5 c 128,-1,23
 1090 896 1090 896 1102.5 896 c 128,-1,24
 1115 896 1115 896 1134 909.5 c 128,-1,25
 1153 923 1153 923 1162 932.5 c 128,-1,26
 1171 942 1171 942 1177.5 942 c 128,-1,27
 1184 942 1184 942 1195.5 937.5 c 128,-1,28
 1207 933 1207 933 1207 924 c 0,29,30
 1207 922 1207 922 1206 920 c 2,31,-1
 892 -441 l 2,32,33
 888 -457 888 -457 889 -469 c 0,34,35
 889 -509 889 -509 926.5 -524 c 128,-1,36
 964 -539 964 -539 964 -561 c 0,37,38
 964 -564 964 -564 963 -567 c 0,39,40
 958 -587 958 -587 937 -587 c 2,41,-1
 598 -587 l 2,42,43
 577 -587 577 -587 582 -567 c 0,44,45
 588 -541 588 -541 642 -523 c 128,-1,46
 696 -505 696 -505 711 -441 c 2,47,-1
 833 86 l 1,48,-1
 538 -14 l 2,49,50
 505 -25 505 -25 483 -25 c 2,0,-1
787 874 m 2,51,52
 767 874 767 874 737 863.5 c 128,-1,53
 707 853 707 853 668 839.5 c 128,-1,54
 629 826 629 826 597 815 c 128,-1,55
 565 804 565 804 544 787 c 0,56,57
 467 721 467 721 428.5 638.5 c 128,-1,58
 390 556 390 556 379.5 510 c 128,-1,59
 369 464 369 464 366 441 c 0,60,61
 359 394 359 394 359 352 c 0,62,63
 359 267 359 267 397 191 c 128,-1,64
 435 115 435 115 530 86 c 0,65,66
 566 75 566 75 591.5 75 c 128,-1,67
 617 75 617 75 635 76.5 c 128,-1,68
 653 78 653 78 680.5 87.5 c 128,-1,69
 708 97 708 97 759.5 114.5 c 128,-1,70
 811 132 811 132 846 144 c 1,71,-1
 991 772 l 1,72,73
 958 809 958 809 899.5 840.5 c 128,-1,74
 841 872 841 872 791 874 c 1,75,-1
 787 874 l 2,51,52
EndSplineSet
Validated: 1
EndChar

StartChar: r
Encoding: 114 114 69
Width: 831
Flags: W
LayerCount: 2
Fore
SplineSet
540 595 m 1,0,-1
 437 146 l 2,1,2
 433 130 433 130 433 117 c 0,3,4
 433 77 433 77 473 61.5 c 128,-1,5
 513 46 513 46 507 21 c 0,6,7
 502 0 502 0 482 0 c 2,8,-1
 143 0 l 2,9,10
 126 0 126 0 126 14 c 0,11,12
 126 17 126 17 127 21 c 0,13,14
 133 46 133 46 187 63.5 c 128,-1,15
 241 81 241 81 256 146 c 2,16,-1
 403 786 l 2,17,18
 407 801 407 801 407 814 c 0,19,20
 407 854 407 854 369.5 868.5 c 128,-1,21
 332 883 332 883 332 905 c 0,22,23
 332 908 332 908 332 911 c 0,24,25
 337 932 337 932 358 932 c 0,26,27
 425 935 425 935 493.5 952.5 c 128,-1,28
 562 970 562 970 632 992 c 1,29,-1
 602 860 l 1,30,-1
 753 913 l 2,31,32
 837 942 837 942 883 956 c 0,33,34
 897 960 897 960 915 960 c 0,35,36
 952 960 952 960 1004 940 c 1,37,-1
 924 689 l 1,38,-1
 878 689 l 1,39,40
 873 835 873 835 762 835 c 0,41,42
 751 835 751 835 740 834 c 0,43,44
 662 825 662 825 613 756.5 c 128,-1,45
 564 688 564 688 540 595 c 1,0,-1
EndSplineSet
Validated: 1
EndChar

StartChar: s
Encoding: 115 115 70
Width: 884
Flags: W
LayerCount: 2
Fore
SplineSet
888 679 m 2,0,-1
 885 679 l 1,1,2
 873 680 873 680 868 703 c 0,3,4
 849 778 849 778 792 828.5 c 128,-1,5
 735 879 735 879 656 882 c 1,6,-1
 652 882 l 2,7,8
 590 882 590 882 522 850.5 c 128,-1,9
 454 819 454 819 425 753 c 0,10,11
 415 731 415 731 411 713 c 0,12,13
 408 700 408 700 408 688 c 0,14,15
 408 643 408 643 458.5 615 c 128,-1,16
 509 587 509 587 614.5 562 c 128,-1,17
 720 537 720 537 804 493.5 c 128,-1,18
 888 450 888 450 888 346 c 0,19,20
 888 317 888 317 882 283 c 1,21,-1
 880 273 l 2,22,23
 863 199 863 199 785.5 122 c 128,-1,24
 708 45 708 45 605.5 12.5 c 128,-1,25
 503 -20 503 -20 414 -23 c 1,26,-1
 387 -23 l 2,27,28
 264 -23 264 -23 159 9 c 1,29,-1
 129 229 l 1,30,-1
 136 249 l 1,31,32
 140 264 140 264 158 264 c 2,33,-1
 160 264 l 1,34,35
 170 262 170 262 175 240 c 0,36,37
 198 141 198 141 255 99.5 c 128,-1,38
 312 58 312 58 414 55 c 1,39,-1
 426 55 l 2,40,41
 497 55 497 55 593.5 89.5 c 128,-1,42
 690 124 690 124 715 218 c 1,43,-1
 717 224 l 2,44,45
 722 246 722 246 722 265 c 0,46,47
 722 338 722 338 634.5 364.5 c 128,-1,48
 547 391 547 391 463.5 416 c 128,-1,49
 380 441 380 441 316.5 491.5 c 128,-1,50
 253 542 253 542 253 615 c 0,51,52
 253 641 253 641 260 672 c 2,53,-1
 261 677 l 1,54,55
 298 832 298 832 426.5 895.5 c 128,-1,56
 555 959 555 959 687 959 c 0,57,58
 699 959 699 959 711 958 c 0,59,60
 856 950 856 950 969 869 c 1,61,-1
 907 694 l 2,62,63
 902 679 902 679 888 679 c 2,0,-1
EndSplineSet
Validated: 1
EndChar

StartChar: t
Encoding: 116 116 71
Width: 682
Flags: W
LayerCount: 2
Fore
SplineSet
282 840 m 2,0,1
 263 840 263 840 267 860 c 1,2,-1
 267 862 l 2,3,4
 271 878 271 878 292 887 c 0,5,6
 314 896 314 896 358 917 c 128,-1,7
 402 938 402 938 411 941.5 c 128,-1,8
 420 945 420 945 425 945 c 1,9,-1
 465 1116 l 2,10,11
 477 1166 477 1166 501.5 1185.5 c 128,-1,12
 526 1205 526 1205 582 1229 c 128,-1,13
 638 1253 638 1253 654 1253 c 0,14,15
 677 1253 677 1253 671 1227 c 2,16,-1
 607 948 l 1,17,-1
 847 953 l 2,18,19
 858 953 858 953 858 941 c 0,20,21
 858 937 858 937 855.5 925 c 128,-1,22
 853 913 853 913 844 893 c 0,23,24
 823 846 823 846 788 846 c 2,25,-1
 584 847 l 1,26,-1
 439 220 l 2,27,28
 433 194 433 194 433 172 c 0,29,30
 433 116 433 116 478.5 77.5 c 128,-1,31
 524 39 524 39 568 33 c 1,32,-1
 560 1 l 1,33,34
 411 1 411 1 331 24.5 c 128,-1,35
 251 48 251 48 251 144 c 0,36,37
 251 189 251 189 265 250 c 2,38,-1
 402 845 l 1,39,-1
 282 840 l 2,0,1
EndSplineSet
Validated: 1
EndChar

StartChar: u
Encoding: 117 117 72
Width: 1239
Flags: W
LayerCount: 2
Fore
SplineSet
1074 146 m 2,0,1
 1070 130 1070 130 1070 117 c 0,2,3
 1070 77 1070 77 1110.5 61.5 c 128,-1,4
 1151 46 1151 46 1145 21 c 0,5,6
 1140 0 1140 0 1119 0 c 2,7,-1
 876 0 l 2,8,9
 859 0 859 0 862 13 c 2,10,-1
 877 78 l 1,11,12
 817 57 817 57 771 40.5 c 128,-1,13
 725 24 725 24 686 12 c 0,14,15
 586 -19 586 -19 485 -29 c 0,16,17
 471 -30 471 -30 458 -30 c 0,18,19
 375 -30 375 -30 313 26 c 0,20,21
 254 80 254 80 254 208 c 0,22,23
 254 298 254 298 283 425 c 2,24,-1
 366 786 l 2,25,26
 370 801 370 801 370 814 c 0,27,28
 370 854 370 854 332.5 868.5 c 128,-1,29
 295 883 295 883 295 905 c 0,30,31
 295 908 295 908 295 911 c 0,32,33
 300 932 300 932 321 932 c 0,34,35
 388 935 388 935 456.5 952.5 c 128,-1,36
 525 970 525 970 595 992 c 1,37,-1
 464 425 l 2,38,39
 443 333 443 333 443 264 c 0,40,41
 443 168 443 168 484 117 c 0,42,43
 529 60 529 60 613 60 c 0,44,45
 661 60 661 60 722 79 c 0,46,47
 745 86 745 86 782 99 c 128,-1,48
 819 112 819 112 845 121 c 0,49,50
 850 123 850 123 862.5 127 c 128,-1,51
 875 131 875 131 891 137 c 1,52,-1
 1040 786 l 2,53,54
 1044 801 1044 801 1044 814 c 0,55,56
 1044 854 1044 854 1006.5 868.5 c 128,-1,57
 969 883 969 883 969 905 c 0,58,59
 969 908 969 908 969 911 c 0,60,61
 974 932 974 932 995 932 c 0,62,63
 1062 935 1062 935 1130.5 952.5 c 128,-1,64
 1199 970 1199 970 1269 992 c 1,65,-1
 1074 146 l 2,0,1
EndSplineSet
Validated: 1
EndChar

StartChar: v
Encoding: 118 118 73
Width: 1088
Flags: W
LayerCount: 2
Fore
SplineSet
541 805 m 2,0,-1
 655 166 l 1,1,-1
 1013 717 l 2,2,3
 1027 738 1027 738 1031 758 c 0,4,5
 1033 768 1033 768 1033 778 c 0,6,7
 1033 803 1033 803 1019 826 c 2,8,-1
 995 865 l 1,9,-1
 1101 936 l 2,10,11
 1108 942 1108 942 1113 942 c 0,12,13
 1120 942 1120 942 1127 934 c 2,14,-1
 1169 877 l 2,15,16
 1178 865 1178 865 1178 849 c 0,17,18
 1178 842 1178 842 1176 833 c 0,19,20
 1173 818 1173 818 1163 800 c 0,21,22
 1136 752 1136 752 1090 688 c 1,23,-1
 624 2 l 2,24,25
 617 -8 617 -8 611 -14 c 0,26,27
 605 -19 605 -19 599 -19 c 2,28,-1
 515 -19 l 2,29,30
 508 -19 508 -19 505 -13 c 0,31,32
 503 -10 503 -10 501 2.5 c 128,-1,33
 499 15 499 15 499 21 c 2,34,-1
 352 800 l 2,35,36
 344 838 344 838 317 860 c 1,37,38
 299 873 299 873 280.5 882 c 128,-1,39
 262 891 262 891 252 900 c 1,40,41
 246 904 246 904 243 913 c 1,42,43
 243 917 243 917 243 920 c 256,44,45
 244 923 244 923 246 926 c 0,46,47
 250 931 250 931 258 931 c 2,48,-1
 586 931 l 2,49,50
 593 931 593 931 601 926 c 1,51,52
 607 919 607 919 609 913 c 0,53,54
 609 910 609 910 609 908 c 0,55,56
 607 899 607 899 594 890 c 0,57,58
 553 859 553 859 548 849 c 0,59,60
 543 840 543 840 541 830 c 0,61,62
 538 818 538 818 541 805 c 2,0,-1
EndSplineSet
Validated: 1
EndChar

StartChar: w
Encoding: 119 119 74
Width: 1647
Flags: W
LayerCount: 2
Fore
SplineSet
1624 717 m 2,0,1
 1638 738 1638 738 1644 765.5 c 128,-1,2
 1650 793 1650 793 1630 826 c 2,3,-1
 1606 865 l 1,4,-1
 1711 936 l 2,5,6
 1717 941 1717 941 1724 941 c 256,7,8
 1731 941 1731 941 1738 934 c 2,9,-1
 1780 877 l 2,10,11
 1789 864 1789 864 1790 849 c 0,12,13
 1790 844 1790 844 1787 831 c 128,-1,14
 1784 818 1784 818 1765.5 785 c 128,-1,15
 1747 752 1747 752 1701 688 c 1,16,-1
 1235 2 l 2,17,18
 1228 -8 1228 -8 1222 -13.5 c 128,-1,19
 1216 -19 1216 -19 1210 -19 c 2,20,-1
 1126 -19 l 2,21,22
 1119 -19 1119 -19 1116.5 -14.5 c 128,-1,23
 1114 -10 1114 -10 1112 2.5 c 128,-1,24
 1110 15 1110 15 1109 21 c 2,25,-1
 1006 565 l 1,26,-1
 624 2 l 2,27,28
 617 -8 617 -8 611 -13.5 c 128,-1,29
 605 -19 605 -19 599 -19 c 2,30,-1
 515 -19 l 2,31,32
 508 -19 508 -19 505.5 -14.5 c 128,-1,33
 503 -10 503 -10 501 2.5 c 128,-1,34
 499 15 499 15 499 21 c 2,35,-1
 352 800 l 2,36,37
 344 838 344 838 321.5 855.5 c 128,-1,38
 299 873 299 873 280.5 882 c 128,-1,39
 262 891 262 891 254 897.5 c 128,-1,40
 246 904 246 904 244.5 909.5 c 128,-1,41
 243 915 243 915 243 918 c 0,42,43
 243 922 243 922 246 926 c 0,44,45
 250 931 250 931 258 931 c 2,46,-1
 586 931 l 2,47,48
 593 931 593 931 601 926 c 1,49,50
 607 919 607 919 608 914.5 c 128,-1,51
 609 910 609 910 608 904.5 c 128,-1,52
 607 899 607 899 580 879 c 128,-1,53
 553 859 553 859 548 849.5 c 128,-1,54
 543 840 543 840 540.5 829 c 128,-1,55
 538 818 538 818 541 805 c 2,56,-1
 655 166 l 1,57,-1
 986 676 l 1,58,-1
 963 800 l 2,59,60
 955 838 955 838 932.5 855.5 c 128,-1,61
 910 873 910 873 891.5 882 c 128,-1,62
 873 891 873 891 863.5 898.5 c 128,-1,63
 854 906 854 906 854 911.5 c 128,-1,64
 854 917 854 917 854 920 c 256,65,66
 855 923 855 923 857 926 c 0,67,68
 861 931 861 931 869 931 c 2,69,-1
 1197 931 l 2,70,71
 1204 931 1204 931 1212 926 c 1,72,73
 1218 919 1218 919 1219 914.5 c 128,-1,74
 1220 910 1220 910 1219 904.5 c 128,-1,75
 1218 899 1218 899 1191 879 c 128,-1,76
 1164 859 1164 859 1159 849.5 c 128,-1,77
 1154 840 1154 840 1151.5 829 c 128,-1,78
 1149 818 1149 818 1152 805 c 2,79,-1
 1266 166 l 1,80,-1
 1624 717 l 2,0,1
EndSplineSet
Validated: 1
EndChar

StartChar: x
Encoding: 120 120 75
Width: 1098
Flags: W
LayerCount: 2
Fore
SplineSet
185 97 m 2,0,-1
 552 447 l 1,1,-1
 376 832 l 2,2,3
 366 856 366 856 332 876 c 0,4,5
 315 886 315 886 299 892.5 c 128,-1,6
 283 899 283 899 273 906 c 0,7,8
 253 919 253 919 254 924 c 256,9,10
 255 929 255 929 270 929 c 2,11,-1
 592 929 l 2,12,13
 607 929 607 929 614 915 c 0,14,15
 616 911 616 911 615 906 c 0,16,17
 614 900 614 900 604 895 c 0,18,19
 587 886 587 886 581 868 c 0,20,21
 578 853 578 853 586 836 c 2,22,-1
 700 587 l 1,23,-1
 918 796 l 2,24,25
 1035 907 1035 907 1064 929 c 0,26,27
 1075 937 1075 937 1091 937 c 0,28,29
 1115 937 1115 937 1149 917 c 2,30,-1
 1205 883 l 2,31,32
 1211 879 1211 879 1211 873 c 128,-1,33
 1211 867 1211 867 1205 858 c 2,34,-1
 1130 754 l 1,35,36
 1098 774 1098 774 1070 789 c 0,37,38
 1063 793 1063 793 1055 793 c 0,39,40
 1031 793 1031 793 995 758 c 2,41,-1
 735 510 l 1,42,-1
 924 97 l 1,43,44
 935 68 935 68 973 51 c 0,45,46
 986 44 986 44 1000 37.5 c 128,-1,47
 1014 31 1014 31 1027 23 c 0,48,49
 1047 10 1047 10 1046 5 c 256,50,51
 1045 0 1045 0 1030 0 c 2,52,-1
 708 0 l 2,53,54
 693 0 693 0 686 13 c 0,55,56
 684 18 684 18 685 22 c 0,57,58
 686 28 686 28 697 34 c 0,59,60
 713 42 713 42 719 60 c 1,61,-1
 719 62 l 2,62,63
 722 76 722 76 714 93 c 2,64,-1
 588 370 l 1,65,-1
 301 97 l 1,66,67
 276 71 276 71 273 55 c 2,68,-1
 272 52 l 2,69,70
 269 39 269 39 272 32 c 0,71,72
 272 29 272 29 272 26 c 0,73,74
 271 20 271 20 264 14 c 0,75,76
 252 0 252 0 242 0 c 2,77,-1
 34 0 l 2,78,79
 25 0 25 0 25 4 c 128,-1,80
 25 8 25 8 31 14 c 0,81,82
 48 30 48 30 93.5 41 c 128,-1,83
 139 52 139 52 185 97 c 2,0,-1
EndSplineSet
Validated: 1
EndChar

StartChar: y
Encoding: 121 121 76
Width: 1036
Flags: W
LayerCount: 2
Fore
SplineSet
269.5 887 m 128,-1,1
 245 898 245 898 243.5 908 c 128,-1,2
 242 918 242 918 243.5 924.5 c 128,-1,3
 245 931 245 931 258 931 c 2,4,-1
 586 931 l 2,5,6
 605 931 605 931 607.5 920 c 128,-1,7
 610 909 610 909 609 905 c 0,8,9
 606 893 606 893 584.5 883 c 128,-1,10
 563 873 563 873 553 856.5 c 128,-1,11
 543 840 543 840 540.5 829 c 128,-1,12
 538 818 538 818 541 805 c 2,13,-1
 655 166 l 1,14,-1
 1013 717 l 2,15,16
 1027 738 1027 738 1033 765.5 c 128,-1,17
 1039 793 1039 793 1019 826 c 2,18,-1
 995 865 l 1,19,-1
 1101 936 l 2,20,21
 1108 942 1108 942 1114 942 c 128,-1,22
 1120 942 1120 942 1127 934 c 2,23,-1
 1169 877 l 2,24,25
 1178 864 1178 864 1179 849 c 0,26,27
 1179 844 1179 844 1176 831 c 128,-1,28
 1173 818 1173 818 1154.5 785 c 128,-1,29
 1136 752 1136 752 1090 688 c 1,30,-1
 340 -414 l 2,31,32
 295 -480 295 -480 261 -523 c 128,-1,33
 227 -566 227 -566 190 -566 c 1,34,-1
 108 -563 l 1,35,36
 93 -561 93 -561 93 -549 c 0,37,38
 93 -547 93 -547 93 -544 c 2,39,-1
 114 -430 l 1,40,-1
 165 -429 l 2,41,42
 232 -427 232 -427 274 -370 c 2,43,-1
 524 -19 l 1,44,45
 509 -19 509 -19 506 -14.5 c 128,-1,46
 503 -10 503 -10 501 2.5 c 128,-1,47
 499 15 499 15 499 21 c 2,48,-1
 352 800 l 2,49,50
 344 838 344 838 319 857 c 128,-1,0
 294 876 294 876 269.5 887 c 128,-1,1
EndSplineSet
Validated: 1
EndChar

StartChar: z
Encoding: 122 122 77
Width: 1019
Flags: W
LayerCount: 2
Fore
SplineSet
1135 880 m 2,0,-1
 312 79 l 1,1,-1
 746 79 l 1,2,3
 797 81 797 81 840 114 c 128,-1,4
 883 147 883 147 940 207 c 0,5,6
 973 241 973 241 980 241 c 0,7,8
 998 241 998 241 993 223 c 2,9,-1
 957 65 l 2,10,11
 946 16 946 16 931 8 c 128,-1,12
 916 0 916 0 845 0 c 2,13,-1
 160 -1 l 1,14,15
 88 0 88 0 65 8 c 0,16,17
 56 10 56 10 55 18 c 0,18,19
 55 29 55 29 79 51 c 2,20,-1
 898 861 l 1,21,-1
 546 861 l 2,22,23
 494 861 494 861 454.5 828 c 128,-1,24
 415 795 415 795 359 736 c 1,25,26
 326 703 326 703 319 703 c 0,27,28
 300 703 300 703 304 720 c 2,29,-1
 341 879 l 2,30,31
 351 924 351 924 369.5 934.5 c 128,-1,32
 388 945 388 945 454 945 c 2,33,-1
 1076 945 l 2,34,35
 1158 945 1158 945 1158 918 c 0,36,37
 1158 916 1158 916 1158 913 c 0,38,39
 1154 899 1154 899 1135 880 c 2,0,-1
EndSplineSet
Validated: 1
EndChar

StartChar: braceleft
Encoding: 123 123 78
Width: 1024
Flags: W
LayerCount: 2
Fore
SplineSet
300 613 m 0,0,1
 284 614 284 614 280 624 c 1,2,3
 277 628 277 628 277 634 c 0,4,5
 277 638 277 638 278 643 c 0,6,7
 279 647 279 647 282 652 c 0,8,9
 289 670 289 670 313 673 c 0,10,11
 468 686 468 686 538 746 c 0,12,13
 579 782 579 782 604 843 c 128,-1,14
 629 904 629 904 642 961 c 2,15,-1
 691 1173 l 2,16,17
 708 1245 708 1245 740 1321.5 c 128,-1,18
 772 1398 772 1398 829 1443 c 0,19,20
 920 1516 920 1516 1124 1516 c 0,21,22
 1144 1516 1144 1516 1150 1507 c 1,23,24
 1155 1496 1155 1496 1155 1488 c 0,25,26
 1155 1485 1155 1485 1154 1482 c 0,27,28
 1150 1466 1150 1466 1120 1466 c 0,29,30
 987 1464 987 1464 928 1411 c 1,31,32
 889 1378 889 1378 866.5 1317.5 c 128,-1,33
 844 1257 844 1257 832 1204 c 2,34,-1
 799 1061 l 2,35,36
 781 984 781 984 750 895.5 c 128,-1,37
 719 807 719 807 671 755 c 0,38,39
 595 673 595 673 434 642 c 1,40,41
 580 611 580 611 619 529 c 0,42,43
 636 492 636 492 636 437 c 0,44,45
 636 414 636 414 629.5 357.5 c 128,-1,46
 623 301 623 301 605 223 c 2,47,-1
 572 80 l 2,48,49
 555 8 555 8 555 -42 c 0,50,51
 555 -45 555 -45 555 -47 c 0,52,53
 555 -99 555 -99 573 -126 c 0,54,55
 609 -178 609 -178 740 -180 c 0,56,57
 756 -180 756 -180 759 -195 c 0,58,59
 760 -201 760 -201 758 -207 c 0,60,61
 756 -215 756 -215 749 -223 c 0,62,63
 740 -231 740 -231 721 -231 c 0,64,65
 519 -231 519 -231 460 -158 c 0,66,67
 426 -116 426 -116 426 -48 c 0,68,69
 426 -42 426 -42 427.5 -1.5 c 128,-1,70
 429 39 429 39 446 112 c 2,71,-1
 495 323 l 2,72,73
 508 380 508 380 509.5 414.5 c 128,-1,74
 511 449 511 449 511 456 c 0,75,76
 511 508 511 508 490 541 c 1,77,78
 463 577 463 577 408.5 593 c 128,-1,79
 354 609 354 609 300 613 c 0,0,1
EndSplineSet
Validated: 1
EndChar

StartChar: bar
Encoding: 124 124 79
Width: 1024
Flags: W
LayerCount: 2
Fore
SplineSet
794 1490 m 1,0,-1
 935 1490 l 1,1,-1
 539 -227 l 1,2,-1
 398 -227 l 1,3,-1
 794 1490 l 1,0,-1
EndSplineSet
Validated: 1
EndChar

StartChar: asciitilde
Encoding: 126 126 80
Width: 1024
Flags: W
LayerCount: 2
Fore
SplineSet
1131 729 m 0,0,1
 1044 616 1044 616 977 565 c 0,2,3
 904 510 904 510 840 510 c 0,4,5
 727 510 727 510 611 594 c 0,6,7
 547 640 547 640 480 640 c 0,8,9
 428 640 428 640 374 611 c 0,10,11
 360 603 360 603 340.5 592.5 c 128,-1,12
 321 582 321 582 297 564 c 0,13,14
 254 531 254 531 219 491 c 0,15,16
 210 481 210 481 200 481 c 0,17,18
 192 481 192 481 183 487 c 128,-1,19
 174 493 174 493 174 501 c 0,20,21
 174 503 174 503 175 506 c 0,22,23
 177 516 177 516 188 529 c 0,24,25
 252 601 252 601 318 677 c 128,-1,26
 384 753 384 753 486 753 c 0,27,28
 612 753 612 753 721 666 c 0,29,30
 779 619 779 619 847 619 c 0,31,32
 906 619 906 619 972 654 c 1,33,34
 1034 686 1034 686 1093 761 c 0,35,36
 1103 773 1103 773 1116 773 c 0,37,38
 1119 773 1119 773 1122 772 c 0,39,40
 1139 769 1139 769 1139 753 c 2,41,-1
 1139 745 l 1,42,43
 1137 738 1137 738 1131 729 c 0,0,1
EndSplineSet
Validated: 1
EndChar

StartChar: cent
Encoding: 162 162 81
Width: 925
Flags: W
LayerCount: 2
Fore
SplineSet
785 1115 m 1,0,-1
 869 1115 l 1,1,-1
 832 955 l 1,2,3
 972 946 972 946 1076 868 c 1,4,-1
 1020 699 l 2,5,6
 1015 686 1015 686 1005 686 c 0,7,8
 1004 686 1004 686 1003 686 c 0,9,10
 991 687 991 687 988 706 c 0,11,12
 967 794 967 794 912 832 c 0,13,14
 871 860 871 860 812 867 c 1,15,-1
 628 70 l 1,16,17
 718 72 718 72 796 114 c 0,18,19
 880 158 880 158 897 159 c 0,20,21
 913 159 913 159 918 158 c 1,22,23
 919 153 919 153 917 142 c 0,24,25
 914 130 914 130 894 106 c 128,-1,26
 874 82 874 82 853 65 c 1,27,28
 747 -7 747 -7 607 -21 c 1,29,-1
 563 -212 l 1,30,-1
 479 -212 l 1,31,-1
 522 -25 l 1,32,33
 346 -22 346 -22 246 78 c 1,34,35
 164 164 164 164 164 304 c 0,36,37
 164 369 164 369 182 446 c 0,38,39
 195 501 195 501 217 563 c 1,40,41
 311 784 311 784 522 891 c 0,42,43
 627 944 627 944 748 954 c 1,44,-1
 785 1115 l 1,0,-1
729 869 m 1,45,46
 626 861 626 861 561 810 c 0,47,48
 431 709 431 709 387 519 c 0,49,50
 380 490 380 490 376 458 c 0,51,52
 368 409 368 409 368 365 c 0,53,54
 368 277 368 277 400 214 c 0,55,56
 455 107 455 107 546 79 c 1,57,-1
 729 869 l 1,45,46
EndSplineSet
Validated: 1
EndChar

StartChar: sterling
Encoding: 163 163 82
Width: 1024
Flags: W
LayerCount: 2
Fore
SplineSet
97 108 m 0,0,1
 93 90 93 90 93 77 c 0,2,3
 93 29 93 29 142 29 c 0,4,5
 198 29 198 29 231 74.5 c 128,-1,6
 264 120 264 120 288 164 c 1,7,8
 260 201 260 201 220 201 c 0,9,10
 118 201 118 201 97 108 c 0,0,1
245 784 m 2,11,-1
 421 784 l 1,12,13
 431 862 431 862 446 928 c 0,14,15
 459 985 459 985 476 1033 c 0,16,17
 516 1152 516 1152 581 1238 c 0,18,19
 735 1443 735 1443 971 1443 c 0,20,21
 1041 1443 1041 1443 1099 1408 c 128,-1,22
 1157 1373 1157 1373 1175 1308 c 1,23,24
 1179 1290 1179 1290 1179 1270 c 0,25,26
 1179 1254 1179 1254 1177 1237 c 1,27,-1
 1175 1230 l 2,28,29
 1167 1195 1167 1195 1136 1170 c 0,30,31
 1103 1143 1103 1143 1075 1143 c 0,32,33
 1050 1143 1050 1143 1028 1165 c 1,34,35
 1010 1181 1010 1181 1010 1215 c 0,36,37
 1010 1222 1010 1222 1012.5 1247.5 c 128,-1,38
 1015 1273 1015 1273 1018 1302 c 1,39,40
 1018 1305 1018 1305 1018 1309 c 0,41,42
 1018 1372 1018 1372 946 1383 c 0,43,44
 928 1385 928 1385 913 1385 c 0,45,46
 858 1385 858 1385 816 1355 c 0,47,48
 741 1301 741 1301 707.5 1229 c 128,-1,49
 674 1157 674 1157 656 1079 c 0,50,51
 639 1004 639 1004 628.5 930.5 c 128,-1,52
 618 857 618 857 607 784 c 1,53,-1
 868 784 l 2,54,55
 883 784 883 784 880 769 c 2,56,-1
 863 699 l 2,57,58
 860 684 860 684 845 684 c 2,59,-1
 590 684 l 1,60,61
 584 650 584 650 576 615 c 256,62,63
 568 580 568 580 558 545 c 0,64,65
 533 463 533 463 497 389 c 128,-1,66
 461 315 461 315 427 237 c 1,67,68
 477 218 477 218 526.5 199.5 c 128,-1,69
 576 181 576 181 629 167 c 0,70,71
 687 152 687 152 738 152 c 0,72,73
 780 152 780 152 819 162 c 0,74,75
 900 183 900 183 959 249 c 0,76,77
 978 270 978 270 986 292 c 128,-1,78
 994 314 994 314 1022 314 c 0,79,80
 1042 314 1042 314 1037 291 c 0,81,82
 1029 258 1029 258 1011 228.5 c 128,-1,83
 993 199 993 199 975 170 c 0,84,85
 916 75 916 75 822 17 c 1,86,87
 739 -31 739 -31 660 -31 c 0,88,89
 649 -31 649 -31 639 -30 c 0,90,91
 550 -23 550 -23 485 29 c 0,92,93
 469 42 469 42 422.5 76.5 c 128,-1,94
 376 111 376 111 359 129 c 1,95,96
 283 43 283 43 203 -10 c 1,97,98
 168 -32 168 -32 133 -32 c 0,99,100
 113 -32 113 -32 93 -25 c 0,101,102
 39 -5 39 -5 28 45 c 0,103,104
 26 54 26 54 26 63 c 0,105,106
 26 76 26 76 30 90 c 0,107,108
 36 114 36 114 51 143 c 0,109,110
 81 201 81 201 121 228 c 0,111,112
 178 266 178 266 218 266 c 2,113,-1
 224 266 l 1,114,115
 265 263 265 263 322 259 c 1,116,117
 340 309 340 309 350 357 c 2,118,-1
 357 387 l 1,119,120
 368 449 368 449 381 511 c 1,121,122
 394 585 394 585 407 684 c 1,123,-1
 222 684 l 2,124,125
 207 684 207 684 210 699 c 2,126,-1
 227 769 l 2,127,128
 230 784 230 784 245 784 c 2,11,-1
EndSplineSet
Validated: 1
EndChar

StartChar: currency
Encoding: 164 164 83
Width: 1024
Flags: W
LayerCount: 2
Fore
SplineSet
682 732 m 0,0,1
 575 732 575 732 482.5 656.5 c 128,-1,2
 390 581 390 581 366 475 c 256,3,4
 359 443 359 443 358 415 c 0,5,6
 358 347 358 347 407.5 283 c 128,-1,7
 457 219 457 219 564 219 c 0,8,9
 669 219 669 219 761.5 294 c 128,-1,10
 854 369 854 369 879 475 c 256,11,12
 886 506 886 506 886 535 c 0,13,14
 886 603 886 603 836.5 667.5 c 128,-1,15
 787 732 787 732 682 732 c 0,0,1
703 822 m 256,16,17
 819 822 819 822 896 751 c 1,18,-1
 1074 895 l 2,19,20
 1081 901 1081 901 1086 901 c 256,21,22
 1091 901 1091 901 1094 896 c 2,23,-1
 1130 850 l 2,24,25
 1132 846 1132 846 1132 843 c 0,26,27
 1132 836 1132 836 1125 830 c 2,28,-1
 946 685 l 1,29,30
 978 625 978 625 978 555 c 0,31,32
 978 517 978 517 969 476 c 0,33,34
 942 358 942 358 850 267 c 1,35,-1
 961 123 l 2,36,37
 965 117 965 117 964 112 c 256,38,39
 963 107 963 107 958 102 c 2,40,-1
 900 56 l 2,41,42
 894 51 894 51 889 51 c 256,43,44
 884 51 884 51 880 57 c 2,45,-1
 769 201 l 1,46,47
 660 131 660 131 543 131 c 256,48,49
 426 131 426 131 350 201 c 1,50,-1
 173 57 l 2,51,52
 166 51 166 51 161 51 c 256,53,54
 156 51 156 51 152 56 c 2,55,-1
 117 102 l 2,56,57
 114 106 114 106 114 110 c 0,58,59
 114 116 114 116 122 123 c 2,60,-1
 300 267 l 1,61,62
 269 326 269 326 268 396 c 0,63,64
 268 435 268 435 278 476 c 0,65,66
 305 592 305 592 396 685 c 1,67,-1
 286 830 l 2,68,69
 281 835 281 835 282 840 c 256,70,71
 283 845 283 845 289 850 c 2,72,-1
 346 896 l 2,73,74
 352 901 352 901 357 901 c 256,75,76
 362 901 362 901 367 895 c 2,77,-1
 477 751 l 1,78,79
 587 822 587 822 703 822 c 256,16,17
EndSplineSet
Validated: 1
EndChar

StartChar: yen
Encoding: 165 165 84
Width: 1366
Flags: W
LayerCount: 2
Fore
SplineSet
1254 500 m 1,0,-1
 1236 421 l 1,1,-1
 895 421 l 1,2,-1
 832 146 l 2,3,4
 828 130 828 130 828 118 c 0,5,6
 828 78 828 78 863 64 c 0,7,8
 904 48 904 48 903 27 c 0,9,10
 903 24 903 24 903 21 c 0,11,12
 898 0 898 0 877 0 c 2,13,-1
 538 0 l 2,14,15
 517 0 517 0 522 21 c 0,16,17
 528 46 528 46 582 64 c 128,-1,18
 636 82 636 82 651 146 c 2,19,-1
 714 421 l 1,20,-1
 412 421 l 1,21,-1
 430 500 l 1,22,-1
 732 500 l 1,23,-1
 749 573 l 2,24,25
 755 599 755 599 755 623 c 0,26,27
 755 633 755 633 754 642 c 1,28,-1
 463 642 l 1,29,-1
 481 721 l 1,30,-1
 729 721 l 1,31,-1
 530 1258 l 1,32,33
 515 1292 515 1292 469 1325 c 1,34,35
 445 1340 445 1340 422 1350 c 0,36,37
 398 1360 398 1360 384 1369 c 0,38,39
 374 1375 374 1375 370 1383 c 0,40,41
 368 1387 368 1387 368 1390 c 0,42,43
 368 1392 368 1392 369 1394 c 2,44,-1
 370 1398 l 1,45,46
 372 1404 372 1404 381 1404 c 2,47,-1
 720 1404 l 2,48,49
 730 1404 730 1404 738 1398 c 0,50,51
 747 1391 747 1391 751 1383 c 0,52,53
 753 1378 753 1378 752 1373 c 0,54,55
 750 1366 750 1366 742 1358 c 0,56,57
 733 1348 733 1348 720 1338 c 0,58,59
 708 1328 708 1328 703 1313 c 1,60,-1
 702 1308 l 2,61,62
 697 1286 697 1286 708 1263 c 1,63,-1
 921 729 l 1,64,-1
 1271 1124 l 2,65,66
 1310 1168 1310 1168 1323 1200 c 0,67,68
 1325 1205 1325 1205 1326 1210 c 0,69,70
 1328 1220 1328 1220 1329 1233 c 0,71,72
 1329 1257 1329 1257 1320 1288 c 2,73,-1
 1302 1356 l 1,74,-1
 1459 1418 l 2,75,76
 1467 1421 1467 1421 1473 1421 c 0,77,78
 1486 1421 1486 1421 1493 1405 c 1,79,-1
 1530 1304 l 2,80,81
 1534 1293 1534 1293 1534 1281 c 0,82,83
 1534 1273 1534 1273 1532 1266 c 0,84,85
 1524 1232 1524 1232 1482 1197 c 0,86,87
 1416 1141 1416 1141 1336 1054 c 2,88,-1
 1031 721 l 1,89,-1
 1305 721 l 1,90,-1
 1287 642 l 1,91,-1
 963 642 l 1,92,93
 951 620 951 620 940 590 c 0,94,95
 924 543 924 543 913 500 c 1,96,-1
 1254 500 l 1,0,-1
EndSplineSet
Validated: 1
EndChar

StartChar: brokenbar
Encoding: 166 166 85
Width: 1024
Flags: W
LayerCount: 2
Fore
SplineSet
684 1490 m 1,0,-1
 816 1490 l 1,1,-1
 660 813 l 1,2,-1
 528 813 l 1,3,-1
 684 1490 l 1,0,-1
289 -223 m 1,4,-1
 445 453 l 1,5,-1
 577 453 l 1,6,-1
 421 -223 l 1,7,-1
 289 -223 l 1,4,-1
EndSplineSet
Validated: 1
EndChar

StartChar: section
Encoding: 167 167 86
Width: 1024
Flags: W
LayerCount: 2
Fore
SplineSet
415 -365 m 0,0,1
 491 -359 491 -359 568 -325 c 128,-1,2
 645 -291 645 -291 702 -224 c 0,3,4
 761 -154 761 -154 784 -58 c 2,5,-1
 786 -47 l 1,6,7
 791 -22 791 -22 791 1 c 0,8,9
 791 70 791 70 744 111 c 0,10,11
 714 137 714 137 667 152 c 1,12,13
 575 179 575 179 476 190 c 128,-1,14
 377 201 377 201 296 246 c 0,15,16
 223 285 223 285 205 342.5 c 128,-1,17
 187 400 187 400 187 443 c 0,18,19
 187 482 187 482 197 524 c 0,20,21
 236 692 236 692 375 802 c 1,22,23
 308 864 308 864 308 965 c 0,24,25
 308 1005 308 1005 319 1051 c 0,26,27
 359 1224 359 1224 504 1335 c 0,28,29
 656 1450 656 1450 843 1450 c 0,30,31
 857 1450 857 1450 871 1449 c 0,32,33
 1075 1440 1075 1440 1198 1347 c 1,34,-1
 1130 1153 l 2,35,36
 1124 1135 1124 1135 1111 1135 c 0,37,38
 1108 1135 1108 1135 1105 1136 c 0,39,40
 1092 1137 1092 1137 1088 1162 c 1,41,42
 1068 1245 1068 1245 1005 1303.5 c 128,-1,43
 942 1362 942 1362 856 1366 c 1,44,-1
 841 1366 l 2,45,46
 756 1366 756 1366 683 1335 c 0,47,48
 636 1315 636 1315 602 1286 c 0,49,50
 571 1261 571 1261 545 1222 c 1,51,52
 521 1188 521 1188 506 1152 c 0,53,54
 493 1122 493 1122 487 1094 c 0,55,56
 481 1069 481 1069 481 1046 c 0,57,58
 481 1037 481 1037 482 1029 c 0,59,60
 487 967 487 967 526 933 c 1,61,62
 552 908 552 908 596 896 c 0,63,64
 619 890 619 890 650.5 884.5 c 128,-1,65
 682 879 682 879 717 873 c 0,66,67
 767 864 767 864 823.5 855 c 128,-1,68
 880 846 880 846 932 830 c 1,69,70
 1019 799 1019 799 1051 751 c 0,71,72
 1076 716 1076 716 1087 668 c 1,73,74
 1091 644 1091 644 1092 618 c 0,75,76
 1092 578 1092 578 1081 534 c 0,77,78
 1043 371 1043 371 906 252 c 1,79,80
 919 240 919 240 930 225 c 0,81,82
 955 187 955 187 966 141 c 1,83,84
 970 117 970 117 970 91 c 0,85,86
 970 51 970 51 960 7 c 0,87,88
 915 -188 915 -188 723 -321 c 1,89,90
 626 -387 626 -387 516 -422 c 1,91,92
 434 -447 434 -447 335 -453 c 0,93,94
 316 -454 316 -454 297 -454 c 0,95,96
 167 -454 167 -454 57 -417 c 1,97,-1
 26 -172 l 2,98,99
 26 -170 26 -170 26 -167 c 0,100,101
 26 -165 26 -165 26 -163 c 0,102,103
 28 -153 28 -153 38 -144 c 1,104,105
 47 -133 47 -133 56 -133 c 2,106,-1
 59 -133 l 1,107,108
 69 -134 69 -134 76 -159 c 1,109,110
 106 -287 106 -287 187 -330 c 1,111,112
 252 -367 252 -367 365 -367 c 0,113,114
 390 -367 390 -367 415 -365 c 0,0,1
821 299 m 1,115,-1
 823 301 l 1,116,117
 882 370 882 370 905 468 c 2,118,-1
 908 479 l 1,119,120
 913 505 913 505 913 528 c 0,121,122
 913 597 913 597 865 638 c 0,123,124
 832 665 832 665 789 679 c 1,125,126
 711 701 711 701 627.5 711.5 c 128,-1,127
 544 722 544 722 469 749 c 1,128,129
 444 727 444 727 424 696 c 1,130,131
 400 663 400 663 384 625 c 0,132,133
 371 595 371 595 365 567 c 0,134,135
 359 542 359 542 359 519 c 0,136,137
 359 510 359 510 360 502 c 0,138,139
 365 439 365 439 405 407 c 1,140,141
 430 381 430 381 474 370 c 0,142,143
 508 361 508 361 595 346 c 0,144,145
 645 337 645 337 702 328 c 128,-1,146
 759 319 759 319 810 303 c 0,147,148
 813 302 813 302 815.5 300.5 c 128,-1,149
 818 299 818 299 821 299 c 1,115,-1
EndSplineSet
Validated: 1
EndChar

StartChar: copyright
Encoding: 169 169 87
Width: 1532
Flags: W
LayerCount: 2
Fore
SplineSet
1102 1452 m 256,0,1
 1411 1452 1411 1452 1555 1266.5 c 128,-1,2
 1699 1081 1699 1081 1699 883 c 0,3,4
 1699 800 1699 800 1677 708 c 0,5,6
 1606 399 1606 399 1337 181.5 c 128,-1,7
 1068 -36 1068 -36 759 -36 c 256,8,9
 450 -36 450 -36 306 149 c 128,-1,10
 162 334 162 334 162 532 c 0,11,12
 162 616 162 616 183 708 c 0,13,14
 254 1016 254 1016 523.5 1234 c 128,-1,15
 793 1452 793 1452 1102 1452 c 256,0,1
1084 1372 m 256,16,17
 808 1372 808 1372 568 1177.5 c 128,-1,18
 328 983 328 983 264 708 c 0,19,20
 245 626 245 626 245 551 c 0,21,22
 245 374 245 374 373 209 c 128,-1,23
 501 44 501 44 777 44 c 256,24,25
 1053 44 1053 44 1293.5 238 c 128,-1,26
 1534 432 1534 432 1597 708 c 0,27,28
 1616 790 1616 790 1616 864 c 0,29,30
 1616 1041 1616 1041 1488 1206.5 c 128,-1,31
 1360 1372 1360 1372 1084 1372 c 256,16,17
1085 1137 m 2,32,33
 1225 1137 1225 1137 1326 1062 c 1,34,-1
 1277 916 l 2,35,36
 1272 905 1272 905 1265 905 c 0,37,38
 1264 905 1264 905 1263 905 c 0,39,40
 1253 906 1253 906 1250 922 c 0,41,42
 1233 997 1233 997 1185 1030 c 128,-1,43
 1137 1063 1137 1063 1057 1063 c 2,44,-1
 1037 1063 l 1,45,46
 941 1058 941 1058 883 1012 c 0,47,48
 771 925 771 925 733 762 c 0,49,50
 727 737 727 737 724 709 c 0,51,52
 717 666 717 666 717 629 c 0,53,54
 717 554 717 554 744 499 c 0,55,56
 799 392 799 392 895 377 c 1,57,58
 912 375 912 375 929 375 c 0,59,60
 1014 375 1014 375 1085.5 413.5 c 128,-1,61
 1157 452 1157 452 1171.5 452 c 128,-1,62
 1186 452 1186 452 1190 451 c 1,63,64
 1191 447 1191 447 1189 437.5 c 128,-1,65
 1187 428 1187 428 1170 407 c 128,-1,66
 1153 386 1153 386 1134 371 c 1,67,68
 1021 294 1021 294 861 294 c 128,-1,69
 701 294 701 294 611 382 c 1,70,71
 541 456 541 456 541 576 c 0,72,73
 541 632 541 632 556 699 c 0,74,75
 567 746 567 746 586 799 c 1,76,77
 667 989 667 989 849 1081 c 0,78,79
 950 1132 950 1132 1067 1137 c 1,80,-1
 1085 1137 l 2,32,33
EndSplineSet
Validated: 1
EndChar

StartChar: logicalnot
Encoding: 172 172 88
Width: 1100
Flags: W
LayerCount: 2
Fore
SplineSet
1113 341 m 1,0,-1
 996 341 l 1,1,-1
 1096 775 l 1,2,-1
 245 775 l 1,3,-1
 271 887 l 1,4,-1
 1239 887 l 1,5,-1
 1113 341 l 1,0,-1
EndSplineSet
Validated: 1
EndChar

StartChar: uni00AD
Encoding: 173 173 89
Width: 680
Flags: W
LayerCount: 2
Fore
SplineSet
255 409 m 2,0,1
 221 409 221 409 221 430 c 0,2,3
 221 433 221 433 222 437 c 2,4,-1
 241 520 l 2,5,6
 248 549 248 549 289 549 c 2,7,-1
 645 549 l 2,8,9
 680 549 680 549 680 528 c 0,10,11
 680 525 680 525 679 520 c 2,12,-1
 660 437 l 2,13,14
 654 409 654 409 613 409 c 2,15,-1
 255 409 l 2,0,1
EndSplineSet
Validated: 1
EndChar

StartChar: macron
Encoding: 175 175 90
Width: 1000
Flags: W
LayerCount: 2
Fore
SplineSet
511 1347 m 2,0,-1
 1111 1347 l 2,1,2
 1121 1347 1121 1347 1119 1337 c 2,3,-1
 1099 1251 l 2,4,5
 1096 1240 1096 1240 1086 1240 c 2,6,-1
 486 1240 l 2,7,8
 478 1240 478 1240 478 1247 c 0,9,10
 478 1249 478 1249 479 1251 c 2,11,-1
 499 1337 l 2,12,13
 501 1347 501 1347 511 1347 c 2,0,-1
EndSplineSet
Validated: 1
EndChar

StartChar: degree
Encoding: 176 176 91
Width: 819
Flags: W
LayerCount: 2
Fore
SplineSet
726 1387 m 0,0,1
 854 1387 854 1387 913.5 1310 c 128,-1,2
 973 1233 973 1233 973 1151 c 0,3,4
 973 1116 973 1116 964 1078 c 256,5,6
 934 950 934 950 823 859.5 c 128,-1,7
 712 769 712 769 584 769 c 0,8,9
 455 769 455 769 396 846 c 128,-1,10
 337 923 337 923 337 1005 c 0,11,12
 337 1040 337 1040 346 1078 c 256,13,14
 376 1206 376 1206 486.5 1296.5 c 128,-1,15
 597 1387 597 1387 726 1387 c 0,0,1
707 1305 m 0,16,17
 613 1305 613 1305 531.5 1238 c 128,-1,18
 450 1171 450 1171 429 1078 c 0,19,20
 423 1050 423 1050 422 1024 c 0,21,22
 422 964 422 964 465.5 908 c 128,-1,23
 509 852 509 852 603 852 c 0,24,25
 696 852 696 852 777.5 918 c 128,-1,26
 859 984 859 984 881 1078 c 0,27,28
 887 1106 887 1106 887 1131 c 0,29,30
 887 1191 887 1191 843.5 1248 c 128,-1,31
 800 1305 800 1305 707 1305 c 0,16,17
EndSplineSet
Validated: 1
EndChar

StartChar: uni00B5
Encoding: 181 181 92
Width: 1325
Flags: W
LayerCount: 2
Fore
SplineSet
1064 752 m 2,0,1
 1067 767 1067 767 1067 779 c 0,2,3
 1067 819 1067 819 1028.5 834 c 128,-1,4
 990 849 990 849 990 871 c 0,5,6
 990 874 990 874 990 877 c 0,7,8
 995 898 995 898 1016 898 c 0,9,10
 1071 900 1071 900 1135 915 c 1,11,12
 1207 930 1207 930 1291 958 c 1,13,-1
 1103 142 l 2,14,15
 1099 126 1099 126 1099 114 c 0,16,17
 1099 73 1099 73 1138.5 60.5 c 128,-1,18
 1178 48 1178 48 1178 26 c 0,19,20
 1178 23 1178 23 1178 21 c 0,21,22
 1173 0 1173 0 1152 0 c 2,23,-1
 889 0 l 1,24,-1
 909 87 l 1,25,-1
 683 6 l 2,26,27
 618 -17 618 -17 559 -17 c 0,28,29
 543 -17 543 -17 528 -15 c 0,30,31
 455 -7 455 -7 406 24 c 0,32,33
 328 73 328 73 307 139 c 1,34,35
 295 85 295 85 285 22 c 2,36,-1
 204 -532 l 1,37,-1
 204 -534 l 2,38,39
 200 -553 200 -553 179 -553 c 2,40,-1
 87 -553 l 2,41,42
 71 -553 71 -553 71 -539 c 0,43,44
 71 -536 71 -536 72 -532 c 2,45,-1
 382 811 l 1,46,47
 364 835 364 835 337.5 847 c 128,-1,48
 311 859 311 859 315 877 c 0,49,50
 320 898 320 898 341 898 c 1,51,52
 401 901 401 901 461 916 c 1,53,54
 499 923 499 923 534.5 934.5 c 128,-1,55
 570 946 570 946 609 958 c 1,56,-1
 486 424 l 2,57,58
 469 350 469 350 469 290 c 0,59,60
 469 206 469 206 502 149 c 0,61,62
 550 67 550 67 648 67 c 0,63,64
 699 67 699 67 765 89 c 2,65,-1
 923 143 l 1,66,-1
 1064 752 l 2,0,1
EndSplineSet
Validated: 1
EndChar

StartChar: paragraph
Encoding: 182 182 93
Width: 1266
Flags: W
LayerCount: 2
Fore
SplineSet
986 1337 m 1,0,-1
 623 -234 l 1,1,-1
 883 -234 l 1,2,-1
 1246 1337 l 1,3,-1
 986 1337 l 1,0,-1
713 797 m 1,4,5
 661 781 661 781 613 781 c 0,6,7
 489 781 489 781 433.5 858.5 c 128,-1,8
 378 936 378 936 378 1016 c 0,9,10
 378 1053 378 1053 387 1093 c 0,11,12
 417 1221 417 1221 525 1312 c 128,-1,13
 633 1403 633 1403 756 1404 c 1,14,-1
 1505 1404 l 2,15,16
 1526 1404 1526 1404 1526 1387 c 0,17,18
 1526 1383 1526 1383 1525 1379 c 0,19,20
 1518 1348 1518 1348 1452 1326 c 128,-1,21
 1386 1304 1386 1304 1368 1226 c 2,22,-1
 1057 -122 l 2,23,24
 1053 -141 1053 -141 1052 -157 c 0,25,26
 1052 -206 1052 -206 1098 -224 c 128,-1,27
 1144 -242 1144 -242 1144 -268 c 0,28,29
 1144 -271 1144 -271 1144 -275 c 0,30,31
 1138 -300 1138 -300 1112 -300 c 2,32,-1
 364 -300 l 2,33,34
 343 -300 343 -300 342 -283 c 0,35,36
 342 -279 342 -279 344 -275 c 0,37,38
 351 -244 351 -244 417 -222 c 128,-1,39
 483 -200 483 -200 501 -122 c 2,40,-1
 713 797 l 1,4,5
EndSplineSet
Validated: 1
EndChar

StartChar: periodcentered
Encoding: 183 183 94
Width: 512
Flags: W
LayerCount: 2
Fore
SplineSet
370 496 m 256,0,1
 319 496 319 496 295.5 526 c 128,-1,2
 272 556 272 556 272 589 c 0,3,4
 272 603 272 603 279.5 635.5 c 128,-1,5
 287 668 287 668 331 704 c 128,-1,6
 375 740 375 740 426 740 c 256,7,8
 477 740 477 740 500 709.5 c 128,-1,9
 523 679 523 679 523 647 c 0,10,11
 523 633 523 633 515.5 600 c 128,-1,12
 508 567 508 567 464.5 531.5 c 128,-1,13
 421 496 421 496 370 496 c 256,0,1
EndSplineSet
Validated: 1
EndChar

StartChar: AE
Encoding: 198 198 95
Width: 1933
Flags: W
LayerCount: 2
Fore
SplineSet
1111 94 m 1,0,-1
 1539 94 l 2,1,2
 1631 94 1631 94 1712 165.5 c 128,-1,3
 1793 237 1793 237 1835 277 c 0,4,5
 1858 299 1858 299 1868 299 c 0,6,7
 1889 299 1889 299 1884 278 c 0,8,9
 1881 265 1881 265 1877 257 c 2,10,-1
 1745 0 l 1,11,-1
 826 0 l 2,12,13
 808 0 808 0 813 21 c 0,14,15
 819 46 819 46 873 63.5 c 128,-1,16
 927 81 927 81 942 146 c 2,17,-1
 1021 489 l 1,18,-1
 516 489 l 1,19,20
 448 403 448 403 380 317.5 c 128,-1,21
 312 232 312 232 244 147 c 0,22,23
 231 131 231 131 221 111 c 0,24,25
 214 100 214 100 211 88 c 0,26,27
 210 83 210 83 210 78 c 0,28,29
 209 65 209 65 212 56.5 c 128,-1,30
 215 48 215 48 215 39 c 0,31,32
 215 36 215 36 215 33 c 0,33,34
 215 31 215 31 212 28 c 0,35,36
 211 26 211 26 209.5 24 c 128,-1,37
 208 22 208 22 208 21 c 0,38,39
 192 0 192 0 178 0 c 2,40,-1
 -79 0 l 2,41,42
 -90 0 -90 0 -92 6 c 1,43,-1
 -90 11 l 2,44,45
 -89 15 -89 15 -85 21 c 1,46,47
 -74 32 -74 32 -42 47 c 1,48,49
 -23 54 -23 54 -3 62.5 c 128,-1,50
 17 71 17 71 39 83 c 0,51,52
 85 109 85 109 117 146 c 1,53,-1
 1092 1336 l 1,54,55
 1055 1345 1055 1345 1025.5 1355 c 128,-1,56
 996 1365 996 1365 1000 1383 c 0,57,58
 1005 1404 1005 1404 1026 1404 c 2,59,-1
 2081 1404 l 1,60,-1
 2022 1147 l 2,61,62
 2017 1126 2017 1126 1996 1126 c 0,63,64
 1986 1126 1986 1126 1968 1166 c 1,65,66
 1934 1235 1934 1235 1906.5 1273 c 128,-1,67
 1879 1311 1879 1311 1820 1311 c 2,68,-1
 1392 1311 l 1,69,-1
 1266 768 l 1,70,-1
 1495 768 l 2,71,72
 1559 768 1559 768 1591 819.5 c 128,-1,73
 1623 871 1623 871 1649 871 c 0,74,75
 1669 871 1669 871 1664 850 c 2,76,-1
 1606 596 l 2,77,78
 1601 575 1601 575 1581 575 c 0,79,80
 1555 575 1555 575 1543.5 626 c 128,-1,81
 1532 677 1532 677 1468 677 c 2,82,-1
 1245 677 l 1,83,-1
 1111 94 l 1,0,-1
1043 570 m 1,84,-1
 1215 1325 l 1,85,-1
 1186 1325 l 1,86,87
 1065 1173 1065 1173 883 947.5 c 128,-1,88
 701 722 701 722 581 570 c 1,89,-1
 1043 570 l 1,84,-1
EndSplineSet
Validated: 1
EndChar

StartChar: Eth
Encoding: 208 208 96
Width: 1585
Flags: W
LayerCount: 2
Fore
SplineSet
539 1407 m 2,0,-1
 853 1413 l 1,1,2
 867 1413 867 1413 881 1413 c 0,3,4
 1021 1413 1021 1413 1173 1404 c 0,5,6
 1340 1394 1340 1394 1468 1332 c 128,-1,7
 1596 1270 1596 1270 1658 1144 c 0,8,9
 1697 1064 1697 1064 1697 947 c 0,10,11
 1697 850 1697 850 1670 727 c 1,12,13
 1632 561 1632 561 1530 416 c 0,14,15
 1429 271 1429 271 1274 169 c 0,16,17
 1010 -3 1010 -3 687 -7 c 1,18,-1
 607 -7 l 2,19,20
 549 -7 549 -7 499 -6 c 1,21,-1
 382 -6 l 2,22,23
 299 -6 299 -6 256 -3 c 1,24,-1
 232 -3 l 2,25,26
 192 -3 192 -3 127 -9 c 1,27,28
 126 -9 126 -9 125 -9 c 0,29,30
 110 -9 110 -9 110 5 c 0,31,32
 110 9 110 9 111 14 c 0,33,34
 117 38 117 38 171 56 c 128,-1,35
 225 74 225 74 240 139 c 2,36,-1
 366 685 l 1,37,-1
 204 685 l 2,38,39
 183 685 183 685 188 704 c 2,40,-1
 197 743 l 2,41,42
 202 763 202 763 222 763 c 2,43,-1
 384 763 l 1,44,-1
 499 1262 l 2,45,46
 503 1278 503 1278 503 1290 c 0,47,48
 503 1330 503 1330 468 1344 c 0,49,50
 427 1360 427 1360 428 1381 c 0,51,52
 428 1384 428 1384 428 1387 c 0,53,54
 433 1408 433 1408 454 1408 c 0,55,56
 496 1407 496 1407 539 1407 c 2,0,-1
422 100 m 1,57,58
 542 76 542 76 657 76 c 0,59,60
 700 76 700 76 742 79 c 0,61,62
 1099 109 1099 109 1304 380 c 0,63,64
 1410 520 1410 520 1460 736 c 2,65,-1
 1468 769 l 1,66,67
 1484 856 1484 856 1484 928 c 0,68,69
 1484 1119 1484 1119 1372 1216 c 1,70,71
 1242 1334 1242 1334 985 1334 c 0,72,73
 972 1334 972 1334 959 1334 c 0,74,75
 836 1334 836 1334 702 1313 c 1,76,-1
 575 763 l 1,77,-1
 892 763 l 2,78,79
 912 763 912 763 908 743 c 2,80,-1
 899 704 l 2,81,82
 895 685 895 685 874 685 c 2,83,-1
 557 685 l 1,84,-1
 422 100 l 1,57,58
EndSplineSet
Validated: 1
EndChar

StartChar: Oslash
Encoding: 216 216 97
Width: 1610
Flags: W
LayerCount: 2
Fore
SplineSet
1142 1446 m 1,0,-1
 1152 1446 l 2,1,2
 1475 1446 1475 1446 1651 1248 c 0,3,4
 1653 1247 1653 1247 1653 1245 c 1,5,-1
 1891 1430 l 2,6,7
 1898 1435 1898 1435 1904 1435 c 0,8,9
 1911 1435 1911 1435 1917 1429 c 1,10,-1
 1943 1391 l 1,11,12
 1947 1386 1947 1386 1947 1381 c 0,13,14
 1947 1373 1947 1373 1937 1365 c 2,15,-1
 1701 1181 l 1,16,17
 1766 1074 1766 1074 1766 934 c 0,18,19
 1766 849 1766 849 1745 760 c 0,20,21
 1739 733 1739 733 1731 705 c 0,22,23
 1632 362 1632 362 1370 172 c 128,-1,24
 1108 -18 1108 -18 798 -35 c 0,25,26
 775 -36 775 -36 752 -36 c 0,27,28
 500 -36 500 -36 336 122 c 1,29,-1
 144 -27 l 2,30,31
 137 -33 137 -33 129 -33 c 0,32,33
 123 -33 123 -33 118 -26 c 2,34,-1
 91 10 l 2,35,36
 88 14 88 14 88 19 c 0,37,38
 88 28 88 28 97 36 c 2,39,-1
 284 181 l 1,40,41
 181 312 181 312 181 493 c 0,42,43
 181 576 181 576 202 669 c 0,44,45
 206 687 206 687 212 705 c 0,46,47
 304 1046 304 1046 557 1244 c 0,48,49
 811 1442 811 1442 1142 1446 c 1,0,-1
1122 1358 m 0,50,51
 815 1356 815 1356 648 1164 c 0,52,53
 482 972 482 972 419 702 c 0,54,55
 396 603 396 603 396 514 c 0,56,57
 396 397 396 397 436 299 c 1,58,-1
 1504 1129 l 1,59,60
 1500 1142 1500 1142 1494 1154 c 0,61,62
 1414 1358 1414 1358 1122 1358 c 0,50,51
473 228 m 1,63,64
 582 48 582 48 819 46 c 1,65,-1
 824 46 l 2,66,67
 1063 46 1063 46 1264 250 c 0,68,69
 1463 452 1463 452 1519 696 c 2,70,-1
 1520 702 l 1,71,72
 1543 804 1543 804 1543 898 c 0,73,74
 1543 975 1543 975 1528 1047 c 1,75,-1
 473 228 l 1,63,64
EndSplineSet
Validated: 1
EndChar

StartChar: Thorn
Encoding: 222 222 98
Width: 1151
Flags: W
LayerCount: 2
Fore
SplineSet
641 1257 m 2,0,-1
 602 1088 l 1,1,-1
 912 1088 l 2,2,3
 1015 1088 1015 1088 1118.5 1051.5 c 128,-1,4
 1222 1015 1222 1015 1259 910 c 1,5,6
 1273 867 1273 867 1274 815 c 0,7,8
 1274 765 1274 765 1260 706 c 1,9,10
 1232 593 1232 593 1148 503 c 0,11,12
 1076 426 1076 426 968 388.5 c 128,-1,13
 860 351 860 351 778 351 c 2,14,-1
 432 351 l 1,15,-1
 385 146 l 2,16,17
 381 130 381 130 381 117 c 0,18,19
 381 77 381 77 421.5 61.5 c 128,-1,20
 462 46 462 46 456 21 c 0,21,22
 451 0 451 0 430 0 c 2,23,-1
 91 0 l 2,24,25
 75 0 75 0 75 14 c 0,26,27
 75 17 75 17 76 21 c 0,28,29
 82 46 82 46 136 63.5 c 128,-1,30
 190 81 190 81 205 146 c 2,31,-1
 461 1257 l 2,32,33
 465 1273 465 1273 465 1285 c 0,34,35
 465 1325 465 1325 427.5 1340 c 128,-1,36
 390 1355 390 1355 390 1377 c 0,37,38
 390 1380 390 1380 390 1383 c 0,39,40
 395 1404 395 1404 416 1404 c 2,41,-1
 754 1404 l 2,42,43
 775 1404 775 1404 770 1383 c 0,44,45
 764 1357 764 1357 710 1339 c 128,-1,46
 656 1321 656 1321 641 1257 c 2,0,-1
448 421 m 1,47,-1
 659 421 l 2,48,49
 728 421 728 421 803.5 441 c 128,-1,50
 879 461 879 461 942 512 c 1,51,52
 1040 589 1040 589 1069 716 c 1,53,54
 1077 753 1077 753 1077 785 c 0,55,56
 1077 863 1077 863 1033 920 c 1,57,58
 964 1005 964 1005 814 1005 c 2,59,-1
 583 1005 l 1,60,-1
 448 421 l 1,47,-1
EndSplineSet
Validated: 1
EndChar

StartChar: germandbls
Encoding: 223 223 99
Width: 1269
Flags: W
LayerCount: 2
Fore
SplineSet
727 1278 m 0,0,1
 681 1232 681 1232 661 1163 c 128,-1,2
 641 1094 641 1094 625 1027 c 2,3,-1
 422 146 l 2,4,5
 418 130 418 130 418 117 c 0,6,7
 418 77 418 77 458.5 61.5 c 128,-1,8
 499 46 499 46 493 21 c 0,9,10
 488 0 488 0 467 0 c 2,11,-1
 128 0 l 2,12,13
 111 0 111 0 111 14 c 0,14,15
 111 17 111 17 112 21 c 0,16,17
 118 46 118 46 172 63.5 c 128,-1,18
 226 81 226 81 241 146 c 2,19,-1
 444 1027 l 2,20,21
 465 1117 465 1117 507 1202.5 c 128,-1,22
 549 1288 549 1288 620 1351 c 0,23,24
 748 1466 748 1466 893 1466 c 0,25,26
 925 1466 925 1466 959 1460 c 0,27,28
 1126 1430 1126 1430 1172 1265 c 0,29,30
 1181 1229 1181 1229 1181 1195 c 0,31,32
 1181 1167 1181 1167 1175 1140 c 0,33,34
 1153 1046 1153 1046 1055 962 c 0,35,36
 988 904 988 904 914 859.5 c 128,-1,37
 840 815 840 815 811 751 c 0,38,39
 801 729 801 729 797 711 c 0,40,41
 794 697 794 697 794 684 c 0,42,43
 794 642 794 642 832 621 c 1,44,45
 895 585 895 585 984 564 c 0,46,47
 1106 535 1106 535 1190.5 491.5 c 128,-1,48
 1275 448 1275 448 1275 345 c 0,49,50
 1275 316 1275 316 1269 281 c 1,51,-1
 1266 269 l 2,52,53
 1249 196 1249 196 1175 123 c 0,54,55
 1095 43 1095 43 968 2 c 1,56,57
 889 -22 889 -22 800 -25 c 1,58,-1
 773 -25 l 2,59,60
 651 -25 651 -25 546 7 c 1,61,-1
 516 227 l 1,62,-1
 523 247 l 2,63,64
 527 262 527 262 544 262 c 2,65,-1
 546 262 l 1,66,67
 556 260 556 260 562 238 c 0,68,69
 585 139 585 139 642 97.5 c 128,-1,70
 699 56 699 56 800 53 c 1,71,-1
 812 53 l 2,72,73
 884 53 884 53 977 86 c 0,74,75
 1077 122 1077 122 1102 216 c 1,76,-1
 1103 222 l 2,77,78
 1108 244 1108 244 1108 263 c 0,79,80
 1108 336 1108 336 1033 359 c 0,81,82
 934 389 934 389 859 412 c 1,83,84
 766 439 766 439 693 498 c 0,85,86
 640 540 640 540 640 614 c 0,87,88
 640 641 640 641 647 672 c 2,89,-1
 648 675 l 2,90,91
 671 774 671 774 748.5 824.5 c 128,-1,92
 826 875 826 875 903 934 c 0,93,94
 982 994 982 994 1017 1093 c 0,95,96
 1024 1113 1024 1113 1029 1133 c 0,97,98
 1036 1162 1036 1162 1035 1188 c 0,99,100
 1035 1227 1035 1227 1020 1261 c 1,101,102
 988 1326 988 1326 891 1336 c 0,103,104
 878 1337 878 1337 867 1337 c 0,105,106
 785 1337 785 1337 727 1278 c 0,0,1
EndSplineSet
Validated: 1
EndChar

StartChar: ae
Encoding: 230 230 100
Width: 1762
Flags: W
LayerCount: 2
Fore
SplineSet
1496 960 m 2,0,1
 1693 960 1693 960 1757 867 c 128,-1,2
 1821 774 1821 774 1821 671 c 0,3,4
 1821 615 1821 615 1806 551 c 0,5,6
 1797 511 1797 511 1790.5 494.5 c 128,-1,7
 1784 478 1784 478 1746 478 c 2,8,-1
 1108 478 l 1,9,10
 1096 420 1096 420 1096 371 c 0,11,12
 1096 367 1096 367 1096 363 c 0,13,14
 1096 276 1096 276 1140 189.5 c 128,-1,15
 1184 103 1184 103 1297 79 c 0,16,17
 1330 71 1330 71 1366 71 c 0,18,19
 1462 71 1462 71 1552 114 c 128,-1,20
 1642 157 1642 157 1654 157 c 128,-1,21
 1666 157 1666 157 1668 154.5 c 128,-1,22
 1670 152 1670 152 1668 142.5 c 128,-1,23
 1666 133 1666 133 1645 105.5 c 128,-1,24
 1624 78 1624 78 1604 63 c 0,25,26
 1473 -31 1473 -31 1287 -31 c 1,27,28
 1040 -29 1040 -29 940 123 c 1,29,-1
 519 -14 l 2,30,31
 484 -25 484 -25 463 -25 c 2,32,-1
 422 -25 l 1,33,34
 282 -18 282 -18 204 91 c 256,35,36
 144 175 144 175 144 290 c 0,37,38
 144 323 144 323 149 359 c 0,39,40
 155 401 155 401 165.5 446.5 c 128,-1,41
 176 492 176 492 201 559 c 128,-1,42
 226 626 226 626 280.5 690.5 c 128,-1,43
 335 755 335 755 385 786.5 c 128,-1,44
 435 818 435 818 465 830 c 1,45,46
 552 860 552 860 639 890 c 128,-1,47
 726 920 726 920 779.5 938 c 128,-1,48
 833 956 833 956 848 956 c 2,49,-1
 853 956 l 1,50,51
 916 953 916 953 1000 924 c 1,52,53
 1101 883 1101 883 1159 852 c 1,54,55
 1303 958 1303 958 1492 960 c 1,56,-1
 1496 960 l 2,0,1
768 874 m 2,57,58
 748 874 748 874 717.5 863.5 c 128,-1,59
 687 853 687 853 648.5 839.5 c 128,-1,60
 610 826 610 826 576.5 814.5 c 128,-1,61
 543 803 543 803 525 787 c 0,62,63
 448 721 448 721 409.5 638.5 c 128,-1,64
 371 556 371 556 360.5 510 c 128,-1,65
 350 464 350 464 347 441 c 0,66,67
 340 394 340 394 340 353 c 0,68,69
 340 268 340 268 378 191 c 128,-1,70
 416 114 416 114 511 86 c 0,71,72
 546 75 546 75 571.5 75 c 128,-1,73
 597 75 597 75 615 76.5 c 128,-1,74
 633 78 633 78 661.5 87.5 c 128,-1,75
 690 97 690 97 743.5 115.5 c 128,-1,76
 797 134 797 134 831 146 c 1,77,-1
 975 769 l 1,78,79
 943 807 943 807 883 839.5 c 128,-1,80
 823 872 823 872 772 874 c 1,81,-1
 768 874 l 2,57,58
1653 551 m 1,82,83
 1666 609 1666 609 1666 661 c 0,84,85
 1666 720 1666 720 1642 796 c 128,-1,86
 1618 872 1618 872 1477 872 c 2,87,-1
 1466 872 l 1,88,89
 1324 868 1324 868 1240.5 770 c 128,-1,90
 1157 672 1157 672 1125 551 c 1,91,-1
 1653 551 l 1,82,83
EndSplineSet
Validated: 1
EndChar

StartChar: eth
Encoding: 240 240 101
Width: 1105
Flags: W
LayerCount: 2
Fore
SplineSet
768 893 m 1,0,-1
 756 893 l 2,1,2
 639 893 639 893 529 778 c 0,3,4
 413 656 413 656 371 478 c 2,5,-1
 370 474 l 2,6,7
 353 400 353 400 353 334 c 0,8,9
 353 242 353 242 387 167 c 0,10,11
 445 36 445 36 568 30 c 1,12,-1
 581 30 l 2,13,14
 697 30 697 30 807 145 c 0,15,16
 923 266 923 266 966 446 c 0,17,18
 983 520 983 520 983 586 c 0,19,20
 983 679 983 679 937.5 783 c 128,-1,21
 892 887 892 887 768 893 c 1,0,-1
552 1077 m 1,22,23
 546 1091 546 1091 540 1105 c 128,-1,24
 534 1119 534 1119 529 1134 c 1,25,26
 680 1188 680 1188 830 1265 c 1,27,28
 758 1346 758 1346 648 1414 c 0,29,30
 631 1425 631 1425 633 1435 c 0,31,32
 634 1438 634 1438 637 1441 c 0,33,34
 648 1454 648 1454 665 1476 c 0,35,36
 679 1494 679 1494 696 1494 c 0,37,38
 705 1494 705 1494 715 1489 c 1,39,40
 844 1400 844 1400 928 1317 c 1,41,42
 1076 1402 1076 1402 1207 1499 c 1,43,44
 1216 1486 1216 1486 1224.5 1473 c 128,-1,45
 1233 1460 1233 1460 1242 1448 c 1,46,47
 1115 1347 1115 1347 976 1267 c 1,48,49
 1110 1113 1110 1113 1148.5 967.5 c 128,-1,50
 1187 822 1187 822 1187 714 c 0,51,52
 1187 596 1187 596 1157 461 c 1,53,-1
 1156 455 l 2,54,55
 1109 251 1109 251 935 110 c 0,56,57
 759 -34 759 -34 551 -40 c 1,58,-1
 538 -40 l 2,59,60
 343 -40 343 -40 236 105 c 0,61,62
 160 208 160 208 160 337 c 0,63,64
 160 396 160 396 174 458 c 1,65,-1
 174 461 l 1,66,67
 227 685 227 685 427 837 c 0,68,69
 450 855 450 855 490.5 868 c 128,-1,70
 531 881 531 881 612 910 c 1,71,72
 660 926 660 926 717 945 c 0,73,74
 771 963 771 963 802 963 c 2,75,-1
 805 963 l 1,76,77
 919 958 919 958 1006 901 c 1,78,79
 979 992 979 992 948 1068 c 128,-1,80
 917 1144 917 1144 872 1210 c 1,81,82
 722 1133 722 1133 552 1077 c 1,22,23
EndSplineSet
Validated: 1
EndChar

StartChar: oslash
Encoding: 248 248 102
Width: 1107
Flags: W
LayerCount: 2
Fore
SplineSet
749 889 m 2,0,1
 631 888 631 888 518 772 c 128,-1,2
 405 656 405 656 365 481 c 0,3,4
 349 410 349 410 349 346 c 0,5,6
 349 302 349 302 356 262 c 1,7,-1
 949 737 l 1,8,9
 946 746 946 746 942 754 c 0,10,11
 884 882 884 882 761 889 c 1,12,-1
 749 889 l 2,0,1
1151 459 m 2,13,14
 1104 259 1104 259 930 120 c 128,-1,15
 756 -19 756 -19 547 -25 c 1,16,-1
 531 -25 l 2,17,18
 358 -25 358 -25 253 92 c 1,19,-1
 90 -38 l 2,20,21
 85 -42 85 -42 81 -42 c 128,-1,22
 77 -42 77 -42 74 -38 c 2,23,-1
 45 0 l 2,24,25
 43 3 43 3 43 6 c 0,26,27
 43 13 43 13 51 18 c 1,28,-1
 212 147 l 1,29,30
 155 238 155 238 155 348 c 0,31,32
 155 402 155 402 169 462 c 2,33,-1
 169 465 l 1,34,35
 221 684 221 684 419 833 c 0,36,37
 442 851 442 851 483 864 c 0,38,39
 524 876 524 876 587 898 c 128,-1,40
 650 920 650 920 707 938 c 0,41,42
 763 956 763 956 795 956 c 2,43,-1
 798 956 l 1,44,45
 971 949 971 949 1071 834 c 1,46,-1
 1240 969 l 2,47,48
 1243 972 1243 972 1248 972 c 0,49,50
 1254 972 1254 972 1257 969 c 2,51,-1
 1285 930 l 2,52,53
 1288 926 1288 926 1288 923 c 128,-1,54
 1288 920 1288 920 1281 914 c 2,55,-1
 1111 778 l 1,56,57
 1165 687 1165 687 1165 576 c 0,58,59
 1165 523 1165 523 1152 465 c 1,60,-1
 1151 459 l 2,13,14
377 191 m 1,61,62
 380 184 380 184 383 178 c 0,63,64
 441 50 441 50 564 43 c 1,65,-1
 578 43 l 2,66,67
 694 43 694 43 807 159 c 128,-1,68
 920 275 920 275 960 450 c 0,69,70
 976 518 976 518 976 579 c 0,71,72
 976 583 976 583 976 586 c 0,73,74
 976 627 976 627 970 665 c 1,75,-1
 377 191 l 1,61,62
EndSplineSet
Validated: 1
EndChar

StartChar: thorn
Encoding: 254 254 103
Width: 1180
Flags: W
LayerCount: 2
Fore
SplineSet
1247 571 m 0,0,1
 1242 530 1242 530 1231 483.5 c 128,-1,2
 1220 437 1220 437 1194.5 370 c 128,-1,3
 1169 303 1169 303 1113 237.5 c 128,-1,4
 1057 172 1057 172 1008.5 141.5 c 128,-1,5
 960 111 960 111 931 100 c 1,6,7
 843 70 843 70 755.5 40 c 128,-1,8
 668 10 668 10 615.5 -7.5 c 128,-1,9
 563 -25 563 -25 547 -25 c 2,10,-1
 542 -25 l 1,11,12
 479 -22 479 -22 395 6 c 1,13,-1
 394 6 l 1,14,-1
 272 -526 l 1,15,16
 213 -504 213 -504 152.5 -486.5 c 128,-1,17
 92 -469 92 -469 26 -466 c 0,18,19
 8 -466 8 -466 8 -452 c 0,20,21
 8 -449 8 -449 9 -446 c 0,22,23
 15 -420 15 -420 69.5 -402 c 128,-1,24
 124 -384 124 -384 139 -320 c 2,25,-1
 503 1257 l 2,26,27
 507 1272 507 1272 507 1285 c 0,28,29
 507 1325 507 1325 469 1340 c 128,-1,30
 431 1355 431 1355 431 1377 c 0,31,32
 431 1380 431 1380 431 1383 c 0,33,34
 436 1404 436 1404 458 1404 c 0,35,36
 525 1407 525 1407 593.5 1424 c 128,-1,37
 662 1441 662 1441 731 1463 c 1,38,-1
 588 845 l 1,39,-1
 877 945 l 1,40,41
 910 955 910 955 925.5 956 c 128,-1,42
 941 957 941 957 951.5 956.5 c 128,-1,43
 962 956 962 956 974 956 c 0,44,45
 1114 949 1114 949 1182.5 850 c 128,-1,46
 1251 751 1251 751 1251 636 c 0,47,48
 1251 631 1251 631 1251 625 c 0,49,50
 1251 599 1251 599 1247 571 c 0,0,1
630 56 m 2,51,52
 646 56 646 56 677 66.5 c 128,-1,53
 708 77 708 77 747 90 c 128,-1,54
 786 103 786 103 818.5 114.5 c 128,-1,55
 851 126 851 126 871 143 c 0,56,57
 947 208 947 208 985.5 291.5 c 128,-1,58
 1024 375 1024 375 1034.5 422 c 128,-1,59
 1045 469 1045 469 1049 489 c 0,60,61
 1056 535 1056 535 1056 576 c 0,62,63
 1056 661 1056 661 1025 723 c 0,64,65
 958 855 958 855 812 855 c 0,66,67
 799 855 799 855 779 853 c 128,-1,68
 759 851 759 851 731.5 841.5 c 128,-1,69
 704 832 704 832 655.5 813 c 128,-1,70
 607 794 607 794 574 782 c 1,71,-1
 429 155 l 1,72,73
 461 117 461 117 516.5 87 c 128,-1,74
 572 57 572 57 624 56 c 1,75,-1
 630 56 l 2,51,52
EndSplineSet
Validated: 1
EndChar

StartChar: kgreenlandic
Encoding: 312 312 107
Width: 1150
Flags: W
LayerCount: 2
Fore
SplineSet
626 1011 m 1,0,-1
 521 555 l 1,1,-1
 934 834 l 2,2,3
 1013 888 1013 888 1060 913 c 0,4,5
 1090 929 1090 929 1114 929 c 0,6,7
 1132 929 1132 929 1147 920 c 1,8,-1
 1212 874 l 1,9,10
 1220 867 1220 867 1220 859 c 0,11,12
 1220 855 1220 855 1214 846 c 2,13,-1
 1142 741 l 1,14,-1
 1099 767 l 2,15,16
 1074 782 1074 782 1045 782 c 0,17,18
 1011 782 1011 782 975 760 c 0,19,20
 816 660 816 660 673 565 c 1,21,-1
 944 225 l 2,22,23
 1028 119 1028 119 1056 106 c 1,24,25
 1075 95 1075 95 1101 95 c 0,26,27
 1108 95 1108 95 1122 97 c 0,28,29
 1129 98 1129 98 1137 98 c 0,30,31
 1159 98 1159 98 1161 84 c 0,32,33
 1162 79 1162 79 1161 75 c 0,34,35
 1159 65 1159 65 1147 60 c 2,36,-1
 1077 29 l 1,37,38
 1019 6 1019 6 974 6 c 0,39,40
 944 6 944 6 921 17 c 0,41,42
 864 42 864 42 821 96 c 2,43,-1
 526 467 l 1,44,45
 519 462 519 462 496 447 c 1,46,-1
 427 146 l 2,47,48
 423 130 423 130 423 117 c 0,49,50
 423 77 423 77 463.5 61.5 c 128,-1,51
 504 46 504 46 498 21 c 0,52,53
 493 0 493 0 473 0 c 2,54,-1
 134 0 l 2,55,56
 117 0 117 0 117 14 c 0,57,58
 117 17 117 17 118 21 c 0,59,60
 124 46 124 46 178 64 c 0,61,62
 232 81 232 81 247 146 c 2,63,-1
 397 799 l 2,64,65
 401 815 401 815 401 828 c 0,66,67
 401 868 401 868 364 885 c 128,-1,68
 327 902 327 902 327 924 c 0,69,70
 327 927 327 927 328 930 c 0,71,72
 333 951 333 951 354 951 c 0,73,74
 421 954 421 954 489 971 c 128,-1,75
 557 988 557 988 626 1011 c 1,0,-1
EndSplineSet
Validated: 1
EndChar

StartChar: lcaron
Encoding: 318 318 108
Width: 665
Flags: W
LayerCount: 2
Fore
SplineSet
801 1463 m 1,0,-1
 710 1071 l 1,1,2
 922 1200 922 1200 985.5 1254.5 c 128,-1,3
 1049 1309 1049 1309 1067 1355 c 1,4,-1
 1057 1355 l 2,5,6
 972 1355 972 1355 971 1415 c 0,7,8
 971 1426 971 1426 974 1439 c 1,9,-1
 991 1521 l 1,10,-1
 992 1524 l 2,11,12
 1011 1608 1011 1608 1120 1610 c 1,13,-1
 1127 1610 l 2,14,15
 1214 1610 1214 1610 1214 1548 c 0,16,17
 1214 1536 1214 1536 1212 1526 c 2,18,-1
 1194 1444 l 2,19,20
 1189 1423 1189 1423 1174 1394 c 128,-1,21
 1159 1365 1159 1365 1149 1346 c 0,22,23
 1116 1287 1116 1287 1038 1215 c 128,-1,24
 960 1143 960 1143 710 995 c 0,25,26
 704 992 704 992 699.5 989.5 c 128,-1,27
 695 987 695 987 690 984 c 1,28,-1
 497 146 l 2,29,30
 493 130 493 130 493 117 c 0,31,32
 493 77 493 77 533.5 61.5 c 128,-1,33
 574 46 574 46 568 21 c 0,34,35
 563 0 563 0 543 0 c 2,36,-1
 204 0 l 2,37,38
 187 0 187 0 187 14 c 0,39,40
 187 17 187 17 188 21 c 0,41,42
 194 46 194 46 248 63.5 c 128,-1,43
 302 81 302 81 317 146 c 2,44,-1
 480 852 l 1,45,46
 345 761 345 761 339 738 c 0,47,48
 338 732 338 732 346 730 c 0,49,50
 371 724 371 724 391 708.5 c 128,-1,51
 411 693 411 693 405 664 c 2,52,-1
 391 598 l 1,53,-1
 391 596 l 2,54,55
 376 529 376 529 288 526 c 1,56,-1
 283 526 l 2,57,58
 213 526 213 526 213 574 c 0,59,60
 213 584 213 584 215 594 c 2,61,-1
 229 659 l 1,62,-1
 230 664 l 2,63,64
 233 679 233 679 244 699 c 0,65,66
 255 722 255 722 265 738 c 0,67,68
 285 774 285 774 330 815.5 c 128,-1,69
 375 857 375 857 500 939 c 1,70,-1
 573 1257 l 2,71,72
 577 1273 577 1273 577 1285 c 0,73,74
 577 1325 577 1325 539.5 1340 c 128,-1,75
 502 1355 502 1355 502 1377 c 0,76,77
 502 1380 502 1380 502 1383 c 0,78,79
 507 1404 507 1404 528 1404 c 0,80,81
 595 1407 595 1407 663.5 1424 c 128,-1,82
 732 1441 732 1441 801 1463 c 1,0,-1
EndSplineSet
Validated: 1
EndChar

StartChar: Lslash
Encoding: 321 321 109
Width: 1251
Flags: W
LayerCount: 2
Fore
SplineSet
458 94 m 1,0,-1
 885 94 l 2,1,2
 978 94 978 94 1058 166 c 0,3,4
 1139 238 1139 238 1182 277 c 0,5,6
 1205 299 1205 299 1215 299 c 0,7,8
 1232 299 1232 299 1232 285 c 0,9,10
 1232 282 1232 282 1231 278 c 0,11,12
 1228 265 1228 265 1224 257 c 2,13,-1
 1092 0 l 1,14,-1
 176 0 l 2,15,16
 159 0 159 0 159 14 c 0,17,18
 159 17 159 17 160 21 c 0,19,20
 166 46 166 46 220 64 c 128,-1,21
 274 82 274 82 289 146 c 2,22,-1
 448 838 l 1,23,-1
 227 782 l 2,24,25
 222 781 222 781 217 781 c 0,26,27
 205 781 205 781 205 795 c 2,28,-1
 203 833 l 2,29,30
 203 837 203 837 204 840 c 0,31,32
 207 852 207 852 224 857 c 2,33,-1
 467 919 l 1,34,-1
 545 1257 l 2,35,36
 549 1273 549 1273 549 1285 c 0,37,38
 549 1325 549 1325 514 1339 c 0,39,40
 473 1355 473 1355 474 1377 c 0,41,42
 474 1380 474 1380 474 1383 c 0,43,44
 479 1404 479 1404 500 1404 c 2,45,-1
 839 1404 l 2,46,47
 859 1404 859 1404 854 1383 c 0,48,49
 848 1357 848 1357 794 1339 c 128,-1,50
 740 1321 740 1321 725 1257 c 0,51,52
 692 1112 692 1112 658 967 c 1,53,-1
 911 1031 l 1,54,-1
 916 1031 l 2,55,56
 931 1031 931 1031 933 1017 c 1,57,-1
 934 979 l 2,58,59
 934 975 934 975 933 972 c 0,60,61
 930 959 930 959 913 955 c 2,62,-1
 640 886 l 1,63,-1
 458 94 l 1,0,-1
EndSplineSet
Validated: 1
EndChar

StartChar: lslash
Encoding: 322 322 110
Width: 752
Flags: W
LayerCount: 2
Fore
SplineSet
416 146 m 2,0,1
 412 130 412 130 412 118 c 0,2,3
 412 78 412 78 447 64 c 0,4,5
 488 48 488 48 487 27 c 0,6,7
 487 24 487 24 487 21 c 0,8,9
 482 0 482 0 462 0 c 2,10,-1
 123 0 l 2,11,12
 106 0 106 0 106 14 c 0,13,14
 106 17 106 17 107 21 c 0,15,16
 113 46 113 46 167 64 c 128,-1,17
 221 82 221 82 236 146 c 2,18,-1
 392 824 l 1,19,-1
 227 782 l 2,20,21
 222 781 222 781 217 781 c 0,22,23
 205 781 205 781 205 795 c 2,24,-1
 203 833 l 2,25,26
 203 837 203 837 204 840 c 0,27,28
 207 852 207 852 224 857 c 2,29,-1
 411 904 l 1,30,-1
 492 1257 l 2,31,32
 496 1273 496 1273 496 1285 c 0,33,34
 496 1325 496 1325 461 1339 c 0,35,36
 420 1355 420 1355 421 1377 c 0,37,38
 421 1380 421 1380 421 1383 c 0,39,40
 426 1404 426 1404 447 1404 c 0,41,42
 515 1407 515 1407 583 1424 c 128,-1,43
 651 1441 651 1441 720 1463 c 1,44,-1
 602 953 l 1,45,-1
 911 1031 l 1,46,-1
 916 1031 l 2,47,48
 931 1031 931 1031 933 1017 c 1,49,-1
 934 979 l 2,50,51
 934 975 934 975 933 972 c 0,52,53
 930 959 930 959 913 955 c 2,54,-1
 583 872 l 1,55,-1
 416 146 l 2,0,1
EndSplineSet
Validated: 1
EndChar

StartChar: Eng
Encoding: 330 330 111
Width: 1578
Flags: W
LayerCount: 2
Fore
SplineSet
1369 287 m 1,0,-1
 1593 1258 l 2,1,2
 1597 1274 1597 1274 1597 1286 c 0,3,4
 1597 1326 1597 1326 1559.5 1341 c 128,-1,5
 1522 1356 1522 1356 1522 1378 c 0,6,7
 1522 1381 1522 1381 1523 1384 c 0,8,9
 1528 1404 1528 1404 1547 1404 c 2,10,-1
 1826 1404 l 2,11,12
 1843 1404 1843 1404 1843 1391 c 0,13,14
 1843 1388 1843 1388 1843 1384 c 0,15,16
 1837 1358 1837 1358 1782.5 1340 c 128,-1,17
 1728 1322 1728 1322 1713 1258 c 2,18,-1
 1465 180 l 2,19,20
 1423 -4 1423 -4 1380 -107 c 128,-1,21
 1337 -210 1337 -210 1261 -277 c 1,22,23
 1188 -350 1188 -350 1071 -399 c 1,24,-1
 1082 -349 l 1,25,26
 1127 -325 1127 -325 1169.5 -287.5 c 128,-1,27
 1212 -250 1212 -250 1245 -189 c 0,28,29
 1269 -145 1269 -145 1302 -3 c 1,30,-1
 1288 0 l 1,31,-1
 605 1189 l 1,32,-1
 364 146 l 2,33,34
 360 130 360 130 360 117 c 0,35,36
 360 77 360 77 400.5 61.5 c 128,-1,37
 441 46 441 46 435 21 c 0,38,39
 430 0 430 0 409 0 c 2,40,-1
 155 0 l 2,41,42
 138 0 138 0 138 14 c 0,43,44
 138 17 138 17 139 21 c 0,45,46
 145 46 145 46 199 63.5 c 128,-1,47
 253 81 253 81 268 146 c 2,48,-1
 524 1257 l 2,49,50
 528 1273 528 1273 528 1285 c 0,51,52
 528 1325 528 1325 490.5 1340 c 128,-1,53
 453 1355 453 1355 453 1377 c 0,54,55
 453 1380 453 1380 453 1383 c 0,56,57
 458 1404 458 1404 479 1404 c 2,58,-1
 736 1404 l 1,59,-1
 1369 287 l 1,0,-1
EndSplineSet
Validated: 1
EndChar

StartChar: eng
Encoding: 331 331 112
Width: 1195
Flags: W
LayerCount: 2
Fore
SplineSet
1039 12 m 2,0,1
 994 -185 994 -185 945.5 -281 c 128,-1,2
 897 -377 897 -377 816 -445 c 0,3,4
 703 -539 703 -539 585 -567 c 1,5,-1
 597 -517 l 1,6,7
 705 -460 705 -460 761 -357 c 0,8,9
 782 -316 782 -316 799.5 -242 c 128,-1,10
 817 -168 817 -168 857 6 c 2,11,-1
 973 506 l 2,12,13
 994 598 994 598 994 666 c 0,14,15
 994 762 994 762 953 814 c 0,16,17
 908 871 908 871 824 871 c 0,18,19
 776 871 776 871 715 852 c 0,20,21
 691 844 691 844 654.5 831.5 c 128,-1,22
 618 819 618 819 592 810 c 256,23,24
 566 801 566 801 545 794 c 1,25,-1
 396 146 l 2,26,27
 392 130 392 130 392 117 c 0,28,29
 392 77 392 77 432.5 61.5 c 128,-1,30
 473 46 473 46 467 21 c 0,31,32
 462 0 462 0 442 0 c 2,33,-1
 103 0 l 2,34,35
 86 0 86 0 86 14 c 0,36,37
 86 17 86 17 87 21 c 0,38,39
 93 46 93 46 147 63.5 c 128,-1,40
 201 81 201 81 216 146 c 2,41,-1
 363 786 l 2,42,43
 367 801 367 801 367 814 c 0,44,45
 367 854 367 854 329.5 868.5 c 128,-1,46
 292 883 292 883 292 905 c 0,47,48
 292 908 292 908 292 911 c 0,49,50
 297 932 297 932 318 932 c 0,51,52
 385 935 385 935 453.5 952.5 c 128,-1,53
 522 970 522 970 591 992 c 1,54,-1
 559 853 l 1,55,56
 619 874 619 874 664.5 890 c 128,-1,57
 710 906 710 906 751 919 c 0,58,59
 850 951 850 951 952 961 c 0,60,61
 964 962 964 962 977 962 c 0,62,63
 1061 962 1061 962 1124 905 c 1,64,65
 1182 851 1182 851 1182 723 c 0,66,67
 1182 633 1182 633 1153 506 c 2,68,-1
 1039 12 l 2,0,1
EndSplineSet
Validated: 1
EndChar

StartChar: OE
Encoding: 338 338 113
Width: 2044
Flags: W
LayerCount: 2
Fore
SplineSet
1334 94 m 1,0,-1
 1762 94 l 2,1,2
 1854 94 1854 94 1935.5 165.5 c 128,-1,3
 2017 237 2017 237 2059 277 c 0,4,5
 2082 299 2082 299 2092 299 c 0,6,7
 2113 299 2113 299 2108 278 c 0,8,9
 2105 265 2105 265 2101 257 c 2,10,-1
 1969 0 l 1,11,-1
 1043 0 l 1,12,13
 930 -29 930 -29 819 -35 c 0,14,15
 796 -36 796 -36 773 -36 c 0,16,17
 495 -36 495 -36 325 156 c 1,18,19
 202 294 202 294 202 492 c 0,20,21
 202 575 202 575 223 669 c 0,22,23
 227 687 227 687 233 705 c 0,24,25
 324 1046 324 1046 578 1244 c 128,-1,26
 832 1442 832 1442 1164 1446 c 1,27,-1
 1172 1446 l 2,28,29
 1340 1446 1340 1446 1449 1404 c 1,30,-1
 2305 1404 l 1,31,-1
 2246 1147 l 2,32,33
 2241 1126 2241 1126 2220 1126 c 0,34,35
 2210 1126 2210 1126 2192 1166 c 1,36,37
 2158 1235 2158 1235 2130 1273 c 128,-1,38
 2102 1311 2102 1311 2043 1311 c 2,39,-1
 1615 1311 l 1,40,-1
 1489 768 l 1,41,-1
 1719 768 l 2,42,43
 1783 768 1783 768 1814.5 819.5 c 128,-1,44
 1846 871 1846 871 1872 871 c 0,45,46
 1893 871 1893 871 1888 850 c 2,47,-1
 1830 596 l 2,48,49
 1825 575 1825 575 1804 575 c 0,50,51
 1778 575 1778 575 1766.5 626 c 128,-1,52
 1755 677 1755 677 1691 677 c 2,53,-1
 1468 677 l 1,54,-1
 1334 94 l 1,0,-1
1424 1272 m 1,55,56
 1318 1358 1318 1358 1143 1358 c 0,57,58
 836 1357 836 1357 669 1164.5 c 128,-1,59
 502 972 502 972 440 702 c 0,60,61
 417 603 417 603 417 515 c 0,62,63
 417 361 417 361 506 204.5 c 128,-1,64
 595 48 595 48 840 46 c 1,65,-1
 846 46 l 2,66,67
 1008 46 1008 46 1166 153 c 1,68,-1
 1421 1257 l 2,69,70
 1424 1268 1424 1268 1424 1272 c 1,55,56
EndSplineSet
Validated: 1
EndChar

StartChar: Tbar
Encoding: 358 358 114
Width: 1255
Flags: W
LayerCount: 2
Fore
SplineSet
1480 1147 m 2,0,1
 1475 1126 1475 1126 1454 1126 c 0,2,3
 1445 1126 1445 1126 1425 1166 c 0,4,5
 1389 1235 1389 1235 1362 1273 c 128,-1,6
 1335 1311 1335 1311 1275 1311 c 2,7,-1
 1024 1311 l 1,8,-1
 938 941 l 1,9,-1
 1372 941 l 2,10,11
 1404 941 1404 941 1400 921 c 2,12,-1
 1391 882 l 2,13,14
 1387 863 1387 863 1354 863 c 2,15,-1
 920 863 l 1,16,-1
 755 146 l 2,17,18
 751 130 751 130 751 117 c 0,19,20
 751 77 751 77 786 63 c 0,21,22
 827 47 827 47 826 26 c 0,23,24
 826 23 826 23 826 20 c 0,25,26
 821 0 821 0 801 0 c 2,27,-1
 462 0 l 2,28,29
 441 0 441 0 446 20 c 0,30,31
 452 45 452 45 506 63 c 128,-1,32
 560 81 560 81 575 146 c 2,33,-1
 740 863 l 1,34,-1
 302 863 l 2,35,36
 273 863 273 863 273 878 c 0,37,38
 273 880 273 880 274 882 c 2,39,-1
 283 921 l 2,40,41
 288 941 288 941 320 941 c 2,42,-1
 758 941 l 1,43,-1
 844 1311 l 1,44,-1
 589 1311 l 2,45,46
 529 1311 529 1311 482 1273 c 128,-1,47
 435 1235 435 1235 370 1166 c 0,48,49
 333 1126 333 1126 324 1126 c 0,50,51
 303 1126 303 1126 308 1147 c 2,52,-1
 351 1332 l 2,53,54
 364 1386 364 1386 385 1398 c 0,55,56
 404 1409 404 1409 471 1409 c 0,57,58
 477 1409 477 1409 482 1409 c 2,59,-1
 1426 1409 l 2,60,61
 1509 1409 1509 1409 1523 1399 c 0,62,63
 1530 1394 1530 1394 1530 1378 c 0,64,65
 1530 1361 1530 1361 1523 1332 c 2,66,-1
 1480 1147 l 2,0,1
EndSplineSet
Validated: 1
EndChar

StartChar: tbar
Encoding: 359 359 115
Width: 663
Flags: W
LayerCount: 2
Fore
SplineSet
282 840 m 2,0,1
 263 840 263 840 267 860 c 1,2,-1
 267 862 l 2,3,4
 271 878 271 878 292 887 c 0,5,6
 314 896 314 896 358 917 c 0,7,8
 403 938 403 938 411 942 c 0,9,10
 420 946 420 946 425 945 c 1,11,-1
 465 1116 l 2,12,13
 478 1166 478 1166 502 1186 c 0,14,15
 527 1206 527 1206 582 1229 c 0,16,17
 638 1253 638 1253 654 1253 c 0,18,19
 677 1253 677 1253 671 1227 c 2,20,-1
 607 948 l 1,21,-1
 847 953 l 2,22,23
 858 953 858 953 858 941 c 0,24,25
 858 937 858 937 857 933 c 0,26,27
 852 913 852 913 844 893 c 0,28,29
 823 846 823 846 788 846 c 2,30,-1
 584 847 l 1,31,-1
 527 604 l 1,32,-1
 734 604 l 2,33,34
 750 604 750 604 746 585 c 2,35,-1
 737 547 l 2,36,37
 733 528 733 528 717 528 c 0,38,39
 613 528 613 528 510 528 c 1,40,-1
 439 220 l 2,41,42
 433 194 433 194 433 172 c 0,43,44
 433 116 433 116 471 84 c 0,45,46
 525 39 525 39 568 33 c 1,47,-1
 560 1 l 1,48,49
 411 1 411 1 316 29 c 0,50,51
 251 48 251 48 251 144 c 0,52,53
 251 189 251 189 265 250 c 2,54,-1
 329 529 l 1,55,-1
 210 529 l 2,56,57
 197 529 197 529 197 540 c 0,58,59
 197 543 197 543 198 547 c 2,60,-1
 207 585 l 2,61,62
 211 604 211 604 226 604 c 2,63,-1
 346 604 l 1,64,-1
 402 845 l 1,65,-1
 282 840 l 2,0,1
EndSplineSet
Validated: 1
EndChar

StartChar: longs
Encoding: 383 383 116
Width: 625
Flags: W
LayerCount: 2
Fore
SplineSet
402 845 m 1,0,1
 364 844 364 844 287 840 c 1,2,-1
 282 840 l 2,3,4
 263 840 263 840 267 860 c 1,5,-1
 267 862 l 2,6,7
 271 878 271 878 292 887 c 0,8,9
 314 896 314 896 385 930 c 0,10,11
 402 938 402 938 417 944 c 0,12,13
 420 945 420 945 425 945 c 1,14,-1
 444 1027 l 2,15,16
 473 1154 473 1154 515 1234 c 0,17,18
 542 1285 542 1285 578 1319 c 0,19,20
 595 1336 595 1336 622 1345 c 2,21,-1
 898 1440 l 2,22,23
 908 1443 908 1443 934 1445 c 1,24,-1
 938 1445 l 2,25,26
 960 1445 960 1445 976 1433 c 1,27,28
 999 1414 999 1414 1003 1400 c 0,29,30
 1004 1395 1004 1395 1005 1389 c 0,31,32
 1005 1380 1005 1380 1002 1368 c 0,33,34
 1000 1360 1000 1360 997 1351 c 0,35,36
 984 1304 984 1304 972 1301 c 1,37,-1
 969 1301 l 2,38,39
 958 1301 958 1301 941 1316 c 1,40,41
 900 1347 900 1347 853 1347 c 0,42,43
 825 1347 825 1347 795 1336 c 0,44,45
 703 1300 703 1300 670 1199 c 0,46,47
 657 1161 657 1161 646.5 1117 c 128,-1,48
 636 1073 636 1073 625 1027 c 2,49,-1
 422 146 l 2,50,51
 418 130 418 130 418 117 c 0,52,53
 418 77 418 77 458.5 61.5 c 128,-1,54
 499 46 499 46 493 21 c 0,55,56
 488 0 488 0 467 0 c 2,57,-1
 128 0 l 2,58,59
 111 0 111 0 111 14 c 0,60,61
 111 17 111 17 112 21 c 0,62,63
 118 46 118 46 172 63.5 c 128,-1,64
 226 81 226 81 241 146 c 2,65,-1
 402 845 l 1,0,1
EndSplineSet
Validated: 1
EndChar

StartChar: florin
Encoding: 402 402 117
Width: 722
Flags: W
LayerCount: 2
Fore
SplineSet
391 12 m 2,0,1
 346 -185 346 -185 297 -281 c 128,-1,2
 248 -377 248 -377 167 -445 c 0,3,4
 54 -539 54 -539 -64 -567 c 1,5,-1
 -52 -517 l 1,6,7
 56 -460 56 -460 112 -357 c 0,8,9
 133 -316 133 -316 150.5 -242 c 128,-1,10
 168 -168 168 -168 208 6 c 2,11,-1
 402 845 l 1,12,13
 364 844 364 844 287 840 c 1,14,-1
 282 840 l 2,15,16
 263 840 263 840 267 860 c 1,17,-1
 267 862 l 2,18,19
 271 878 271 878 292 887 c 0,20,21
 314 896 314 896 385 930 c 0,22,23
 402 938 402 938 417 944 c 0,24,25
 420 945 420 945 425 945 c 1,26,-1
 444 1027 l 2,27,28
 477 1168 477 1168 513 1230 c 128,-1,29
 549 1292 549 1292 578 1319 c 0,30,31
 595 1336 595 1336 622 1345 c 2,32,-1
 898 1440 l 2,33,34
 908 1443 908 1443 934 1445 c 1,35,-1
 938 1445 l 2,36,37
 960 1445 960 1445 976 1433 c 1,38,39
 1001 1412 1001 1412 1001 1380 c 0,40,41
 1001 1370 1001 1370 999 1358 c 2,42,-1
 997 1351 l 1,43,44
 983 1304 983 1304 963 1304 c 0,45,46
 953 1304 953 1304 941 1316 c 0,47,48
 909 1345 909 1345 857 1345 c 2,49,-1
 849 1345 l 1,50,51
 791 1342 791 1342 758 1330 c 0,52,53
 706 1310 706 1310 678 1222.5 c 128,-1,54
 650 1135 650 1135 625 1027 c 2,55,-1
 607 948 l 1,56,-1
 846 953 l 1,57,-1
 847 953 l 2,58,59
 862 953 862 953 856 927 c 0,60,61
 853 913 853 913 844 893 c 0,62,63
 823 846 823 846 788 846 c 2,64,-1
 584 847 l 1,65,-1
 391 12 l 2,0,1
EndSplineSet
Validated: 1
EndChar

StartChar: uni0256
Encoding: 598 598 118
Width: 1140
Flags: W
LayerCount: 2
Fore
SplineSet
808 141 m 1,0,-1
 948 748 l 1,1,2
 913 788 913 788 856.5 818 c 128,-1,3
 800 848 800 848 750 850 c 0,4,5
 729 850 729 850 706 842 c 0,6,7
 667 829 667 829 629.5 816 c 128,-1,8
 592 803 592 803 555 791 c 1,9,10
 528 781 528 781 510 765 c 0,11,12
 435 701 435 701 393 610 c 0,13,14
 361 541 361 541 345 473 c 0,15,16
 340 451 340 451 337 428 c 0,17,18
 330 383 330 383 330 344 c 0,19,20
 330 261 330 261 360 201 c 0,21,22
 405 111 405 111 496 84 c 0,23,24
 531 73 531 73 569 73 c 0,25,26
 582 73 582 73 594 74 c 0,27,28
 616 76 616 76 648 87 c 0,29,30
 671 94 671 94 723 112 c 0,31,32
 772 129 772 129 808 141 c 1,0,-1
795 85 m 1,33,-1
 504 -14 l 2,34,35
 475 -23 475 -23 450 -25 c 1,36,37
 425 -25 425 -25 410 -24 c 0,38,39
 273 -19 273 -19 198 88 c 0,40,41
 140 171 140 171 140 280 c 0,42,43
 140 313 140 313 146 349 c 0,44,45
 152 391 152 391 160 430 c 0,46,47
 172 480 172 480 189 526 c 0,48,49
 219 608 219 608 291 691 c 1,50,51
 326 733 326 733 397 780 c 0,52,53
 423 797 423 797 452 807 c 0,54,55
 537 836 537 836 621.5 865 c 128,-1,56
 706 894 706 894 791 923 c 0,57,58
 809 930 809 930 830 930 c 0,59,60
 892 927 892 927 972 898 c 0,61,62
 978 896 978 896 982 895 c 1,63,-1
 1104 1423 l 1,64,65
 1161 1401 1161 1401 1219.5 1384.5 c 128,-1,66
 1278 1368 1278 1368 1342 1365 c 0,67,68
 1359 1365 1359 1365 1359 1351 c 0,69,70
 1359 1348 1359 1348 1358 1344 c 0,71,72
 1352 1320 1352 1320 1299.5 1302.5 c 128,-1,73
 1247 1285 1247 1285 1232 1222 c 2,74,-1
 951 6 l 2,75,76
 912 -163 912 -163 897 -230 c 128,-1,77
 882 -297 882 -297 882 -334 c 0,78,79
 882 -341 882 -341 883 -347 c 0,80,81
 891 -448 891 -448 970 -503 c 1,82,-1
 959 -552 l 1,83,84
 858 -525 858 -525 789 -433 c 1,85,86
 741 -367 741 -367 739 -316.5 c 128,-1,87
 737 -266 737 -266 737 -258 c 0,88,89
 737 -165 737 -165 778 11 c 2,90,-1
 795 85 l 1,33,-1
EndSplineSet
Validated: 1
EndChar

StartChar: uni0261
Encoding: 609 609 119
Width: 1164
Flags: W
LayerCount: 2
Fore
SplineSet
1024 199 m 2,0,1
 1008 131 1008 131 1008 79 c 0,2,3
 1008 55 1008 55 1015 11 c 128,-1,4
 1022 -33 1022 -33 1034 -158 c 0,5,6
 1035 -171 1035 -171 1034 -184 c 0,7,8
 1034 -223 1034 -223 1026 -261 c 0,9,10
 1010 -330 1010 -330 965 -393 c 0,11,12
 885 -504 885 -504 759 -548 c 0,13,14
 671 -578 671 -578 580 -578 c 0,15,16
 563 -578 563 -578 545 -577 c 0,17,18
 435 -570 435 -570 324.5 -554.5 c 128,-1,19
 214 -539 214 -539 105 -532 c 0,20,21
 87 -531 87 -531 70 -531 c 0,22,23
 -20 -531 -20 -531 -105 -561 c 0,24,25
 -143 -574 -143 -574 -167 -574 c 0,26,27
 -175 -574 -175 -574 -180 -573 c 0,28,29
 -184 -572 -184 -572 -184 -569 c 0,30,31
 -184 -555 -184 -555 -69 -487 c 0,32,33
 38 -424 38 -424 133 -424 c 256,34,35
 229 -424 229 -424 321 -440 c 128,-1,36
 413 -456 413 -456 502 -466 c 0,37,38
 519 -468 519 -468 536 -468 c 0,39,40
 609 -468 609 -468 685 -433 c 0,41,42
 765 -396 765 -396 815 -344 c 0,43,44
 843 -315 843 -315 851 -276 c 0,45,46
 855 -258 855 -258 855 -238 c 0,47,48
 855 -224 855 -224 854 -210 c 2,49,-1
 817 87 l 1,50,-1
 519 -14 l 2,51,52
 484 -25 484 -25 463 -25 c 2,53,-1
 422 -25 l 1,54,55
 282 -18 282 -18 204 91 c 256,56,57
 144 175 144 175 144 290 c 0,58,59
 144 323 144 323 149 359 c 0,60,61
 155 401 155 401 164 440 c 0,62,63
 176 492 176 492 194 541 c 0,64,65
 226 626 226 626 299 711 c 1,66,67
 335 755 335 755 409 803 c 1,68,69
 434 818 434 818 465 830 c 1,70,71
 552 860 552 860 639 890 c 128,-1,72
 726 920 726 920 814 950 c 0,73,74
 832 956 832 956 848 956 c 2,75,-1
 853 956 l 1,76,77
 916 953 916 953 1000 924 c 0,78,79
 1007 921 1007 921 1009 920 c 0,80,81
 1029 911 1029 911 1059 900 c 0,82,83
 1071 896 1071 896 1082 896 c 0,84,85
 1098 896 1098 896 1112 905 c 0,86,87
 1137 923 1137 923 1149 935 c 0,88,89
 1156 942 1156 942 1163 942 c 0,90,91
 1168 942 1168 942 1173 940 c 0,92,93
 1193 932 1193 932 1190 920 c 2,94,-1
 1024 199 l 2,0,1
830 145 m 1,95,-1
 842 199 l 1,96,-1
 843 199 l 1,97,-1
 975 769 l 1,98,99
 943 807 943 807 883 839.5 c 128,-1,100
 823 872 823 872 772 874 c 1,101,-1
 768 874 l 2,102,103
 748 874 748 874 726 866 c 0,104,105
 687 853 687 853 648.5 839.5 c 128,-1,106
 610 826 610 826 571 813 c 0,107,108
 544 803 544 803 525 787 c 0,109,110
 448 721 448 721 405 627 c 1,111,112
 372 556 372 556 355 486 c 0,113,114
 350 464 350 464 347 441 c 0,115,116
 340 394 340 394 340 353 c 0,117,118
 340 268 340 268 371 207 c 1,119,120
 417 114 417 114 511 86 c 0,121,122
 546 75 546 75 585 75 c 0,123,124
 597 75 597 75 611 76 c 0,125,126
 633 78 633 78 666 89 c 0,127,128
 691 97 691 97 743 115 c 128,-1,129
 795 133 795 133 830 145 c 1,95,-1
EndSplineSet
Validated: 1
EndChar

StartChar: uni0262
Encoding: 610 610 120
Width: 1078
Flags: W
LayerCount: 2
Fore
SplineSet
592 -26 m 0,0,1
 383 -26 383 -26 271 85.5 c 128,-1,2
 159 197 159 197 159 339 c 0,3,4
 159 397 159 397 174 463 c 0,5,6
 226 687 226 687 413.5 821.5 c 128,-1,7
 601 956 601 956 819 956 c 0,8,9
 897 956 897 956 981 939.5 c 128,-1,10
 1065 923 1065 923 1134 873 c 1,11,-1
 1081 713 l 2,12,13
 1076 701 1076 701 1065 701 c 2,14,-1
 1062 701 l 1,15,16
 1052 702 1052 702 1049 720 c 1,17,18
 1025 812 1025 812 968 847 c 128,-1,19
 911 882 911 882 802 882 c 0,20,21
 731 882 731 882 640 840.5 c 128,-1,22
 549 799 549 799 474 707 c 1,23,24
 391 603 391 603 359 463 c 0,25,26
 347 411 347 411 347 364 c 0,27,28
 347 263 347 263 414 162.5 c 128,-1,29
 481 62 481 62 610 53 c 0,30,31
 636 51 636 51 659 51 c 0,32,33
 723 51 723 51 764 66 c 1,34,35
 820 85 820 85 881 158 c 1,36,-1
 910 282 l 1,37,38
 913 303 913 303 895 314 c 0,39,40
 879 323 879 323 847 337 c 128,-1,41
 815 351 815 351 818 365 c 256,42,43
 821 379 821 379 835 379 c 2,44,-1
 1124 379 l 2,45,46
 1135 379 1135 379 1136 370 c 0,47,48
 1136 368 1136 368 1135 365 c 0,49,50
 1131 348 1131 348 1094.5 336 c 128,-1,51
 1058 324 1058 324 1048 282 c 2,52,-1
 989 24 l 1,53,54
 930 21 930 21 886 14.5 c 128,-1,55
 842 8 842 8 785 -4 c 1,56,57
 697 -26 697 -26 592 -26 c 0,0,1
EndSplineSet
Validated: 1
EndChar

StartChar: uni026A
Encoding: 618 618 121
Width: 452
Flags: W
LayerCount: 2
Fore
SplineSet
352 146 m 2,0,1
 348 130 348 130 348 117 c 0,2,3
 348 77 348 77 388.5 61.5 c 128,-1,4
 429 46 429 46 423 21 c 0,5,6
 418 0 418 0 398 0 c 2,7,-1
 65 0 l 2,8,9
 48 0 48 0 48 14 c 0,10,11
 48 17 48 17 49 21 c 0,12,13
 55 46 55 46 109 63.5 c 128,-1,14
 163 81 163 81 178 146 c 2,15,-1
 325 785 l 2,16,17
 329 801 329 801 329 813 c 0,18,19
 329 853 329 853 291.5 868 c 128,-1,20
 254 883 254 883 254 905 c 0,21,22
 254 908 254 908 254 911 c 0,23,24
 259 931 259 931 280 931 c 2,25,-1
 613 931 l 2,26,27
 629 931 629 931 629 918 c 0,28,29
 629 915 629 915 628 911 c 0,30,31
 622 885 622 885 568 867 c 128,-1,32
 514 849 514 849 499 785 c 2,33,-1
 352 146 l 2,0,1
EndSplineSet
Validated: 1
EndChar

StartChar: uni0274
Encoding: 628 628 122
Width: 1142
Flags: W
LayerCount: 2
Fore
SplineSet
938 200 m 1,0,-1
 1073 784 l 2,1,2
 1077 800 1077 800 1077 812 c 0,3,4
 1077 852 1077 852 1039 867 c 128,-1,5
 1001 882 1001 882 1001 904 c 0,6,7
 1001 907 1001 907 1002 910 c 0,8,9
 1007 931 1007 931 1028 931 c 2,10,-1
 1282 931 l 2,11,12
 1299 931 1299 931 1299 917 c 0,13,14
 1299 914 1299 914 1298 910 c 0,15,16
 1292 884 1292 884 1236 866 c 128,-1,17
 1180 848 1180 848 1165 784 c 2,18,-1
 974 -43 l 1,19,-1
 828 0 l 1,20,-1
 393 716 l 1,21,-1
 262 146 l 2,22,23
 258 130 258 130 258 117 c 0,24,25
 258 77 258 77 298.5 61.5 c 128,-1,26
 339 46 339 46 333 21 c 0,27,28
 328 0 328 0 308 0 c 2,29,-1
 53 0 l 2,30,31
 36 0 36 0 36 14 c 0,32,33
 36 17 36 17 37 21 c 0,34,35
 43 46 43 46 98.5 63.5 c 128,-1,36
 154 81 154 81 169 146 c 2,37,-1
 316 784 l 2,38,39
 320 800 320 800 320 812 c 0,40,41
 320 852 320 852 282 867 c 128,-1,42
 244 882 244 882 244 904 c 0,43,44
 244 907 244 907 245 910 c 0,45,46
 250 931 250 931 271 931 c 2,47,-1
 507 931 l 1,48,-1
 938 200 l 1,0,-1
EndSplineSet
Validated: 1
EndChar

StartChar: uni0276
Encoding: 630 630 123
Width: 1506
Flags: W
LayerCount: 2
Fore
SplineSet
777 956 m 0,0,1
 825 956 825 956 870 943.5 c 128,-1,2
 915 931 915 931 960 931 c 2,3,-1
 1597 931 l 1,4,-1
 1553 740 l 2,5,6
 1548 719 1548 719 1532 717 c 1,7,-1
 1530 717 l 2,8,9
 1517 717 1517 717 1499 753 c 0,10,11
 1477 799 1477 799 1467 823.5 c 128,-1,12
 1457 848 1457 848 1418 848 c 2,13,-1
 1167 848 l 1,14,-1
 1089 509 l 1,15,-1
 1208 509 l 2,16,17
 1237 509 1237 509 1262 534 c 2,18,-1
 1309 578 l 1,19,20
 1323 578 1323 578 1320 564 c 2,21,-1
 1276 374 l 2,22,23
 1273 360 1273 360 1259 360 c 0,24,25
 1248 360 1248 360 1244 377.5 c 128,-1,26
 1240 395 1240 395 1229 410 c 0,27,28
 1215 428 1215 428 1189 428 c 2,29,-1
 1070 428 l 1,30,-1
 989 78 l 1,31,-1
 1241 78 l 2,32,33
 1302 78 1302 78 1344 117.5 c 128,-1,34
 1386 157 1386 157 1414 184 c 1,35,36
 1441 212 1441 212 1453 212 c 2,37,-1
 1454 212 l 1,38,39
 1476 210 1476 210 1471 189 c 0,40,41
 1469 181 1469 181 1463 171 c 2,42,-1
 1376 0 l 1,43,-1
 718 0 l 2,44,45
 679 0 679 0 634.5 -11 c 128,-1,46
 590 -22 590 -22 549 -25 c 0,47,48
 535 -26 535 -26 521 -26 c 0,49,50
 333 -26 333 -26 219 102 c 0,51,52
 137 193 137 193 137 324 c 0,53,54
 137 379 137 379 151 441 c 2,55,-1
 156 465 l 1,56,57
 216 691 216 691 385.5 822 c 128,-1,58
 555 953 555 953 777 956 c 0,0,1
841 191 m 1,59,-1
 971 754 l 1,60,61
 907 858 907 858 757 858 c 2,62,-1
 754 858 l 2,63,64
 568 858 568 858 467.5 742 c 128,-1,65
 367 626 367 626 329 464 c 0,66,67
 315 404 315 404 315 351 c 0,68,69
 315 258 315 258 369 164 c 128,-1,70
 423 70 423 70 572 69 c 1,71,-1
 577 69 l 2,72,73
 716 69 716 69 841 191 c 1,59,-1
EndSplineSet
Validated: 1
EndChar

StartChar: uni0280
Encoding: 640 640 124
Width: 1010
Flags: W
LayerCount: 2
Fore
SplineSet
904 72 m 2,0,1
 906 68 906 68 925.5 57 c 128,-1,2
 945 46 945 46 970 45 c 1,3,4
 997 42 997 42 993 21 c 2,5,-1
 992 18 l 2,6,7
 988 0 988 0 968 0 c 2,8,-1
 738 0 l 2,9,10
 726 0 726 0 647 159 c 128,-1,11
 568 318 568 318 513 419 c 1,12,-1
 415 419 l 1,13,-1
 352 146 l 2,14,15
 348 130 348 130 348 117 c 0,16,17
 348 77 348 77 388.5 61.5 c 128,-1,18
 429 46 429 46 423 21 c 0,19,20
 418 0 418 0 398 0 c 2,21,-1
 65 0 l 2,22,23
 48 0 48 0 48 14 c 0,24,25
 48 17 48 17 49 21 c 0,26,27
 55 45 55 45 109 63 c 128,-1,28
 163 81 163 81 178 146 c 2,29,-1
 325 785 l 2,30,31
 329 801 329 801 329 813 c 0,32,33
 329 853 329 853 291.5 868 c 128,-1,34
 254 883 254 883 254 905 c 0,35,36
 254 908 254 908 254 911 c 0,37,38
 259 931 259 931 280 931 c 2,39,-1
 770 931 l 2,40,41
 840 931 840 931 910.5 906.5 c 128,-1,42
 981 882 981 882 1007 813 c 0,43,44
 1017 786 1017 786 1017 755 c 0,45,46
 1017 752 1017 752 1017 749 c 0,47,48
 1017 717 1017 717 1009 678 c 1,49,50
 990 603 990 603 933 543 c 0,51,52
 888 496 888 496 821.5 471 c 128,-1,53
 755 446 755 446 700 443 c 1,54,-1
 904 72 l 2,0,1
431 489 m 1,55,-1
 580 489 l 2,56,57
 674 489 674 489 751 549 c 0,58,59
 817 600 817 600 835 681 c 2,60,-1
 836 684 l 2,61,62
 842 709 842 709 842 731 c 0,63,64
 842 782 842 782 811 819 c 0,65,66
 781 854 781 854 754.5 857.5 c 128,-1,67
 728 861 728 861 680 861 c 2,68,-1
 517 861 l 1,69,-1
 431 489 l 1,55,-1
EndSplineSet
Validated: 1
EndChar

StartChar: uni028F
Encoding: 655 655 125
Width: 940
Flags: W
LayerCount: 2
Fore
SplineSet
483 412 m 1,0,-1
 368 763 l 1,1,2
 352 799 352 799 308 828 c 0,3,4
 284 843 284 843 261.5 852 c 128,-1,5
 239 861 239 861 226 871 c 1,6,7
 215 877 215 877 213 885 c 0,8,9
 211 889 211 889 211 892 c 0,10,11
 211 894 211 894 212 896 c 2,12,-1
 213 899 l 1,13,14
 215 905 215 905 224 905 c 2,15,-1
 553 905 l 2,16,17
 561 905 561 905 571 899 c 0,18,19
 580 894 580 894 583 885 c 0,20,21
 585 880 585 880 584 875 c 0,22,23
 582 868 582 868 575 860 c 0,24,25
 541 830 541 830 536 816 c 1,26,-1
 535 811 l 2,27,28
 530 790 530 790 541 768 c 1,29,-1
 655 463 l 1,30,-1
 802 633 l 2,31,32
 839 676 839 676 852 707 c 1,33,-1
 855 718 l 2,34,35
 857 729 857 729 857 741 c 0,36,37
 857 763 857 763 850 792 c 2,38,-1
 832 858 l 1,39,-1
 985 918 l 1,40,41
 992 922 992 922 999 922 c 0,42,43
 1011 922 1011 922 1018 906 c 1,44,-1
 1054 808 l 2,45,46
 1058 797 1058 797 1058 786 c 0,47,48
 1058 779 1058 779 1056 771 c 0,49,50
 1048 737 1048 737 1007 703 c 0,51,52
 944 649 944 649 865 565 c 2,53,-1
 713 401 l 2,54,55
 689 376 689 376 672.5 328 c 128,-1,56
 656 280 656 280 646 237 c 2,57,-1
 624 142 l 2,58,59
 620 127 620 127 620 114 c 0,60,61
 620 75 620 75 659.5 59.5 c 128,-1,62
 699 44 699 44 694 20 c 0,63,64
 689 0 689 0 668 0 c 2,65,-1
 339 0 l 2,66,67
 319 0 319 0 324 20 c 0,68,69
 330 44 330 44 382 61.5 c 128,-1,70
 434 79 434 79 449 142 c 2,71,-1
 488 311 l 2,72,73
 493 334 493 334 493 356 c 0,74,75
 493 385 493 385 483 412 c 1,0,-1
EndSplineSet
Validated: 1
EndChar

StartChar: uni0299
Encoding: 665 665 126
Width: 865
Flags: W
LayerCount: 2
Fore
SplineSet
310 49 m 1,0,-1
 440 49 l 2,1,2
 488 49 488 49 541 63 c 128,-1,3
 594 77 594 77 638 112 c 0,4,5
 706 166 706 166 719 222.5 c 128,-1,6
 732 279 732 279 732 302 c 0,7,8
 732 357 732 357 692 407 c 128,-1,9
 652 457 652 457 549 457 c 2,10,-1
 405 457 l 1,11,-1
 310 49 l 1,0,-1
418 515 m 1,12,-1
 581 515 l 1,13,14
 663 525 663 525 723 572 c 0,15,16
 780 617 780 617 798 695 c 0,17,18
 798 697 798 697 799 698 c 0,19,20
 805 722 805 722 805 744 c 0,21,22
 805 794 805 794 769.5 838 c 128,-1,23
 734 882 734 882 639 882 c 2,24,-1
 503 882 l 1,25,-1
 418 515 l 1,12,-1
722 935 m 2,26,27
 788 935 788 935 853 912 c 0,28,29
 919 888 919 888 939 828 c 0,30,31
 950 796 950 796 950 761 c 0,32,33
 950 731 950 731 942 699 c 0,34,35
 942 697 942 697 941 694 c 0,36,37
 924 622 924 622 878 572 c 128,-1,38
 832 522 832 522 767 496 c 1,39,40
 856 464 856 464 878 397 c 0,41,42
 890 361 890 361 890 322 c 0,43,44
 890 290 890 290 882 254 c 0,45,46
 882 252 882 252 881 250 c 0,47,48
 863 170 863 170 806 110 c 0,49,50
 752 52 752 52 676.5 26 c 128,-1,51
 601 0 601 0 544 0 c 2,52,-1
 84 0 l 2,53,54
 74 0 74 0 74 9 c 0,55,56
 74 11 74 11 76 20.5 c 128,-1,57
 78 30 78 30 113.5 42 c 128,-1,58
 149 54 149 54 159 97 c 2,59,-1
 330 837 l 2,60,61
 332 847 332 847 332 856 c 0,62,63
 332 882 332 882 305.5 892.5 c 128,-1,64
 279 903 279 903 283 919 c 128,-1,65
 287 935 287 935 300 935 c 2,66,-1
 722 935 l 2,26,27
EndSplineSet
Validated: 1
EndChar

StartChar: uni029C
Encoding: 668 668 127
Width: 1169
Flags: W
LayerCount: 2
Fore
SplineSet
440 528 m 1,0,-1
 961 528 l 1,1,-1
 1020 785 l 2,2,3
 1024 801 1024 801 1024 813 c 0,4,5
 1024 853 1024 853 986.5 868 c 128,-1,6
 949 883 949 883 949 905 c 0,7,8
 949 908 949 908 949 911 c 0,9,10
 954 931 954 931 975 931 c 2,11,-1
 1308 931 l 2,12,13
 1325 931 1325 931 1325 918 c 0,14,15
 1325 915 1325 915 1324 911 c 0,16,17
 1318 885 1318 885 1263.5 867 c 128,-1,18
 1209 849 1209 849 1194 785 c 2,19,-1
 1047 146 l 2,20,21
 1043 130 1043 130 1043 117 c 0,22,23
 1043 77 1043 77 1081 62.5 c 128,-1,24
 1119 48 1119 48 1119 26 c 0,25,26
 1119 23 1119 23 1119 21 c 0,27,28
 1114 0 1114 0 1093 0 c 2,29,-1
 760 0 l 2,30,31
 739 0 739 0 744 21 c 0,32,33
 750 46 750 46 804 63.5 c 128,-1,34
 858 81 858 81 873 146 c 2,35,-1
 945 458 l 1,36,-1
 424 458 l 1,37,-1
 352 146 l 2,38,39
 348 130 348 130 348 117 c 0,40,41
 348 77 348 77 388.5 61.5 c 128,-1,42
 429 46 429 46 423 21 c 0,43,44
 418 0 418 0 398 0 c 2,45,-1
 65 0 l 2,46,47
 48 0 48 0 48 14 c 0,48,49
 48 17 48 17 49 21 c 0,50,51
 55 46 55 46 109 63.5 c 128,-1,52
 163 81 163 81 178 146 c 2,53,-1
 325 785 l 2,54,55
 329 801 329 801 329 813 c 0,56,57
 329 853 329 853 291.5 868 c 128,-1,58
 254 883 254 883 254 905 c 0,59,60
 254 908 254 908 254 911 c 0,61,62
 259 931 259 931 280 931 c 2,63,-1
 613 931 l 2,64,65
 633 931 633 931 628 911 c 0,66,67
 622 885 622 885 568 867 c 128,-1,68
 514 849 514 849 499 785 c 2,69,-1
 440 528 l 1,0,-1
EndSplineSet
Validated: 1
EndChar

StartChar: uni029F
Encoding: 671 671 128
Width: 865
Flags: W
LayerCount: 2
Fore
SplineSet
842 212 m 1,0,1
 860 212 860 212 860 196 c 0,2,3
 860 193 860 193 860 189 c 0,4,5
 859 183 859 183 852 171 c 2,6,-1
 765 0 l 1,7,-1
 65 0 l 2,8,9
 48 0 48 0 48 15 c 0,10,11
 48 19 48 19 51.5 32.5 c 128,-1,12
 55 46 55 46 109 63.5 c 128,-1,13
 163 81 163 81 178 146 c 2,14,-1
 325 785 l 2,15,16
 329 801 329 801 329 813 c 0,17,18
 329 853 329 853 291.5 868 c 128,-1,19
 254 883 254 883 254 905 c 0,20,21
 254 908 254 908 254 911 c 0,22,23
 259 931 259 931 280 931 c 2,24,-1
 613 931 l 2,25,26
 633 931 633 931 628 911 c 0,27,28
 622 885 622 885 568 867 c 128,-1,29
 514 849 514 849 499 785 c 2,30,-1
 337 83 l 1,31,-1
 632 83 l 2,32,33
 693 83 693 83 734 120 c 128,-1,34
 775 157 775 157 803.5 184.5 c 128,-1,35
 832 212 832 212 842 212 c 1,0,1
EndSplineSet
Validated: 1
EndChar

StartChar: circumflex
Encoding: 710 710 129
Width: 1000
Flags: W
LayerCount: 2
Fore
SplineSet
465 1096 m 1,0,-1
 775 1443 l 1,1,-1
 891 1443 l 1,2,-1
 1040 1096 l 1,3,-1
 983 1096 l 1,4,-1
 801 1305 l 1,5,-1
 523 1096 l 1,6,-1
 465 1096 l 1,0,-1
EndSplineSet
Validated: 1
EndChar

StartChar: breve
Encoding: 728 728 130
Width: 1000
Flags: W
LayerCount: 2
Fore
SplineSet
757 1115 m 0,0,1
 598 1115 598 1115 542 1227 c 1,2,3
 516 1276 516 1276 516 1339 c 0,4,5
 516 1375 516 1375 522 1412 c 1,6,-1
 523 1415 l 2,7,8
 529 1439 529 1439 555 1439 c 0,9,10
 574 1439 574 1439 576 1412 c 0,11,12
 581 1247 581 1247 787 1246 c 1,13,-1
 792 1246 l 2,14,15
 995 1246 995 1246 1076 1412 c 0,16,17
 1089 1439 1089 1439 1109 1439 c 0,18,19
 1131 1439 1131 1439 1131 1422 c 0,20,21
 1131 1418 1131 1418 1130 1414 c 2,22,-1
 1130 1412 l 1,23,24
 1098 1303 1098 1303 1024 1227 c 0,25,26
 915 1115 915 1115 757 1115 c 0,0,1
EndSplineSet
Validated: 1
EndChar

StartChar: dotaccent
Encoding: 729 729 131
Width: 1000
Flags: W
LayerCount: 2
Fore
SplineSet
813 1400 m 128,-1,1
 913 1400 913 1400 913 1327 c 0,2,3
 913 1310 913 1310 908 1290 c 0,4,5
 882 1179 882 1179 782.5 1179 c 128,-1,6
 683 1179 683 1179 683 1252 c 0,7,8
 683 1269 683 1269 688 1290 c 0,9,0
 713 1400 713 1400 813 1400 c 128,-1,1
EndSplineSet
Validated: 1
EndChar

StartChar: ring
Encoding: 730 730 132
Width: 1000
Flags: W
LayerCount: 2
Fore
SplineSet
850 1514 m 256,0,1
 931 1514 931 1514 967.5 1464 c 128,-1,2
 1004 1414 1004 1414 1004 1362 c 0,3,4
 1004 1339 1004 1339 991.5 1285 c 128,-1,5
 979 1231 979 1231 908.5 1173 c 128,-1,6
 838 1115 838 1115 757 1115 c 256,7,8
 676 1115 676 1115 639 1164 c 128,-1,9
 602 1213 602 1213 602 1266 c 0,10,11
 602 1289 602 1289 614.5 1342.5 c 128,-1,12
 627 1396 627 1396 698 1455 c 128,-1,13
 769 1514 769 1514 850 1514 c 256,0,1
911 1436 m 1,14,15
 885 1486 885 1486 835 1486 c 128,-1,16
 785 1486 785 1486 744 1438 c 0,17,18
 702 1391 702 1391 687 1327 c 0,19,20
 686 1321 686 1321 685 1315 c 0,21,22
 680 1290 680 1290 680 1268 c 0,23,24
 680 1226 680 1226 701.5 1184.5 c 128,-1,25
 723 1143 723 1143 773 1143 c 256,26,27
 823 1143 823 1143 865 1191 c 1,28,29
 909 1250 909 1250 922 1306 c 0,30,31
 927 1327 927 1327 927 1347 c 0,32,33
 927 1350 927 1350 927 1354 c 0,34,35
 927 1356 927 1356 927 1359 c 0,36,37
 927 1398 927 1398 911 1436 c 1,14,15
EndSplineSet
Validated: 1
EndChar

StartChar: tilde
Encoding: 732 732 133
Width: 1000
VWidth: 2098
Flags: W
LayerCount: 2
Fore
SplineSet
469 1158 m 1,0,1
 455 1161 455 1161 455 1172 c 0,2,3
 455 1190 455 1190 486 1236 c 2,4,-1
 567 1354 l 2,5,6
 619 1430 619 1430 698.5 1430 c 128,-1,7
 778 1430 778 1430 848 1343 c 1,8,9
 883 1296 883 1296 931 1296 c 0,10,11
 972 1296 972 1296 1022 1331 c 0,12,13
 1067 1363 1067 1363 1114 1437 c 0,14,15
 1121 1449 1121 1449 1132 1449 c 0,16,17
 1134 1449 1134 1449 1136 1449 c 1,18,19
 1147 1446 1147 1446 1147 1437 c 0,20,21
 1147 1434 1147 1434 1145 1424 c 128,-1,22
 1143 1414 1143 1414 1139 1406 c 0,23,24
 1071 1293 1071 1293 1018 1240 c 128,-1,25
 965 1187 965 1187 920 1187 c 0,26,27
 841 1187 841 1187 766 1271 c 1,28,29
 730 1317 730 1317 683 1317 c 0,30,31
 645 1317 645 1317 602 1288 c 1,32,-1
 577 1270 l 1,33,34
 529 1233 529 1233 485 1168 c 0,35,36
 477 1158 477 1158 469 1158 c 1,0,1
EndSplineSet
Validated: 1
EndChar

StartChar: uni0305
Encoding: 773 773 134
Width: 0
Flags: W
LayerCount: 2
Fore
SplineSet
-788 1221 m 1,0,-1
 -769 1304 l 1,1,-1
 301 1304 l 1,2,-1
 282 1221 l 1,3,-1
 -788 1221 l 1,0,-1
EndSplineSet
Validated: 1
EndChar

StartChar: uni031A
Encoding: 794 794 135
Width: 0
Flags: W
LayerCount: 2
Fore
SplineSet
269 891 m 1,0,-1
 188 891 l 1,1,-1
 249 1158 l 1,2,-1
 -206 1158 l 1,3,-1
 -186 1241 l 1,4,-1
 350 1241 l 1,5,-1
 269 891 l 1,0,-1
EndSplineSet
Validated: 1
EndChar

StartChar: uni031F
Encoding: 799 799 136
Width: 0
Flags: W
LayerCount: 2
Fore
SplineSet
-528 -74 m 1,0,-1
 -572 -263 l 1,1,-1
 -383 -263 l 1,2,-1
 -402 -346 l 1,3,-1
 -591 -346 l 1,4,-1
 -634 -534 l 1,5,-1
 -716 -534 l 1,6,-1
 -673 -346 l 1,7,-1
 -862 -346 l 1,8,-1
 -843 -263 l 1,9,-1
 -654 -263 l 1,10,-1
 -610 -74 l 1,11,-1
 -528 -74 l 1,0,-1
EndSplineSet
Validated: 1
EndChar

StartChar: uni0320
Encoding: 800 800 137
Width: 0
Flags: W
LayerCount: 2
Fore
SplineSet
-843 -263 m 1,0,-1
 -383 -263 l 1,1,-1
 -402 -346 l 1,2,-1
 -862 -346 l 1,3,-1
 -843 -263 l 1,0,-1
EndSplineSet
Validated: 1
EndChar

StartChar: uni0321
Encoding: 801 801 138
Width: 0
Flags: W
LayerCount: 2
Fore
SplineSet
-146 0 m 1,0,1
 -190 -192 -190 -192 -236 -279.5 c 128,-1,2
 -282 -367 -282 -367 -360 -433 c 1,3,4
 -472 -525 -472 -525 -584 -552 c 1,5,-1
 -573 -503 l 1,6,7
 -467 -447 -467 -447 -414 -347 c 0,8,9
 -393 -308 -393 -308 -376.5 -238.5 c 128,-1,10
 -360 -169 -360 -169 -321 0 c 1,11,-1
 -146 0 l 1,0,1
EndSplineSet
Validated: 1
EndChar

StartChar: uni0322
Encoding: 802 802 139
Width: 0
Flags: W
LayerCount: 2
Fore
SplineSet
-334 0 m 1,0,1
 -159 0 l 1,2,3
 -198 -169 -198 -169 -212.5 -233 c 128,-1,4
 -227 -297 -227 -297 -227 -334 c 0,5,6
 -227 -341 -227 -341 -226 -347 c 0,7,8
 -219 -447 -219 -447 -139 -503 c 1,9,-1
 -150 -552 l 1,10,11
 -250 -525 -250 -525 -320 -433 c 1,12,13
 -368 -367 -368 -367 -371 -318.5 c 128,-1,14
 -374 -270 -374 -270 -374 -260 c 0,15,16
 -374 -171 -374 -171 -334 0 c 1,0,1
EndSplineSet
Validated: 1
EndChar

StartChar: dotbelowcomb
Encoding: 803 803 140
Width: 0
VWidth: 448
Flags: W
LayerCount: 2
Fore
SplineSet
-556.5 -200 m 128,-1,1
 -457 -200 -457 -200 -457 -273 c 0,2,3
 -457 -290 -457 -290 -462 -310 c 0,4,5
 -488 -421 -488 -421 -587 -421 c 128,-1,6
 -686 -421 -686 -421 -686 -348 c 0,7,8
 -686 -331 -686 -331 -682 -310 c 0,9,0
 -656 -200 -656 -200 -556.5 -200 c 128,-1,1
EndSplineSet
Validated: 1
EndChar

StartChar: uni0324
Encoding: 804 804 141
Width: 0
VWidth: 448
Flags: W
LayerCount: 2
Fore
SplineSet
-336 -200 m 0,0,1
 -247 -200 -247 -200 -247 -273 c 0,2,3
 -247 -290 -247 -290 -252 -310 c 0,4,5
 -278 -421 -278 -421 -387 -421 c 0,6,7
 -476 -421 -476 -421 -476 -348 c 0,8,9
 -476 -331 -476 -331 -472 -310 c 0,10,11
 -446 -200 -446 -200 -336 -200 c 0,0,1
-756 -200 m 0,12,13
 -667 -200 -667 -200 -667 -273 c 0,14,15
 -667 -290 -667 -290 -672 -310 c 0,16,17
 -698 -421 -698 -421 -807 -421 c 0,18,19
 -896 -421 -896 -421 -896 -348 c 0,20,21
 -896 -331 -896 -331 -892 -310 c 0,22,23
 -866 -200 -866 -200 -756 -200 c 0,12,13
EndSplineSet
Validated: 1
EndChar

StartChar: uni0326
Encoding: 806 806 142
Width: 0
Flags: W
LayerCount: 2
Fore
SplineSet
-546 -91 m 1,0,-1
 -536 -91 l 2,1,2
 -449 -91 -449 -91 -449 -154 c 0,3,4
 -449 -163 -449 -163 -451 -173 c 2,5,-1
 -466 -255 l 1,6,-1
 -467 -260 l 2,7,8
 -471 -278 -471 -278 -483 -304 c 1,9,10
 -498 -333 -498 -333 -508 -353 c 0,11,12
 -569 -468 -569 -468 -697 -550 c 0,13,14
 -738 -577 -738 -577 -762 -577 c 0,15,16
 -776 -577 -776 -577 -785 -568 c 0,17,18
 -789 -563 -789 -563 -789 -557 c 0,19,20
 -789 -547 -789 -547 -777 -535 c 0,21,22
 -758 -517 -758 -517 -731 -502 c 0,23,24
 -625 -440 -625 -440 -592 -347 c 1,25,-1
 -604 -347 l 2,26,27
 -689 -347 -689 -347 -689 -286 c 0,28,29
 -689 -277 -689 -277 -687 -266 c 2,30,-1
 -672 -184 l 1,31,-1
 -671 -177 l 2,32,33
 -653 -98 -653 -98 -546 -91 c 1,0,-1
EndSplineSet
Validated: 1
EndChar

StartChar: uni0329
Encoding: 809 809 143
Width: 0
Flags: W
LayerCount: 2
Fore
SplineSet
-712 -501 m 1,0,-1
 -622 -112 l 1,1,-1
 -496 -112 l 1,2,-1
 -586 -501 l 1,3,-1
 -712 -501 l 1,0,-1
EndSplineSet
Validated: 1
EndChar

StartChar: uni032A
Encoding: 810 810 144
Width: 0
Flags: W
LayerCount: 2
Fore
SplineSet
-236 -168 m 1,0,-1
 -299 -442 l 1,1,-1
 -382 -442 l 1,2,-1
 -338 -251 l 1,3,-1
 -925 -251 l 1,4,-1
 -969 -442 l 1,5,-1
 -1051 -442 l 1,6,-1
 -988 -168 l 1,7,-1
 -236 -168 l 1,0,-1
EndSplineSet
Validated: 1
EndChar

StartChar: uni032B
Encoding: 811 811 145
Width: 0
Flags: W
LayerCount: 2
Fore
SplineSet
-1005 -208 m 2,0,-1
 -1005 -206 l 1,1,-1
 -976 -206 l 1,2,3
 -978 -210 -978 -210 -979 -216 c 0,4,5
 -981 -226 -981 -226 -981 -235 c 0,6,7
 -981 -271 -981 -271 -947 -297 c 0,8,9
 -908 -327 -908 -327 -845 -327 c 2,10,-1
 -833 -327 l 1,11,12
 -786 -324 -786 -324 -718 -294.5 c 128,-1,13
 -650 -265 -650 -265 -637 -208 c 2,14,-1
 -637 -206 l 1,15,-1
 -606 -206 l 1,16,-1
 -606 -208 l 2,17,18
 -610 -224 -610 -224 -610 -237 c 0,19,20
 -610 -280 -610 -280 -573 -302 c 0,21,22
 -530 -327 -530 -327 -476 -327 c 2,23,-1
 -464 -327 l 1,24,25
 -395 -323 -395 -323 -337.5 -288 c 128,-1,26
 -280 -253 -280 -253 -266 -206 c 1,27,-1
 -238 -206 l 1,28,-1
 -238 -208 l 2,29,30
 -257 -289 -257 -289 -328 -346 c 128,-1,31
 -399 -403 -399 -403 -482 -403 c 0,32,33
 -615 -403 -615 -403 -638 -283 c 1,34,35
 -716 -403 -716 -403 -851 -403 c 0,36,37
 -933 -403 -933 -403 -971.5 -354.5 c 128,-1,38
 -1010 -306 -1010 -306 -1010 -253 c 0,39,40
 -1010 -232 -1010 -232 -1005 -208 c 2,0,-1
EndSplineSet
Validated: 1
EndChar

StartChar: uni0332
Encoding: 818 818 146
Width: 0
Flags: W
LayerCount: 2
Fore
SplineSet
-993 -383 m 1,0,-1
 -974 -300 l 1,1,-1
 -69 -300 l 1,2,-1
 -88 -383 l 1,3,-1
 -993 -383 l 1,0,-1
EndSplineSet
Validated: 1
EndChar

StartChar: uni0333
Encoding: 819 819 147
Width: 0
Flags: W
LayerCount: 2
Fore
SplineSet
-1110 -216 m 1,0,-1
 -50 -216 l 1,1,-1
 -69 -299 l 1,2,-1
 -1129 -299 l 1,3,-1
 -1110 -216 l 1,0,-1
-1149 -385 m 1,4,-1
 -89 -385 l 1,5,-1
 -108 -467 l 1,6,-1
 -1168 -467 l 1,7,-1
 -1149 -385 l 1,4,-1
EndSplineSet
Validated: 1
EndChar

StartChar: uni0335
Encoding: 821 821 148
Width: 0
Flags: W
LayerCount: 2
Fore
SplineSet
-816 427 m 1,0,-1
 -797 510 l 1,1,-1
 -28 510 l 1,2,-1
 -47 427 l 1,3,-1
 -816 427 l 1,0,-1
EndSplineSet
Validated: 1
EndChar

StartChar: uni0336
Encoding: 822 822 149
Width: 0
Flags: W
LayerCount: 2
Fore
SplineSet
-963 420 m 1,0,-1
 -944 503 l 1,1,-1
 116 503 l 1,2,-1
 97 420 l 1,3,-1
 -963 420 l 1,0,-1
EndSplineSet
Validated: 1
EndChar

StartChar: uni0337
Encoding: 823 823 150
Width: 0
Flags: W
LayerCount: 2
Fore
SplineSet
-783 229 m 1,0,-1
 -112 774 l 1,1,-1
 -62 708 l 1,2,-1
 -732 163 l 1,3,-1
 -783 229 l 1,0,-1
EndSplineSet
Validated: 1
EndChar

StartChar: uni0338
Encoding: 824 824 151
Width: 0
Flags: W
LayerCount: 2
Fore
SplineSet
-868 -24 m 1,0,-1
 -49 988 l 1,1,-1
 18 942 l 1,2,-1
 -800 -70 l 1,3,-1
 -868 -24 l 1,0,-1
EndSplineSet
Validated: 1
EndChar

StartChar: uni0339
Encoding: 825 825 152
Width: 0
Flags: W
LayerCount: 2
Fore
SplineSet
-656 -107 m 2,0,1
 -575 -107 -575 -107 -537.5 -156 c 128,-1,2
 -500 -205 -500 -205 -500 -258 c 0,3,4
 -500 -281 -500 -281 -506 -307 c 0,5,6
 -525 -389 -525 -389 -596 -447.5 c 128,-1,7
 -667 -506 -667 -506 -748 -506 c 2,8,-1
 -749 -506 l 1,9,-1
 -742 -477 l 1,10,11
 -693 -472 -693 -472 -647 -423 c 128,-1,12
 -601 -374 -601 -374 -583 -306 c 1,13,-1
 -579 -290 l 2,14,15
 -573 -263 -573 -263 -573 -239 c 0,16,17
 -573 -209 -573 -209 -583 -185 c 0,18,19
 -603 -135 -603 -135 -654 -135 c 0,20,21
 -660 -135 -660 -135 -663 -136 c 1,22,-1
 -657 -107 l 1,23,-1
 -656 -107 l 2,0,1
EndSplineSet
Validated: 1
EndChar

StartChar: uni033A
Encoding: 826 826 153
Width: 0
Flags: W
LayerCount: 2
Fore
SplineSet
-299 -442 m 1,0,-1
 -1051 -442 l 1,1,-1
 -988 -168 l 1,2,-1
 -906 -168 l 1,3,-1
 -950 -359 l 1,4,-1
 -363 -359 l 1,5,-1
 -319 -168 l 1,6,-1
 -236 -168 l 1,7,-1
 -299 -442 l 1,0,-1
EndSplineSet
Validated: 1
EndChar

StartChar: uni033B
Encoding: 827 827 154
Width: 0
Flags: W
LayerCount: 2
Fore
SplineSet
-830 -92 m 1,0,-1
 -358 -92 l 1,1,-1
 -467 -564 l 1,2,-1
 -939 -564 l 1,3,-1
 -830 -92 l 1,0,-1
-766 -175 m 1,4,-1
 -837 -481 l 1,5,-1
 -531 -481 l 1,6,-1
 -460 -175 l 1,7,-1
 -766 -175 l 1,4,-1
EndSplineSet
Validated: 1
EndChar

StartChar: uni033C
Encoding: 828 828 155
Width: 0
Flags: W
LayerCount: 2
Fore
SplineSet
-991 -180 m 1,0,1
 -854 -216 -854 -216 -750 -248 c 128,-1,2
 -646 -280 -646 -280 -643 -421 c 1,3,4
 -584 -281 -584 -281 -484 -252 c 128,-1,5
 -384 -223 -384 -223 -238 -176 c 1,6,-1
 -250 -231 l 1,7,8
 -370 -282 -370 -282 -467.5 -333 c 128,-1,9
 -565 -384 -565 -384 -634 -534 c 1,10,-1
 -716 -534 l 1,11,12
 -721 -408 -721 -408 -790 -344.5 c 128,-1,13
 -859 -281 -859 -281 -1002 -231 c 1,14,-1
 -991 -180 l 1,0,1
EndSplineSet
Validated: 1
EndChar

StartChar: uni033D
Encoding: 829 829 156
Width: 0
Flags: W
LayerCount: 2
Fore
SplineSet
-322 1586 m 1,0,-1
 -220 1453 l 1,1,-1
 -55 1586 l 1,2,-1
 -10 1528 l 1,3,-1
 -174 1394 l 1,4,-1
 -72 1261 l 1,5,-1
 -143 1203 l 1,6,-1
 -247 1336 l 1,7,-1
 -410 1203 l 1,8,-1
 -455 1261 l 1,9,-1
 -291 1394 l 1,10,-1
 -393 1528 l 1,11,-1
 -322 1586 l 1,0,-1
EndSplineSet
Validated: 1
EndChar

StartChar: uni033E
Encoding: 830 830 157
Width: 0
Flags: W
LayerCount: 2
Fore
SplineSet
-238 1222 m 0,0,1
 -320 1291 -320 1291 -348 1343 c 1,2,3
 -365 1373 -365 1373 -365 1401 c 0,4,5
 -365 1411 -365 1411 -363 1421 c 128,-1,6
 -361 1431 -361 1431 -355 1441 c 0,7,8
 -317 1516 -317 1516 -196 1586 c 1,9,10
 -111 1634 -111 1634 -97 1693 c 0,11,12
 -91 1718 -91 1718 -99 1745 c 0,13,14
 -102 1754 -102 1754 -106 1768.5 c 128,-1,15
 -110 1783 -110 1783 -120 1801 c 0,16,17
 -137 1832 -137 1832 -165 1862 c 0,18,19
 -171 1868 -171 1868 -170 1873 c 0,20,21
 -168 1880 -168 1880 -156 1887 c 0,22,23
 -149 1891 -149 1891 -141 1891 c 0,24,25
 -129 1891 -129 1891 -117 1879 c 0,26,27
 -68 1828 -68 1828 -15 1776 c 0,28,29
 16 1744 16 1744 16 1706 c 0,30,31
 16 1695 16 1695 14 1684 c 0,32,33
 11 1670 11 1670 3 1655 c 0,34,35
 -40 1569 -40 1569 -162 1505 c 0,36,37
 -245 1461 -245 1461 -259 1398 c 0,38,39
 -265 1370 -265 1370 -258 1337 c 0,40,41
 -247 1291 -247 1291 -194 1245 c 1,42,43
 -188 1238 -188 1238 -189 1231 c 0,44,45
 -190 1227 -190 1227 -193 1223 c 0,46,47
 -200 1213 -200 1213 -213 1213 c 0,48,49
 -216 1213 -216 1213 -220 1214 c 0,50,51
 -230 1215 -230 1215 -238 1222 c 0,0,1
EndSplineSet
Validated: 1
EndChar

StartChar: uni033F
Encoding: 831 831 158
Width: 0
Flags: W
LayerCount: 2
Fore
SplineSet
-730 1388 m 1,0,-1
 320 1388 l 1,1,-1
 301 1305 l 1,2,-1
 -749 1305 l 1,3,-1
 -730 1388 l 1,0,-1
-769 1219 m 1,4,-1
 281 1219 l 1,5,-1
 262 1137 l 1,6,-1
 -788 1137 l 1,7,-1
 -769 1219 l 1,4,-1
EndSplineSet
Validated: 1
EndChar

StartChar: uni0346
Encoding: 838 838 159
Width: 0
Flags: W
LayerCount: 2
Fore
SplineSet
139 1454 m 1,0,-1
 75 1180 l 1,1,-1
 -8 1180 l 1,2,-1
 37 1371 l 1,3,-1
 -550 1371 l 1,4,-1
 -595 1180 l 1,5,-1
 -677 1180 l 1,6,-1
 -613 1454 l 1,7,-1
 139 1454 l 1,0,-1
EndSplineSet
Validated: 1
EndChar

StartChar: uni0347
Encoding: 839 839 160
Width: 0
Flags: W
LayerCount: 2
Fore
SplineSet
-831 -216 m 1,0,-1
 -330 -216 l 1,1,-1
 -349 -299 l 1,2,-1
 -850 -299 l 1,3,-1
 -831 -216 l 1,0,-1
-870 -385 m 1,4,-1
 -369 -385 l 1,5,-1
 -388 -467 l 1,6,-1
 -889 -467 l 1,7,-1
 -870 -385 l 1,4,-1
EndSplineSet
Validated: 1
EndChar

StartChar: uni0348
Encoding: 840 840 161
Width: 0
Flags: W
LayerCount: 2
Fore
SplineSet
-519 -121 m 1,0,-1
 -393 -121 l 1,1,-1
 -483 -510 l 1,2,-1
 -609 -510 l 1,3,-1
 -519 -121 l 1,0,-1
-730 -121 m 1,4,-1
 -604 -121 l 1,5,-1
 -694 -510 l 1,6,-1
 -820 -510 l 1,7,-1
 -730 -121 l 1,4,-1
EndSplineSet
Validated: 1
EndChar

StartChar: uni0349
Encoding: 841 841 162
Width: 0
Flags: W
LayerCount: 2
Fore
SplineSet
-548 -554 m 1,0,-1
 -631 -554 l 1,1,-1
 -569 -286 l 1,2,-1
 -1023 -286 l 1,3,-1
 -1004 -203 l 1,4,-1
 -467 -203 l 1,5,-1
 -548 -554 l 1,0,-1
EndSplineSet
Validated: 1
EndChar

StartChar: uni034A
Encoding: 842 842 163
Width: 0
Flags: W
LayerCount: 2
Fore
SplineSet
68 1320 m 1,0,1
 105 1296 105 1296 141 1296 c 0,2,3
 180 1296 180 1296 218 1323 c 1,4,5
 265 1354 265 1354 311 1430 c 0,6,7
 319 1442 319 1442 328 1442 c 0,8,9
 330 1442 330 1442 332 1441 c 0,10,11
 343 1438 343 1438 342 1420 c 1,12,-1
 341 1415 l 2,13,14
 339 1406 339 1406 334 1398 c 0,15,16
 270 1286 270 1286 217 1234 c 1,17,18
 162 1179 162 1179 116 1179 c 0,19,20
 64 1179 64 1179 -14.5 1234.5 c 128,-1,21
 -93 1290 -93 1290 -135 1318 c 0,22,23
 -178 1346 -178 1346 -189 1380 c 0,24,25
 -194 1395 -194 1395 -195 1411 c 0,26,27
 -195 1422 -195 1422 -192 1433 c 0,28,29
 -184 1469 -184 1469 -146 1509 c 0,30,31
 -82 1576 -82 1576 -21 1641 c 0,32,33
 -3 1660 -3 1660 12 1660 c 0,34,35
 17 1660 17 1660 22 1659 c 1,36,37
 33 1654 33 1654 31 1646 c 0,38,39
 30 1642 30 1642 25 1636 c 0,40,41
 -13 1594 -13 1594 -33 1562 c 0,42,43
 -50 1534 -50 1534 -67 1498 c 0,44,45
 -71 1489 -71 1489 -73 1480 c 0,46,47
 -75 1470 -75 1470 -76 1461 c 0,48,49
 -76 1416 -76 1416 -25 1378 c 1,50,-1
 -9 1368 l 1,51,52
 18 1403 18 1403 54 1438 c 128,-1,53
 90 1473 90 1473 122 1508 c 0,54,55
 140 1527 140 1527 156 1527 c 0,56,57
 161 1527 161 1527 165 1525 c 0,58,59
 176 1520 176 1520 174 1512 c 0,60,61
 173 1508 173 1508 168 1502 c 0,62,63
 132 1463 132 1463 110 1428 c 0,64,65
 92 1400 92 1400 76 1365 c 0,66,67
 74 1360 74 1360 72 1353 c 0,68,69
 70 1340 70 1340 68 1320 c 1,0,1
EndSplineSet
Validated: 1
EndChar

StartChar: uni034B
Encoding: 843 843 164
Width: 0
Flags: W
LayerCount: 2
Fore
SplineSet
94 1356 m 0,0,1
 27 1243 27 1243 -25 1191 c 0,2,3
 -78 1137 -78 1137 -126 1137 c 0,4,5
 -204 1137 -204 1137 -278 1221 c 1,6,7
 -320 1267 -320 1267 -366 1267 c 0,8,9
 -403 1267 -403 1267 -443 1238 c 0,10,11
 -453 1230 -453 1230 -467 1219.5 c 128,-1,12
 -481 1209 -481 1209 -500 1191 c 1,13,14
 -533 1156 -533 1156 -560 1118 c 0,15,16
 -567 1108 -567 1108 -574 1108 c 0,17,18
 -579 1108 -579 1108 -585 1114 c 0,19,20
 -590 1119 -590 1119 -590 1127 c 0,21,22
 -590 1130 -590 1130 -589 1134 c 0,23,24
 -587 1144 -587 1144 -579 1156 c 0,25,26
 -529 1228 -529 1228 -477.5 1304 c 128,-1,27
 -426 1380 -426 1380 -355 1380 c 0,28,29
 -266 1380 -266 1380 -196 1293 c 0,30,31
 -159 1246 -159 1246 -112 1246 c 0,32,33
 -71 1246 -71 1246 -23 1281 c 1,34,35
 24 1312 24 1312 69 1387 c 0,36,37
 77 1399 77 1399 87 1399 c 2,38,-1
 91 1399 l 1,39,40
 101 1396 101 1396 101 1383 c 0,41,42
 101 1381 101 1381 101 1378 c 128,-1,43
 101 1375 101 1375 101 1371 c 0,44,45
 99 1364 99 1364 94 1356 c 0,0,1
-269 1144 m 0,46,47
 -235 1144 -235 1144 -235 1116 c 0,48,49
 -235 1109 -235 1109 -237 1101 c 0,50,51
 -247 1059 -247 1059 -289 1059 c 0,52,53
 -324 1059 -324 1059 -324 1087 c 0,54,55
 -324 1093 -324 1093 -322 1101 c 0,56,57
 -312 1144 -312 1144 -269 1144 c 0,46,47
-198 1449 m 0,58,59
 -164 1449 -164 1449 -164 1421 c 0,60,61
 -164 1415 -164 1415 -166 1407 c 0,62,63
 -176 1364 -176 1364 -218 1364 c 0,64,65
 -253 1364 -253 1364 -253 1392 c 0,66,67
 -253 1399 -253 1399 -251 1407 c 0,68,69
 -241 1449 -241 1449 -198 1449 c 0,58,59
EndSplineSet
Validated: 1
EndChar

StartChar: uni034C
Encoding: 844 844 165
Width: 0
Flags: W
LayerCount: 2
Fore
SplineSet
107 1414 m 0,0,1
 47 1339 47 1339 2 1309 c 1,2,3
 -47 1274 -47 1274 -94 1274 c 0,4,5
 -172 1274 -172 1274 -253 1328 c 1,6,7
 -299 1357 -299 1357 -346 1357 c 0,8,9
 -383 1357 -383 1357 -420 1339 c 1,10,11
 -429 1333 -429 1333 -442 1326.5 c 128,-1,12
 -455 1320 -455 1320 -473 1308 c 0,13,14
 -501 1288 -501 1288 -527 1262 c 0,15,16
 -534 1255 -534 1255 -540 1255 c 0,17,18
 -545 1255 -545 1255 -551 1259 c 0,19,20
 -559 1264 -559 1264 -557 1272 c 0,21,22
 -556 1278 -556 1278 -549 1286 c 0,23,24
 -505 1332 -505 1332 -460 1380.5 c 128,-1,25
 -415 1429 -415 1429 -344 1429 c 0,26,27
 -255 1429 -255 1429 -178 1374 c 1,28,29
 -138 1344 -138 1344 -90 1344 c 0,30,31
 -49 1344 -49 1344 -4 1366 c 1,32,33
 42 1386 42 1386 80 1434 c 0,34,35
 87 1441 87 1441 97 1441 c 2,36,-1
 101 1441 l 1,37,38
 113 1439 113 1439 113 1430 c 2,39,-1
 113 1423 l 1,40,41
 111 1418 111 1418 107 1414 c 0,0,1
64 1224 m 0,42,43
 5 1152 5 1152 -42 1119 c 0,44,45
 -91 1084 -91 1084 -138 1084 c 0,46,47
 -216 1084 -216 1084 -297 1138 c 1,48,49
 -343 1167 -343 1167 -390 1167 c 0,50,51
 -427 1167 -427 1167 -464 1149 c 1,52,53
 -492 1134 -492 1134 -517 1119 c 1,54,55
 -550 1093 -550 1093 -571 1072 c 0,56,57
 -578 1065 -578 1065 -584 1065 c 0,58,59
 -589 1065 -589 1065 -595 1069 c 128,-1,60
 -601 1073 -601 1073 -601 1079 c 0,61,62
 -601 1086 -601 1086 -593 1097 c 0,63,64
 -550 1142 -550 1142 -504.5 1191 c 128,-1,65
 -459 1240 -459 1240 -388 1240 c 0,66,67
 -299 1240 -299 1240 -222 1184 c 0,68,69
 -181 1154 -181 1154 -134 1154 c 0,70,71
 -93 1154 -93 1154 -47 1176 c 1,72,73
 -2 1196 -2 1196 36 1245 c 0,74,75
 43 1252 43 1252 53 1252 c 2,76,-1
 57 1252 l 1,77,78
 70 1250 70 1250 69 1238 c 0,79,80
 70 1237 70 1237 70 1236 c 128,-1,81
 70 1235 70 1235 69 1234 c 0,82,83
 68 1229 68 1229 64 1224 c 0,42,43
EndSplineSet
Validated: 1
EndChar

StartChar: uni034D
Encoding: 845 845 166
Width: 0
Flags: W
LayerCount: 2
Fore
SplineSet
-958 -300 m 1,0,-1
 -247 -300 l 1,1,-1
 -254 -226 l 1,2,-1
 -123 -342 l 1,3,-1
 -308 -457 l 1,4,-1
 -266 -383 l 1,5,-1
 -977 -383 l 1,6,-1
 -971 -457 l 1,7,-1
 -1102 -342 l 1,8,-1
 -917 -226 l 1,9,-1
 -958 -300 l 1,0,-1
EndSplineSet
Validated: 1
EndChar

StartChar: uni034E
Encoding: 846 846 167
Width: 0
Flags: W
LayerCount: 2
Fore
SplineSet
-625 -577 m 1,0,-1
 -708 -577 l 1,1,-1
 -630 -239 l 1,2,-1
 -710 -263 l 1,3,-1
 -557 -105 l 1,4,-1
 -479 -263 l 1,5,-1
 -547 -239 l 1,6,-1
 -625 -577 l 1,0,-1
EndSplineSet
Validated: 1
EndChar

StartChar: uni0350
Encoding: 848 848 168
Width: 0
Flags: W
LayerCount: 2
Fore
SplineSet
-62 1388 m 0,0,1
 -139 1334 -139 1334 -219 1280.5 c 128,-1,2
 -299 1227 -299 1227 -375 1176 c 0,3,4
 -378 1174 -378 1174 -382 1174 c 0,5,6
 -383 1174 -383 1174 -385 1175 c 2,7,-1
 -409 1191 l 1,8,9
 -412 1192 -412 1192 -412 1194 c 0,10,11
 -412 1195 -412 1195 -410 1198 c 2,12,-1
 -171 1396 l 1,13,-1
 -318 1592 l 2,14,15
 -320 1594 -320 1594 -320 1595 c 0,16,17
 -320 1597 -320 1597 -315 1599 c 2,18,-1
 -283 1615 l 1,19,-1
 -280 1615 l 2,20,21
 -277 1615 -277 1615 -274 1614 c 1,22,23
 -228 1566 -228 1566 -161 1506 c 128,-1,24
 -94 1446 -94 1446 -58 1402 c 1,25,26
 -55 1400 -55 1400 -55 1398 c 0,27,28
 -55 1393 -55 1393 -62 1388 c 0,0,1
EndSplineSet
Validated: 1
EndChar

StartChar: uni0351
Encoding: 849 849 169
Width: 0
Flags: W
LayerCount: 2
Fore
SplineSet
-87 1514 m 2,0,-1
 -85 1514 l 1,1,-1
 -92 1485 l 1,2,3
 -95 1486 -95 1486 -102 1486 c 0,4,5
 -151 1486 -151 1486 -194 1436 c 0,6,7
 -235 1389 -235 1389 -250 1327 c 2,8,-1
 -252 1315 l 1,9,10
 -256 1292 -256 1292 -256 1271 c 0,11,12
 -256 1230 -256 1230 -236.5 1189 c 128,-1,13
 -217 1148 -217 1148 -171 1144 c 1,14,-1
 -178 1115 l 1,15,-1
 -180 1115 l 2,16,17
 -260 1115 -260 1115 -297 1164 c 128,-1,18
 -334 1213 -334 1213 -334 1266 c 0,19,20
 -334 1289 -334 1289 -329 1314 c 0,21,22
 -310 1396 -310 1396 -238.5 1455 c 128,-1,23
 -167 1514 -167 1514 -87 1514 c 2,0,-1
EndSplineSet
Validated: 1
EndChar

StartChar: uni0352
Encoding: 850 850 170
Width: 0
Flags: W
LayerCount: 2
Fore
SplineSet
-151 1653 m 256,0,1
 8 1653 8 1653 64 1541 c 1,2,3
 90 1486 90 1486 90 1420 c 0,4,5
 90 1389 90 1389 84 1356 c 1,6,7
 78 1329 78 1329 51 1329 c 0,8,9
 32 1329 32 1329 30 1356 c 0,10,11
 25 1522 25 1522 -182 1522 c 2,12,-1
 -184 1522 l 1,13,14
 -389 1520 -389 1520 -471 1356 c 0,15,16
 -484 1329 -484 1329 -504 1329 c 0,17,18
 -525 1329 -525 1329 -525 1346 c 0,19,20
 -525 1350 -525 1350 -524 1354 c 2,21,-1
 -524 1356 l 1,22,23
 -495 1459 -495 1459 -419 1541 c 1,24,25
 -310 1653 -310 1653 -151 1653 c 256,0,1
-261 1178 m 0,26,27
 -350 1178 -350 1178 -350 1251 c 0,28,29
 -350 1268 -350 1268 -345 1289 c 0,30,31
 -320 1399 -320 1399 -210 1399 c 0,32,33
 -122 1399 -122 1399 -122 1327 c 0,34,35
 -122 1310 -122 1310 -126 1289 c 0,36,37
 -152 1178 -152 1178 -261 1178 c 0,26,27
EndSplineSet
Validated: 1
EndChar

StartChar: uni0353
Encoding: 851 851 171
Width: 0
Flags: W
LayerCount: 2
Fore
SplineSet
-689 -96 m 1,0,-1
 -586 -229 l 1,1,-1
 -422 -96 l 1,2,-1
 -378 -154 l 1,3,-1
 -541 -288 l 1,4,-1
 -439 -421 l 1,5,-1
 -511 -480 l 1,6,-1
 -613 -346 l 1,7,-1
 -778 -480 l 1,8,-1
 -822 -421 l 1,9,-1
 -658 -288 l 1,10,-1
 -761 -154 l 1,11,-1
 -689 -96 l 1,0,-1
EndSplineSet
Validated: 1
EndChar

StartChar: uni0354
Encoding: 852 852 172
Width: 0
Flags: W
LayerCount: 2
Fore
SplineSet
-753 -295 m 0,0,1
 -756 -292 -756 -292 -756 -289 c 0,2,3
 -756 -285 -756 -285 -750 -280 c 0,4,5
 -693 -236 -693 -236 -598 -175.5 c 128,-1,6
 -503 -115 -503 -115 -436 -69 c 0,7,8
 -432 -67 -432 -67 -429 -67 c 256,9,10
 -427 -67 -427 -67 -427 -68 c 2,11,-1
 -401 -84 l 2,12,13
 -398 -86 -398 -86 -398 -87 c 0,14,15
 -398 -89 -398 -89 -402 -90 c 1,16,-1
 -640 -287 l 1,17,-1
 -492 -485 l 2,18,19
 -490 -487 -490 -487 -491 -488 c 0,20,21
 -491 -490 -491 -490 -496 -492 c 2,22,-1
 -528 -508 l 1,23,-1
 -530 -508 l 2,24,25
 -533 -508 -533 -508 -537 -507 c 1,26,27
 -589 -455 -589 -455 -644 -401.5 c 128,-1,28
 -699 -348 -699 -348 -753 -295 c 0,0,1
EndSplineSet
Validated: 1
EndChar

StartChar: uni0355
Encoding: 853 853 173
Width: 0
Flags: W
LayerCount: 2
Fore
SplineSet
-450 -295 m 0,0,1
 -527 -348 -527 -348 -607 -401.5 c 128,-1,2
 -687 -455 -687 -455 -764 -507 c 1,3,4
 -767 -508 -767 -508 -770 -508 c 2,5,-1
 -773 -508 l 1,6,-1
 -798 -492 l 2,7,8
 -801 -490 -801 -490 -801 -488 c 128,-1,9
 -801 -486 -801 -486 -799 -485 c 2,10,-1
 -559 -287 l 1,11,-1
 -707 -90 l 2,12,13
 -710 -88 -710 -88 -709 -87 c 0,14,15
 -709 -85 -709 -85 -703 -84 c 1,16,-1
 -672 -68 l 2,17,18
 -671 -67 -671 -67 -668 -67 c 128,-1,19
 -665 -67 -665 -67 -663 -69 c 0,20,21
 -617 -115 -617 -115 -549.5 -175.5 c 128,-1,22
 -482 -236 -482 -236 -447 -280 c 0,23,24
 -444 -283 -444 -283 -443 -287 c 0,25,26
 -443 -290 -443 -290 -450 -295 c 0,0,1
EndSplineSet
Validated: 1
EndChar

StartChar: uni0356
Encoding: 854 854 174
Width: 0
Flags: W
LayerCount: 2
Fore
SplineSet
-684 -295 m 0,0,1
 -761 -348 -761 -348 -840.5 -401.5 c 128,-1,2
 -920 -455 -920 -455 -997 -507 c 1,3,4
 -1001 -508 -1001 -508 -1004 -508 c 2,5,-1
 -1007 -508 l 1,6,-1
 -1032 -492 l 2,7,8
 -1035 -490 -1035 -490 -1035 -488 c 0,9,10
 -1035 -487 -1035 -487 -1032 -485 c 2,11,-1
 -792 -287 l 1,12,-1
 -940 -90 l 2,13,14
 -942 -89 -942 -89 -941 -87 c 0,15,16
 -941 -86 -941 -86 -937 -84 c 2,17,-1
 -906 -68 l 2,18,19
 -904 -67 -904 -67 -901 -67 c 128,-1,20
 -898 -67 -898 -67 -896 -69 c 0,21,22
 -850 -115 -850 -115 -782.5 -175.5 c 128,-1,23
 -715 -236 -715 -236 -681 -280 c 0,24,25
 -677 -284 -677 -284 -677 -288 c 256,26,27
 -678 -292 -678 -292 -684 -295 c 0,0,1
-391 -137 m 0,28,29
 -352 -202 -352 -202 -314.5 -269.5 c 128,-1,30
 -277 -337 -277 -337 -241 -402 c 1,31,32
 -239 -404 -239 -404 -239 -406 c 0,33,34
 -239 -409 -239 -409 -242 -411 c 2,35,-1
 -263 -439 l 1,36,37
 -267 -442 -267 -442 -270 -442 c 2,38,-1
 -271 -442 l 1,39,-1
 -424 -247 l 1,40,-1
 -666 -441 l 1,41,-1
 -668 -441 l 2,42,43
 -670 -441 -670 -441 -672 -439 c 1,44,-1
 -682 -411 l 2,45,46
 -682 -410 -682 -410 -682 -409 c 128,-1,47
 -682 -408 -682 -408 -682 -407 c 0,48,49
 -681 -403 -681 -403 -678 -402 c 1,50,51
 -618 -345 -618 -345 -538.5 -263.5 c 128,-1,52
 -459 -182 -459 -182 -406 -137 c 0,53,54
 -401 -133 -401 -133 -397 -133 c 256,55,56
 -393 -133 -393 -133 -391 -137 c 0,28,29
EndSplineSet
Validated: 1
EndChar

StartChar: uni0357
Encoding: 855 855 175
Width: 0
Flags: W
LayerCount: 2
Fore
SplineSet
-281 1514 m 2,0,1
 -200 1514 -200 1514 -163 1464 c 128,-1,2
 -126 1414 -126 1414 -126 1361 c 0,3,4
 -126 1338 -126 1338 -132 1314 c 0,5,6
 -151 1231 -151 1231 -222 1173 c 128,-1,7
 -293 1115 -293 1115 -374 1115 c 2,8,-1
 -375 1115 l 1,9,-1
 -368 1144 l 1,10,11
 -319 1148 -319 1148 -273 1197 c 128,-1,12
 -227 1246 -227 1246 -208 1315 c 1,13,-1
 -205 1330 l 2,14,15
 -199 1357 -199 1357 -199 1381 c 0,16,17
 -199 1411 -199 1411 -208 1436 c 0,18,19
 -228 1486 -228 1486 -280 1486 c 0,20,21
 -286 1486 -286 1486 -289 1485 c 1,22,-1
 -282 1514 l 1,23,-1
 -281 1514 l 2,0,1
EndSplineSet
Validated: 1
EndChar

StartChar: uni0358
Encoding: 856 856 176
Width: 0
Flags: W
LayerCount: 2
Fore
SplineSet
316 1400 m 0,0,1
 360 1400 360 1400 381.5 1372.5 c 128,-1,2
 403 1345 403 1345 403 1315 c 0,3,4
 403 1303 403 1303 400 1290 c 0,5,6
 389 1244 389 1244 349 1211.5 c 128,-1,7
 309 1179 309 1179 265 1179 c 0,8,9
 177 1179 177 1179 177 1252 c 0,10,11
 177 1269 177 1269 182 1290 c 0,12,13
 207 1400 207 1400 316 1400 c 0,0,1
EndSplineSet
Validated: 1
EndChar

